<svg width="251" height="251" viewBox="0 0 251 251" fill="none" xmlns="http://www.w3.org/2000/svg">
<g opacity="0.08">
<path d="M248.137 141.366L225.429 134.973C226.645 128.501 227.351 121.95 227.43 115.517C227.469 114.89 227.469 114.301 227.469 113.752C227.469 51.0316 176.445 0 113.734 0C51.0236 0 0 51.0316 0 113.752C0 176.473 51.0236 227.504 113.734 227.504C126.363 227.504 138.717 225.347 150.561 221.307C158.993 231.231 170.288 240.095 184.681 248.058C186.25 248.921 187.897 249.784 189.544 250.608C190.093 250.882 190.682 251 191.27 251C191.858 251 192.446 250.843 193.035 250.608C194.721 249.784 196.329 248.921 197.898 248.058C234.136 227.975 251 202.479 251 167.804V145.132C251 143.367 249.823 141.837 248.137 141.366ZM89.4972 10.6692C76.7119 22.2797 66.0052 42.7943 60.0047 68.6828C37.4147 74.0173 20.0408 82.4507 9.96156 92.6099C18.1975 52.1691 49.5333 20.0831 89.4972 10.6692ZM58.2791 77.1553C56.3181 87.746 55.22 98.6898 55.0239 109.79H8.35359C11.5303 96.6893 30.2377 84.4119 58.2791 77.1553ZM55.0239 117.675C55.22 128.775 56.3181 139.719 58.2791 150.31C30.2377 143.092 11.5303 130.815 8.35359 117.675H55.0239ZM9.96156 134.894C20.0408 145.054 37.4147 153.487 60.0047 158.822C66.0444 184.749 76.7119 205.225 89.4972 216.835C49.5333 207.421 18.1975 175.335 9.96156 134.894ZM109.812 219.267C93.0269 216.129 76.7903 193.104 68.4759 160.547C81.4181 163.019 95.4584 164.431 109.812 164.627V219.267ZM109.812 156.821C94.7525 156.586 79.967 155.017 66.6327 152.232C64.358 141.053 63.103 129.481 62.8677 117.675H109.812V156.821ZM109.812 109.83H62.8677C63.103 98.023 64.358 86.4516 66.6327 75.3118C79.967 72.5268 94.8309 71.0362 109.812 70.8009V109.83ZM109.812 62.9559C95.5369 63.1521 81.4573 64.4857 68.4759 66.9569C76.7903 34.4002 93.0269 11.3752 109.812 8.23722V62.9559ZM219.115 117.675C218.017 122.146 215.115 126.618 210.526 130.776L192.329 125.677C191.623 125.48 190.917 125.48 190.211 125.677L171.739 130.854C172.092 126.5 172.327 122.107 172.406 117.675H219.115ZM172.445 109.83C172.249 98.729 171.151 87.7853 169.19 77.1946C197.231 84.4119 215.938 96.7285 219.076 109.83H172.445ZM217.507 92.6099C207.428 82.4899 190.054 74.0173 167.464 68.6828C161.424 42.7943 150.757 22.2797 137.972 10.6692C177.935 20.0831 209.271 52.1691 217.507 92.6099ZM117.656 8.23722C134.442 11.3752 150.678 34.4002 158.993 66.9569C146.051 64.4857 131.932 63.1521 117.656 62.9559V8.23722ZM117.656 70.8009C132.677 71.0362 147.502 72.5268 160.836 75.3118C163.111 86.4909 164.366 98.0622 164.601 109.83H117.656V70.8009ZM117.656 117.675H164.601C164.483 122.892 164.209 128.03 163.699 133.129L134.481 141.327C132.795 141.798 131.618 143.328 131.618 145.093V156.233C126.99 156.546 122.323 156.782 117.656 156.821V117.675ZM117.656 219.228V164.666C122.323 164.588 126.99 164.391 131.618 164.078V167.804C131.618 181.101 134.128 193.026 139.227 203.852C132.442 212.481 124.951 217.816 117.656 219.228ZM137.972 216.757C139.776 215.109 141.54 213.305 143.266 211.304C143.972 212.442 144.717 213.579 145.462 214.678C142.992 215.462 140.521 216.168 137.972 216.757ZM194.133 241.194C193.231 241.704 192.29 242.214 191.309 242.724C190.368 242.214 189.427 241.743 188.485 241.194C173.778 233.035 162.601 224.17 154.679 214.129C154.679 214.129 154.679 214.089 154.64 214.089C144.286 200.988 139.423 185.887 139.423 167.804V148.035L168.405 139.915C168.445 139.915 168.445 139.915 168.484 139.876L191.27 133.482L243.156 148.113V167.804C243.156 199.772 228.018 222.405 194.133 241.194Z" fill="black"/>
<path d="M223.392 158.038L180.839 200.597L162.681 182.436C161.151 180.906 158.681 180.906 157.151 182.436C155.622 183.966 155.622 186.437 157.151 187.967L174.799 205.618C174.839 205.657 174.917 205.735 174.956 205.775L178.055 208.873C178.839 209.658 179.819 210.011 180.839 210.011C181.859 210.011 182.839 209.619 183.624 208.873L228.961 163.569C230.49 162.039 230.49 159.568 228.961 158.038C227.431 156.508 224.921 156.508 223.392 158.038Z" fill="black"/>
</g>
</svg>
