<svg width="283" height="321" viewBox="0 0 283 321" fill="none" xmlns="http://www.w3.org/2000/svg">
<path d="M141.501 50.7797C160.855 50.7797 179.349 55.0806 196.552 63.2523L215.046 71.8541V15.5122C215.046 -24.9164 181.929 -58.0334 141.501 -58.0334C101.072 -58.0334 67.9551 -24.9164 67.9551 15.5122V71.8541L86.449 63.2523C103.653 54.6505 122.147 50.7797 141.501 50.7797ZM141.501 -45.1307C175.048 -45.1307 202.144 -18.035 202.144 15.5122V51.2097C183.65 42.6079 163.005 37.4468 141.501 37.4468C119.566 37.4468 98.9216 42.1778 80.8578 51.2097V15.5122C80.8578 -18.035 107.954 -45.1307 141.501 -45.1307Z" fill="black" fill-opacity="0.08"/>
<path d="M141.505 64.9734C78.7115 64.9734 27.1006 116.154 27.1006 179.378C27.1006 242.171 78.2815 293.782 141.505 293.782C204.728 293.782 255.909 242.601 255.909 179.378C255.909 116.154 204.298 64.9734 141.505 64.9734ZM141.505 280.449C85.593 280.449 40.0033 235.29 40.0033 178.948C40.0033 123.036 85.1629 77.446 141.505 77.446C197.847 77.446 243.006 122.606 243.006 178.948C243.006 234.859 197.417 280.449 141.505 280.449Z" fill="black" fill-opacity="0.08"/>
<path d="M246.012 83.8967V15.5122C246.012 12.9316 246.012 10.3511 245.582 7.77055C241.711 -46.421 196.552 -89 141.5 -89C86.4484 -89 41.2888 -46.421 37.4179 7.77055H36.9879V83.8967C14.193 108.842 0 142.389 0 178.947C0 256.793 63.2234 320.447 141.5 320.447C219.777 320.447 283 257.224 283 178.947C283 142.389 268.807 108.842 246.012 83.8967ZM141.5 307.544C70.535 307.544 12.9027 249.912 12.9027 178.947C12.9027 146.69 24.9453 116.154 46.4499 92.4986L49.8906 88.6277V12.0715L50.3207 8.63074C53.7614 -38.6793 93.7599 -76.0973 141.5 -76.0973C189.24 -76.0973 229.239 -39.1094 232.679 8.63074C232.679 10.7812 233.11 13.3617 233.11 15.5122V89.0578L236.55 92.9286C258.055 116.584 270.097 147.55 270.097 179.377C270.097 249.912 212.465 307.544 141.5 307.544Z" fill="black" fill-opacity="0.08"/>
</svg>
