<svg width="123" height="123" viewBox="0 0 123 123" fill="none" xmlns="http://www.w3.org/2000/svg">
<rect width="123" height="123" rx="20" fill="white"/>
<path d="M79.5005 51.9696C79.5146 51.7001 79.4019 51.4449 79.1905 51.2321C78.9933 51.0194 78.7256 50.9202 78.4579 50.9202C78.1902 50.9202 77.9225 51.0194 77.7252 51.2321L69.624 59.372L69.3845 59.216C68.1305 58.3651 66.933 57.9964 65.4959 57.9964C63.6784 57.9964 61.9172 58.7622 60.5365 60.1661C59.1417 61.5558 58.3809 63.3284 58.3809 65.1577C58.3809 66.9871 59.1417 68.7597 60.5365 70.1494C61.9172 71.5533 63.6784 72.3191 65.4959 72.3191C67.3134 72.3191 69.0745 71.5533 70.4553 70.1494C71.8501 68.7597 72.6109 66.9871 72.6109 65.1577C72.6109 63.5411 72.1459 62.123 71.2865 61.1304L71.0752 60.8893L79.0496 52.8488C79.3314 52.5793 79.4864 52.2673 79.5005 51.9696ZM69.1309 68.6746C68.2151 69.5822 66.9189 70.0501 65.6227 70.0501C64.3124 70.0501 63.0021 69.5964 62.0159 68.6746C61.086 67.7387 60.4942 66.3631 60.4942 65.1577C60.4942 63.6971 61.0155 62.5059 62.0299 61.6267C63.8334 59.8116 67.1584 59.8116 69.1168 61.6409C70.0467 62.5626 70.6384 63.9524 70.6384 65.1577C70.4693 66.6609 69.9621 67.8237 69.1309 68.6746Z" fill="#EE0033"/>
<path d="M26.5967 63.8815C26.5967 64.633 27.0616 65.1294 27.7943 65.1294H51.4499C52.1685 65.1294 52.6334 64.6472 52.6334 63.8815C52.6334 63.1157 52.1685 62.6335 51.4499 62.6335H27.7943C27.0616 62.6477 26.5967 63.1299 26.5967 63.8815Z" fill="#EE0033"/>
<path d="M22.0462 53.2175H45.7019C46.4204 53.2175 46.8854 52.7354 46.8854 51.9696C46.8854 51.2038 46.4204 50.7217 45.7019 50.7217H22.0462C21.3136 50.7359 20.8486 51.218 20.8486 51.9696C20.8486 52.7212 21.3136 53.2175 22.0462 53.2175Z" fill="#EE0033"/>
<path d="M46.8854 75.7936C46.8854 75.042 46.4204 74.5457 45.7019 74.5457H22.0462C21.3136 74.5598 20.8486 75.042 20.8486 75.7936C20.8486 76.5452 21.3136 77.0415 22.0462 77.0415H45.7019C46.4204 77.0415 46.8854 76.5452 46.8854 75.7936Z" fill="#EE0033"/>
<path d="M93.2536 41.9152C93.0705 41.6883 92.8732 41.4756 92.69 41.2487L92.4223 40.9509C92.0279 40.5255 91.6615 40.1284 91.2952 39.7739L91.1684 39.6321L91.1825 39.6179L91.0557 39.4903C86.0963 34.4419 79.7985 31.0385 72.8525 29.663C72.3735 29.5637 71.8804 29.4786 71.4154 29.4077C70.9082 29.3226 70.4292 29.2659 69.8515 29.2092C69.5134 29.1666 69.1189 29.1241 68.7385 29.1099C68.3158 29.0815 67.8791 29.0532 67.4564 29.039L67.1042 29.0106C66.3856 28.9965 65.6389 28.9965 64.8922 29.0106L64.6527 29.039C61.1445 29.195 57.6926 29.8473 54.4239 30.9818C54.0858 31.081 53.7758 31.2087 53.4377 31.3363L53.0291 31.5065C52.5078 31.7192 51.9865 31.9461 51.4793 32.173C50.5494 32.57 49.5773 33.0805 48.4924 33.7187C47.6048 34.2292 46.9003 34.6688 46.2804 35.1226C45.59 35.5764 44.9279 36.0727 44.3502 36.5549L44.2375 36.6258C43.8148 36.9661 43.3921 37.3348 42.9836 37.6751C42.8849 37.7602 42.7863 37.8453 42.7018 37.9304C42.5468 38.058 42.4059 38.1856 42.265 38.3133L42.2227 38.3558C41.9128 38.6394 41.6169 38.9231 41.3351 39.2209C41.2083 39.3485 41.0956 39.4761 40.9688 39.5896C40.8561 39.7172 40.7293 39.8306 40.6025 39.9583L40.3911 40.1852C40.1516 40.4262 40.0107 40.7382 40.0107 41.0644C40.0107 41.3905 40.1516 41.7025 40.3911 41.9294C40.6307 42.1705 40.9265 42.2981 41.2506 42.2981C41.2506 42.2981 41.2506 42.2981 41.2647 42.2981C41.5887 42.2981 41.8846 42.1705 42.11 41.9294C48.4924 35.2219 56.9882 31.5348 66.0475 31.5348C74.3742 31.5348 82.3768 34.7255 88.576 40.5255C91.8165 43.5744 94.3666 47.1763 96.1419 51.2179C97.9876 55.4154 98.9174 59.8824 98.9174 64.477C98.9174 82.7135 84.1802 97.5467 66.0475 97.5467C57.2699 97.5467 49.0278 94.1008 42.8145 87.8612C42.3355 87.3649 41.5605 87.3649 41.0956 87.8612C40.6448 88.2866 40.5884 88.9531 40.9688 89.4494L41.0252 89.5204H41.152L41.1661 89.6338L41.2083 89.6763C41.8423 90.3145 42.5186 90.9384 43.3499 91.6617L43.533 91.8035C44.3925 92.5125 45.0687 93.0514 45.7168 93.491C45.8155 93.5903 45.8859 93.647 45.9423 93.6612C46.8299 94.2851 47.5766 94.7673 48.2952 95.1785C49.1969 95.7174 50.1127 96.1995 51.0285 96.625C51.5638 96.8944 52.1274 97.1355 52.5642 97.3198C53.2264 97.6034 53.9449 97.8729 54.6775 98.114L54.7903 98.1565C55.1284 98.2699 55.4806 98.3834 55.8188 98.4827C56.3401 98.6528 56.8614 98.7946 57.4531 98.9364C60.2287 99.6455 63.1169 100 66.0334 100C69.5979 100 73.1766 99.4753 76.558 98.4117L76.6002 98.3976C76.8116 98.3267 77.0229 98.2558 77.2343 98.1849L77.7415 98.0147C78.5164 97.7452 79.2913 97.4333 80.0803 97.0929L80.193 97.0362C80.5452 96.8802 80.8693 96.7384 81.1933 96.5682C81.2778 96.5541 81.3342 96.5115 81.3624 96.4973C82.3486 96.0152 83.3489 95.4763 84.3352 94.8807C86.209 93.7462 88.0406 92.3707 89.7736 90.7824L90.154 90.4279C90.4076 90.1868 90.6471 89.9458 90.8866 89.7189L91.0134 89.6054C91.8024 88.8113 92.5351 88.003 93.2959 87.0954C98.5229 80.7424 101.411 72.7019 101.411 64.4486C101.383 56.167 98.4948 48.169 93.2536 41.9152Z" fill="#EE0033"/>
<path d="M49.1543 87.2518C48.9853 87.5496 48.9148 87.8899 48.9712 88.2161C49.0416 88.5423 49.2389 88.8117 49.5206 88.9677C54.4659 92.3995 60.2284 94.2004 66.2022 94.2004C82.4188 94.2004 95.6203 80.9272 95.6203 64.5908C95.6203 48.2545 82.4188 34.9954 66.2022 34.9954C60.017 34.9954 54.0573 36.9381 48.9853 40.6252C48.7598 40.7812 48.6048 41.0789 48.5344 41.4618C48.5062 41.8164 48.5767 42.1283 48.7316 42.3694C49.098 42.8657 49.8447 42.9792 50.4928 42.6105C54.9168 39.2638 60.3552 37.4912 66.2163 37.4912C81.0803 37.4912 93.1688 49.6584 93.1688 64.6192C93.1688 79.58 81.0803 91.7471 66.2163 91.7471C60.6088 91.7471 55.3535 90.1163 51.0141 87.0107C50.2955 86.642 49.5488 86.7413 49.1543 87.2518Z" fill="#EE0033"/>
</svg>
