<svg width="155" height="154" viewBox="0 0 155 154" fill="none" xmlns="http://www.w3.org/2000/svg">
<g filter="url(#filter0_d)">
<ellipse cx="77.436" cy="77" rx="61.436" ry="61" fill="white"/>
</g>
<path d="M103.378 84.8942L102.669 85.3505L102.999 86.1268L109.253 100.826C109.706 101.941 109.201 103.272 108.011 103.789L107.951 103.815L107.895 103.848C107.742 103.94 107.504 104 107.158 104C106.275 104 105.412 103.476 105.065 102.634L105.065 102.634L105.06 102.623L98.8036 87.9173L98.4851 87.1688L97.6875 87.3282C96.2443 87.6165 94.8449 87.8235 93.3933 87.8235C83.2691 87.8235 74.9609 79.5913 74.9609 69.4118C74.9609 59.2371 83.3377 51 93.4669 51C103.591 51 111.899 59.2322 111.899 69.4118C111.899 75.89 108.483 81.6114 103.378 84.8942ZM93.3933 55.5441C85.7794 55.5441 79.512 61.7224 79.512 69.4118C79.512 77.1011 85.7794 83.2794 93.3933 83.2794C101.011 83.2794 107.275 77.0239 107.275 69.4118C107.275 61.8034 101.088 55.5441 93.3933 55.5441Z" fill="#EE0033" stroke="white" stroke-width="2"/>
<path d="M68.2927 55.5443H46.2104C44.9951 55.5443 43.9717 54.5204 43.9717 53.309C43.9717 52.0827 44.9363 51.0737 46.2104 51.0737H68.2927C69.508 51.0737 70.5314 52.0976 70.5314 53.309C70.5314 54.5353 69.5668 55.5443 68.2927 55.5443Z" fill="#EE0033" stroke="white" stroke-width="2"/>
<path d="M63.2874 71.6473H46.2104C44.9802 71.6473 43.9717 70.6822 43.9717 69.4121C43.9717 68.1857 44.9363 67.1768 46.2104 67.1768H63.2874C64.5176 67.1768 65.5261 68.1419 65.5261 69.4121C65.5261 70.6384 64.5615 71.6473 63.2874 71.6473Z" fill="#EE0033" stroke="white" stroke-width="2"/>
<path d="M68.2927 87.8236H46.2104C44.9951 87.8236 43.9717 86.7997 43.9717 85.5883C43.9717 84.362 44.9363 83.353 46.2104 83.353H68.2927C69.5229 83.353 70.5314 84.3182 70.5314 85.5883C70.5314 86.8146 69.5668 87.8236 68.2927 87.8236Z" fill="#EE0033" stroke="white" stroke-width="2"/>
<path d="M94.2339 101.649L94.233 101.67V101.691C94.233 102.917 93.2684 103.926 91.9943 103.926H46.2104C44.9802 103.926 43.9717 102.961 43.9717 101.691C43.9717 100.465 44.9363 99.4556 46.2104 99.4556H91.9943C93.3074 99.4556 94.2821 100.493 94.2339 101.649Z" fill="#EE0033" stroke="white" stroke-width="2"/>
<defs>
<filter id="filter0_d" x="0" y="0" width="154.872" height="154" filterUnits="userSpaceOnUse" color-interpolation-filters="sRGB">
<feFlood flood-opacity="0" result="BackgroundImageFix"/>
<feColorMatrix in="SourceAlpha" type="matrix" values="0 0 0 0 0 0 0 0 0 0 0 0 0 0 0 0 0 0 127 0"/>
<feMorphology radius="7" operator="erode" in="SourceAlpha" result="effect1_dropShadow"/>
<feOffset/>
<feGaussianBlur stdDeviation="11.5"/>
<feColorMatrix type="matrix" values="0 0 0 0 0 0 0 0 0 0 0 0 0 0 0 0 0 0 0.25 0"/>
<feBlend mode="normal" in2="BackgroundImageFix" result="effect1_dropShadow"/>
<feBlend mode="normal" in="SourceGraphic" in2="effect1_dropShadow" result="shape"/>
</filter>
</defs>
</svg>
