<svg width="155" height="154" viewBox="0 0 155 154" fill="none" xmlns="http://www.w3.org/2000/svg">
<g filter="url(#filter0_d)">
<ellipse cx="77.1133" cy="77" rx="60.9365" ry="61" fill="white"/>
</g>
<path d="M51.6471 49C46.411 49 42.1494 53.3041 42.1494 58.6724V81.5335C42.1494 86.8788 46.411 91.2059 51.6471 91.2059H52.3951V96.7595C52.3951 97.4764 52.6216 98.148 53.1883 98.4715C53.7323 98.7958 54.4352 98.6798 55.0236 98.3102L66.4026 91.2059H75.7415V92.3171C75.7415 96.5051 79.0503 99.8609 83.1531 99.8609H93.2852L101.967 105.298C102.443 105.599 103.032 105.692 103.531 105.391C104.007 105.112 104.211 104.557 104.211 103.979V99.8601H104.642C108.744 99.8601 112.077 96.5043 112.077 92.3163V74.8235C112.077 70.6586 108.744 67.2797 104.642 67.2797H100.879V58.6724C100.879 53.3041 96.6399 49 91.3813 49H51.6471ZM51.6471 50.2964H91.3821C95.9379 50.2964 99.6102 54.0218 99.6102 58.6732V67.2813H83.1539C79.0511 67.2813 75.7423 70.6594 75.7423 74.8252V89.8881H66.2446C66.1092 89.8881 65.9956 89.935 65.9045 90.0042L54.3667 97.199C54.0265 97.4072 53.8686 97.3611 53.8226 97.3151C53.7767 97.292 53.6638 97.1759 53.6638 96.7595V90.5343C53.6638 90.2099 53.3696 89.8865 53.0295 89.8865H51.6471C47.0913 89.8865 43.4189 86.1841 43.4189 81.5335V58.6724C43.4189 54.0218 47.0913 50.2964 51.6471 50.2964ZM69.2818 56.2656C65.7691 56.2426 62.2321 58.6024 61.6421 62.8604C61.5526 63.2308 61.8243 63.6242 62.1636 63.6703C62.503 63.7395 62.8665 63.439 62.8882 63.0686C63.409 59.4354 66.3107 57.5612 69.281 57.5612C71.5476 57.5842 73.2702 58.2789 74.3809 59.4124C75.4691 60.5697 75.968 62.1196 75.7415 63.9938C75.4231 66.3776 73.7691 67.9966 72.0466 69.6865C70.3007 71.3985 68.4653 73.2267 68.5104 76.0038C68.5322 76.3282 68.828 76.6516 69.1674 76.6286C69.5075 76.6286 69.8017 76.3043 69.8017 75.9808C69.7566 73.8053 71.2067 72.3245 72.93 70.6355C74.6533 68.9465 76.6475 67.0953 77.0102 64.1798C77.2827 61.9583 76.6701 59.9449 75.2877 58.5341C73.9287 57.0994 71.8209 56.2656 69.2818 56.2656ZM83.1539 68.5761H104.642C108.065 68.5761 110.808 71.3533 110.808 74.8235V92.3163C110.808 95.7874 108.065 98.5637 104.642 98.5637H103.578C103.237 98.5637 102.942 98.865 102.942 99.2115V103.979C102.942 104.256 102.875 104.279 102.897 104.279C102.919 104.256 102.875 104.326 102.647 104.187L93.7849 98.6567C93.6938 98.6098 93.5802 98.5637 93.4665 98.5637H83.1539C79.7314 98.5637 77.011 95.7874 77.011 92.3163V74.8235C77.011 71.3533 79.7314 68.5761 83.1539 68.5761ZM93.1957 74.6391C93.1731 74.6622 93.1497 74.6622 93.1272 74.6622C92.833 74.7313 92.629 75.0326 92.629 75.31V87.5966C92.629 87.9217 92.9232 88.2452 93.2634 88.2452C93.6035 88.2452 93.9203 87.9209 93.8986 87.5966V75.31C93.9211 74.9396 93.5584 74.6153 93.1957 74.6391ZM68.9868 79.6601C68.1937 79.6601 67.5367 80.3301 67.5367 81.1409C67.5367 81.9517 68.1929 82.5986 68.9868 82.5986C69.7582 82.5986 70.3926 81.9508 70.3926 81.1409C70.3926 80.331 69.7582 79.6601 68.9868 79.6601ZM93.2634 90.2807C92.4702 90.2807 91.8359 90.9516 91.8359 91.7385C91.8359 92.5484 92.4702 93.2201 93.2634 93.2201C94.0565 93.2201 94.6909 92.5492 94.6909 91.7385C94.6917 90.9524 94.0574 90.2807 93.2634 90.2807Z" fill="#EE0033" stroke="#EE0033"/>
<defs>
<filter id="filter0_d" x="0.176758" y="0" width="153.873" height="154" filterUnits="userSpaceOnUse" color-interpolation-filters="sRGB">
<feFlood flood-opacity="0" result="BackgroundImageFix"/>
<feColorMatrix in="SourceAlpha" type="matrix" values="0 0 0 0 0 0 0 0 0 0 0 0 0 0 0 0 0 0 127 0"/>
<feMorphology radius="7" operator="erode" in="SourceAlpha" result="effect1_dropShadow"/>
<feOffset/>
<feGaussianBlur stdDeviation="11.5"/>
<feColorMatrix type="matrix" values="0 0 0 0 0 0 0 0 0 0 0 0 0 0 0 0 0 0 0.25 0"/>
<feBlend mode="normal" in2="BackgroundImageFix" result="effect1_dropShadow"/>
<feBlend mode="normal" in="SourceGraphic" in2="effect1_dropShadow" result="shape"/>
</filter>
</defs>
</svg>
