<svg width="155" height="154" viewBox="0 0 155 154" fill="none" xmlns="http://www.w3.org/2000/svg">
<g filter="url(#filter0_d)">
<ellipse cx="77.436" cy="77" rx="61.436" ry="61" fill="white"/>
</g>
<path d="M60.7664 86.2405H88.8655C89.4524 86.2405 89.8926 85.7998 89.8926 85.2123C89.8926 84.6247 89.4524 84.1841 88.8655 84.1841H60.7664C60.1795 84.1841 59.7393 84.6247 59.7393 85.2123C59.7393 85.7998 60.2528 86.2405 60.7664 86.2405Z" fill="#EE0033"/>
<path d="M60.7664 68.9817H97.7428C98.3297 68.9817 98.7699 68.541 98.7699 67.9535C98.7699 67.3659 98.3297 66.9253 97.7428 66.9253H60.7664C60.1795 66.9253 59.7393 67.3659 59.7393 67.9535C59.7393 68.4676 60.2528 68.9817 60.7664 68.9817Z" fill="#EE0033"/>
<path d="M60.7664 77.5745H91.58C92.167 77.5745 92.6072 77.1338 92.6072 76.5463C92.6072 75.9587 92.167 75.5181 91.58 75.5181H60.7664C60.1795 75.5181 59.7393 75.9587 59.7393 76.5463C59.7393 77.1338 60.2528 77.5745 60.7664 77.5745Z" fill="#EE0033"/>
<path d="M82.0425 94.8332C82.6294 94.8332 83.0696 94.3926 83.0696 93.805C83.0696 93.2175 82.6294 92.7769 82.0425 92.7769H60.7664C60.1795 92.7769 59.7393 93.2175 59.7393 93.805C59.7393 94.3926 60.1795 94.8332 60.7664 94.8332H82.0425Z" fill="#EE0033"/>
<path d="M119.385 83.0824V82.8621C119.312 82.1277 119.165 81.0995 118.431 80.4385C117.771 79.7041 116.451 79.7041 115.79 80.4385L111.535 84.6982C110.948 85.2857 110.875 85.3591 110.361 85.3591H106.106C106.106 85.2857 106.033 85.2123 106.033 85.1388C105.886 84.4778 105.739 83.8169 105.666 83.0824V82.4949C105.739 82.2746 105.959 82.0542 106.399 81.5401L112.122 75.8116C112.489 75.4444 112.635 75.0038 112.635 74.4897C112.635 73.9021 112.342 73.2412 111.902 72.874C111.315 72.3599 110.655 72.213 110.068 72.1395C109.921 72.1395 109.848 72.0661 109.701 72.0661C108.307 71.7723 106.986 71.6989 105.666 71.8458V60.1684V55.0275L90.4056 41H55.2634C53.4292 41 51.9619 42.4688 51.9619 44.3049V60.095V86.3139V102.765C51.9619 104.601 53.4292 106.07 55.2634 106.07H78.3003C78.3003 106.217 78.2269 106.29 78.2269 106.437C78.2269 107.025 78.447 107.612 78.8872 108.053L83.069 112.239C83.5092 112.68 84.0962 112.9 84.6831 112.9C85.27 112.9 85.8569 112.68 86.2971 112.239L92.4599 106.07H102.291C104.125 106.07 105.592 104.601 105.592 102.765V95.6411C106.179 95.7145 106.84 95.7879 107.427 95.7879C110.655 95.7879 113.663 94.5394 115.937 92.2627C118.578 89.6188 119.825 86.2404 119.385 83.0824ZM107.427 93.805C106.106 93.805 104.785 93.5112 103.538 93.0706L102.878 92.7768L84.8298 110.844C84.6831 110.917 84.6097 110.991 84.5364 110.844L80.3545 106.657C80.2811 106.657 80.2811 106.584 80.2811 106.511C80.2811 106.437 80.2811 106.437 80.3545 106.364L98.4759 88.2234L98.1824 87.5624C96.6417 83.8169 97.4488 79.4838 100.31 76.6195C102.218 74.71 104.492 73.6818 106.913 73.6818C107.647 73.6818 108.38 73.7553 109.114 73.9756C109.261 73.9756 109.407 74.049 109.481 74.049C109.848 74.1225 110.214 74.1959 110.361 74.3428V74.4162L104.785 80.0713C104.125 80.7323 103.318 81.5401 103.465 82.9355C103.538 83.8903 103.685 84.6982 103.905 85.5795C104.198 86.6811 104.932 87.3421 105.886 87.3421H110.288C111.682 87.3421 112.269 86.7545 112.929 86.0936L117.037 81.9808C117.184 82.2746 117.258 82.7887 117.331 83.1559V83.3762C117.698 85.9467 116.671 88.664 114.47 90.8673C112.635 92.7768 110.068 93.805 107.427 93.805ZM91.4328 44.7456L102.364 54.8071H92.7533C92.0197 54.8071 91.5061 54.2196 91.5061 53.5586V44.7456H91.4328ZM53.9428 102.838V86.3139V60.1684V44.3783C53.9428 43.6439 54.5297 43.1298 55.19 43.1298H89.3051V43.2033V53.5586C89.3051 55.3947 90.7725 56.8635 92.6066 56.8635H103.391V60.1684V72.2864C101.704 72.874 100.163 73.8287 98.7693 75.2241C95.4679 78.529 94.3674 83.3762 95.9081 87.7827L79.6942 104.087H55.2634C54.5297 104.087 53.9428 103.499 53.9428 102.838ZM103.538 102.838C103.538 103.573 102.951 104.087 102.291 104.087H94.5141L103.465 95.127C103.538 95.127 103.538 95.127 103.611 95.127V102.838H103.538Z" fill="#EE0033"/>
<defs>
<filter id="filter0_d" x="0" y="0" width="154.872" height="154" filterUnits="userSpaceOnUse" color-interpolation-filters="sRGB">
<feFlood flood-opacity="0" result="BackgroundImageFix"/>
<feColorMatrix in="SourceAlpha" type="matrix" values="0 0 0 0 0 0 0 0 0 0 0 0 0 0 0 0 0 0 127 0"/>
<feMorphology radius="7" operator="erode" in="SourceAlpha" result="effect1_dropShadow"/>
<feOffset/>
<feGaussianBlur stdDeviation="11.5"/>
<feColorMatrix type="matrix" values="0 0 0 0 0 0 0 0 0 0 0 0 0 0 0 0 0 0 0.25 0"/>
<feBlend mode="normal" in2="BackgroundImageFix" result="effect1_dropShadow"/>
<feBlend mode="normal" in="SourceGraphic" in2="effect1_dropShadow" result="shape"/>
</filter>
</defs>
</svg>
