<svg width="55" height="80" viewBox="0 0 55 80" fill="none" xmlns="http://www.w3.org/2000/svg">
<path d="M27.4781 27.1439C31.2365 27.1439 34.8279 27.9791 38.1686 29.5659L41.76 31.2363V20.2953C41.76 12.4444 35.329 6.01343 27.4781 6.01343C19.6273 6.01343 13.1963 12.4444 13.1963 20.2953V31.2363L16.7876 29.5659C20.1284 27.8956 23.7198 27.1439 27.4781 27.1439ZM27.4781 8.51901C33.9927 8.51901 39.2544 13.7807 39.2544 20.2953V27.2274C35.6631 25.557 31.6541 24.5548 27.4781 24.5548C23.2186 24.5548 19.2097 25.4735 15.7019 27.2274V20.2953C15.7019 13.7807 20.9636 8.51901 27.4781 8.51901Z" fill="#EE0033"/>
<path d="M27.4789 29.9001C15.285 29.9001 5.2627 39.839 5.2627 52.1164C5.2627 64.3102 15.2015 74.3326 27.4789 74.3326C39.7563 74.3326 49.6951 64.3937 49.6951 52.1164C49.6951 39.839 39.6728 29.9001 27.4789 29.9001ZM27.4789 71.7434C16.6214 71.7434 7.76828 62.9739 7.76828 52.0328C7.76828 41.1753 16.5378 32.3222 27.4789 32.3222C38.42 32.3222 47.1895 41.0918 47.1895 52.0328C47.1895 62.8904 38.3364 71.7434 27.4789 71.7434Z" fill="#EE0033"/>
<path d="M47.7732 33.5749V20.2953C47.7732 19.7941 47.7732 19.293 47.6897 18.7919C46.938 8.26844 38.1684 0 27.4779 0C16.7874 0 8.01788 8.26844 7.2662 18.7919H7.18268V33.5749C2.75615 38.419 0 44.9335 0 52.0327C0 67.1497 12.2774 79.5106 27.4779 79.5106C42.6785 79.5106 54.9559 67.2333 54.9559 52.0327C54.9559 44.9335 52.1997 38.419 47.7732 33.5749ZM27.4779 77.005C13.6972 77.005 2.50559 65.8134 2.50559 52.0327C2.50559 45.7687 4.84414 39.8388 9.02011 35.2453L9.68827 34.4936V19.6271L9.77179 18.9589C10.4399 9.77179 18.2073 2.50559 27.4779 2.50559C36.7486 2.50559 44.5159 9.68827 45.1841 18.9589C45.1841 19.3765 45.2676 19.8777 45.2676 20.2953V34.5771L45.9358 35.3288C50.1117 39.9224 52.4503 45.9358 52.4503 52.1162C52.4503 65.8134 41.2587 77.005 27.4779 77.005Z" fill="#EE0033"/>
<path d="M11.1995 48.5165L13.3125 49.1931C14.0308 49.4269 14.8075 49.026 15.033 48.2994L15.0497 48.2576C15.2752 47.531 14.866 46.7626 14.1394 46.5455L12.018 45.9107C11.2913 45.6936 10.5313 46.1112 10.3225 46.8378C10.1054 47.5477 10.4979 48.2827 11.1995 48.5165Z" fill="#EE0033"/>
<path d="M43.7396 55.5992L41.6182 54.9644C40.8916 54.7473 40.1315 55.1649 39.9144 55.8915C39.881 56.0168 39.8643 56.1421 39.8643 56.2674C39.8643 56.8436 40.2317 57.3865 40.808 57.5703L42.9211 58.2468C43.6393 58.4806 44.4077 58.0797 44.6332 57.3531L44.6499 57.3114C44.8754 56.5847 44.4662 55.8163 43.7396 55.5992Z" fill="#EE0033"/>
<path d="M18.0815 41.0586C18.5158 41.6766 19.376 41.827 19.9941 41.3843C20.6205 40.95 20.7708 40.0814 20.3282 39.4633L19.0837 37.7094C18.6494 37.083 17.7892 36.9327 17.1628 37.3754C16.7869 37.6426 16.5781 38.0686 16.5781 38.5112C16.5781 38.7785 16.6616 39.0541 16.8287 39.2963L18.0815 41.0586Z" fill="#EE0033"/>
<path d="M27.4445 39.0455C28.2045 39.0538 28.8392 38.4441 28.8476 37.6758L28.8726 35.5293C28.881 34.7693 28.2713 34.1429 27.5029 34.1345C27.4946 34.1345 27.4946 34.1345 27.4862 34.1345C26.7345 34.1345 26.1165 34.7359 26.1081 35.4959L26.0831 37.6507C26.0747 38.4107 26.6844 39.0371 27.4445 39.0455Z" fill="#EE0033"/>
<path d="M27.5029 65.02C27.4946 65.02 27.4946 65.02 27.4862 65.02C26.7345 65.02 26.1165 65.6297 26.1081 66.3814L26.0831 68.5445C26.0747 69.3046 26.6844 69.9226 27.4445 69.931C28.2045 69.9477 28.8392 69.3296 28.8476 68.5696L28.8726 66.4148C28.881 65.6548 28.2713 65.0284 27.5029 65.02Z" fill="#EE0033"/>
<path d="M34.9535 41.4256C35.5715 41.8599 36.4318 41.7179 36.8661 41.0999L38.1189 39.3376C38.5532 38.7112 38.4112 37.8509 37.7848 37.4166C37.1584 36.9823 36.3065 37.1243 35.8639 37.7507L34.6194 39.5046C34.1851 40.1227 34.3354 40.9913 34.9535 41.4256Z" fill="#EE0033"/>
<path d="M19.9949 62.7481C19.7526 62.5811 19.477 62.4976 19.2098 62.4976C18.7755 62.4976 18.3495 62.7064 18.0739 63.0822L16.8295 64.8361C16.3868 65.4625 16.5371 66.3228 17.1635 66.7654C17.4057 66.9324 17.6814 67.016 17.957 67.016C18.3913 67.016 18.8172 66.8155 19.0845 66.4397L20.3289 64.6774C20.7716 64.051 20.6213 63.1908 19.9949 62.7481Z" fill="#EE0033"/>
<path d="M36.8747 63.0824C36.4321 62.4644 35.5802 62.314 34.9538 62.7483C34.5696 63.0156 34.3691 63.4499 34.3691 63.8842C34.3691 64.1598 34.4443 64.4354 34.6197 64.6776L35.8725 66.4399C36.3068 67.0579 37.167 67.1999 37.7851 66.7656C38.4115 66.323 38.5618 65.4627 38.1192 64.8363L36.8747 63.0824Z" fill="#EE0033"/>
<path d="M13.3548 54.9892L11.3085 55.6407C10.5819 55.8745 10.181 56.6429 10.4065 57.3695C10.632 58.0962 11.4087 58.5054 12.1354 58.2715L14.1983 57.6201C14.9249 57.3862 15.3258 56.6179 15.092 55.8912C14.8665 55.1646 14.0897 54.7554 13.3548 54.9892Z" fill="#EE0033"/>
<path d="M41.6759 49.2015L43.7305 48.55C44.4571 48.3162 44.858 47.5478 44.6242 46.8212C44.3987 46.0945 43.622 45.6853 42.887 45.9192L40.8408 46.5706C40.1141 46.8045 39.7132 47.5728 39.9387 48.2995C40.1726 49.0177 40.9493 49.427 41.6759 49.2015Z" fill="#EE0033"/>
<path d="M27.5122 40.0059C20.864 40.0059 15.4854 45.3929 15.4854 52.0327C15.4854 58.6725 20.864 64.0595 27.5122 64.0595C34.152 64.0595 39.539 58.6725 39.539 52.0327C39.539 45.3929 34.152 40.0059 27.5122 40.0059ZM27.5122 61.4704C22.3005 61.4704 18.0745 57.2443 18.0745 52.0327C18.0745 46.8211 22.3005 42.595 27.5122 42.595C32.7238 42.595 36.9499 46.8211 36.9499 52.0327C36.9499 57.2443 32.7238 61.4704 27.5122 61.4704Z" fill="#EE0033"/>
</svg>
