<svg width="232" height="266" viewBox="0 0 232 266" fill="none" xmlns="http://www.w3.org/2000/svg">
<g opacity="0.15">
<path d="M78.8303 139.24L48.6766 64.332C47.8151 62.1289 45.6613 60.807 43.5074 60.3663C41.3536 60.3663 39.1998 61.6882 37.9075 63.8914L3.01537 139.24C1.2923 140.121 0 142.324 0 144.527C0 167.44 18.0922 185.947 40.4921 186.387C40.4921 186.387 40.4921 186.387 40.9228 186.387H41.3536C41.3536 186.387 41.3536 186.387 41.7844 186.387C64.1842 185.947 82.2764 167.44 82.2764 144.527C81.8456 142.324 80.5533 140.121 78.8303 139.24ZM43.0767 81.5167L65.9073 138.358H16.7999L43.0767 81.5167ZM40.9228 174.05C27.1383 174.05 15.9384 163.915 12.923 150.696H68.9227C66.3381 163.915 54.7074 173.609 40.9228 174.05Z" fill="white"/>
<path d="M191.252 265.262H43.4995C40.0533 265.262 37.4688 262.618 37.4688 259.093C37.4688 255.568 40.0533 252.924 43.4995 252.924H191.252C194.699 252.924 197.283 255.568 197.283 259.093C197.283 262.618 194.699 265.262 191.252 265.262Z" fill="white"/>
<path d="M227.868 138.799L197.715 63.8916C196.853 61.6884 194.699 60.3665 192.546 59.9259C190.392 59.9259 188.238 61.2478 186.946 63.451L152.053 138.799C150.33 139.681 149.038 141.884 149.038 144.087C149.038 167 167.13 185.506 189.53 185.947C189.53 185.947 189.53 185.947 189.961 185.947H190.392C190.392 185.947 190.392 185.947 190.822 185.947C213.222 185.506 231.314 167 231.314 144.087C230.884 141.884 229.591 139.681 227.868 138.799ZM192.115 81.0763L214.945 137.918H165.838L192.115 81.0763ZM189.961 173.609C176.176 173.609 164.976 163.475 161.961 150.256H217.961C215.376 163.475 203.745 173.169 189.961 173.609Z" fill="white"/>
<path d="M191.252 34.81H136.114C134.391 28.6412 129.222 23.3536 123.191 21.591V6.16887C123.191 2.6438 120.607 0 117.591 0C114.145 0 111.561 2.6438 111.561 6.16887V21.591C105.53 23.7942 100.791 28.6412 99.0684 34.81H43.4995C40.0533 34.81 37.4688 37.4538 37.4688 40.9789C37.4688 44.504 40.0533 47.1478 43.4995 47.1478H99.0684C101.222 52.876 105.53 57.723 111.561 59.4855V230.892H73.6531C70.207 230.892 67.6224 233.536 67.6224 237.061C67.6224 240.586 70.207 243.23 73.6531 243.23H161.099C164.545 243.23 167.13 240.586 167.13 237.061C167.13 233.536 164.545 230.892 161.099 230.892H123.191V59.4855C129.222 57.723 133.96 52.876 135.684 46.7071H191.252C194.699 46.7071 197.283 44.0633 197.283 40.5383C197.283 37.0132 194.699 34.81 191.252 34.81ZM117.591 48.4697C113.284 48.4697 109.838 44.9446 109.838 40.5383C109.838 36.1319 113.284 32.6069 117.591 32.6069C121.899 32.6069 125.345 36.1319 125.345 40.5383C125.345 44.9446 121.899 48.4697 117.591 48.4697Z" fill="white"/>
</g>
</svg>
