<svg width="123" height="123" viewBox="0 0 123 123" fill="none" xmlns="http://www.w3.org/2000/svg">
<rect width="123" height="123" rx="20" fill="white"/>
<path d="M99.8375 81.5489C99.6814 81.3093 96.2455 76.0375 87.3436 78.1143C81.9556 79.3923 77.7389 80.7502 75.4744 81.6288C75.2402 79.4722 73.4442 77.7948 71.3358 77.635L38.7736 71.1651V69.2481C38.7736 68.5292 38.227 67.9701 37.5242 67.9701H24.2494C23.5466 67.9701 23 68.5292 23 69.2481V95.2875C23 96.0064 23.5466 96.5655 24.2494 96.5655H37.5242C38.227 96.5655 38.7736 96.0064 38.7736 95.2875V92.4919C43.7711 94.4888 57.9049 100 65.3231 100C74.3031 100 98.432 83.9452 99.5252 83.3062C99.9937 82.9068 100.15 82.1081 99.8375 81.5489ZM25.4988 93.9296V70.5261H36.1967V72.2035V90.5749V93.9296H25.4988ZM65.245 97.4442C57.9049 97.4442 42.3656 91.2139 38.6955 89.6962V73.801L70.9454 80.191C72.0386 80.191 72.8975 81.0697 72.8975 82.1879C72.8975 83.3062 72.0386 84.1848 70.9454 84.1848H52.9073C52.2045 84.1848 51.6579 84.7439 51.6579 85.4628C51.6579 86.1817 52.2045 86.7408 52.9073 86.7408H71.0235C72.5852 86.7408 73.9908 85.8622 74.7716 84.5842C76.1772 84.0251 81.0967 82.1081 87.8902 80.5904C92.7316 79.4722 95.4647 80.9099 96.7922 81.9483C91.6384 85.3031 72.429 97.4442 65.245 97.4442Z" fill="#EE0033"/>
<path d="M67.8231 48.2406L62.357 34.6618C62.2009 34.2624 61.8104 34.0227 61.42 33.9429C61.0295 33.9429 60.6391 34.1825 60.4049 34.5819L54.0798 48.2406C53.7675 48.4003 53.5332 48.7997 53.5332 49.1991C53.5332 53.3526 56.8129 56.7074 60.8734 56.7873C60.8734 56.7873 60.8734 56.7873 60.9515 56.7873H61.0295C61.0295 56.7873 61.0295 56.7873 61.1076 56.7873C65.1682 56.7074 68.4478 53.3526 68.4478 49.1991C68.3697 48.7997 68.1355 48.4003 67.8231 48.2406ZM61.3419 37.7769L65.4805 48.0808H56.5786L61.3419 37.7769ZM60.9515 54.5508C58.4527 54.5508 56.4224 52.7136 55.8758 50.3174H66.0271C65.5586 52.7136 63.4502 54.4709 60.9515 54.5508Z" fill="#EE0033"/>
<path d="M88.2022 71.0851H61.4184C60.7937 71.0851 60.3252 70.6059 60.3252 69.9669C60.3252 69.3279 60.7937 68.8486 61.4184 68.8486H88.2022C88.8269 68.8486 89.2954 69.3279 89.2954 69.9669C89.2954 70.6059 88.8269 71.0851 88.2022 71.0851Z" fill="#EE0033"/>
<path d="M94.8397 48.1608L89.3736 34.5819C89.2175 34.1825 88.827 33.9429 88.4366 33.863C88.0461 33.863 87.6557 34.1027 87.4215 34.502L81.0964 48.1608C80.7841 48.3205 80.5498 48.7199 80.5498 49.1193C80.5498 53.2728 83.8295 56.6276 87.89 56.7074C87.89 56.7074 87.89 56.7074 87.9681 56.7074H88.0461C88.0461 56.7074 88.0462 56.7074 88.1242 56.7074C92.1848 56.6276 95.4644 53.2728 95.4644 49.1193C95.3863 48.7199 95.1521 48.3205 94.8397 48.1608ZM88.3585 37.6971L92.4971 48.001H83.5952L88.3585 37.6971ZM87.9681 54.4709C85.4693 54.4709 83.439 52.6338 82.8924 50.2375H93.0437C92.5752 52.6338 90.4668 54.391 87.9681 54.4709Z" fill="#EE0033"/>
<path d="M88.2022 29.3102H78.2071C77.8948 28.1919 76.9577 27.2334 75.8645 26.9139V24.1183C75.8645 23.4793 75.396 23 74.8494 23C74.2247 23 73.7561 23.4793 73.7561 24.1183V26.9139C72.6629 27.3133 71.804 28.1919 71.4916 29.3102H61.4184C60.7937 29.3102 60.3252 29.7894 60.3252 30.4284C60.3252 31.0674 60.7937 31.5467 61.4184 31.5467H71.4916C71.8821 32.5851 72.6629 33.4637 73.7561 33.7832V64.8548H66.8845C66.2598 64.8548 65.7913 65.334 65.7913 65.973C65.7913 66.612 66.2598 67.0913 66.8845 67.0913H82.7361C83.3608 67.0913 83.8294 66.612 83.8294 65.973C83.8294 65.334 83.3608 64.8548 82.7361 64.8548H75.8645V33.7832C76.9577 33.4637 77.8167 32.5851 78.129 31.4668H88.2022C88.8269 31.4668 89.2954 30.9876 89.2954 30.3485C89.2954 29.7095 88.8269 29.3102 88.2022 29.3102ZM74.8494 31.7863C74.0685 31.7863 73.4438 31.1473 73.4438 30.3485C73.4438 29.5498 74.0685 28.9108 74.8494 28.9108C75.6302 28.9108 76.2549 29.5498 76.2549 30.3485C76.2549 31.1473 75.6302 31.7863 74.8494 31.7863Z" fill="#EE0033"/>
</svg>
