<svg width="123" height="123" viewBox="0 0 123 123" fill="none" xmlns="http://www.w3.org/2000/svg">
<rect width="123" height="123" rx="20" fill="white"/>
<path d="M106.008 67.9995L98.1369 65.7834C98.5583 63.5401 98.803 61.2696 98.8302 59.0399C98.8438 58.8223 98.8438 58.6184 98.8438 58.428C98.8438 36.6882 81.1583 19 59.4219 19C37.6855 19 20 36.6882 20 58.428C20 80.1678 37.6855 97.8561 59.4219 97.8561C63.7991 97.8561 68.0811 97.1083 72.1864 95.7079C75.1091 99.1477 79.0241 102.22 84.013 104.98C84.5567 105.279 85.1277 105.579 85.6986 105.864C85.8889 105.959 86.0928 106 86.2967 106C86.5006 106 86.7045 105.946 86.9084 105.864C87.493 105.579 88.0503 105.279 88.5941 104.98C101.155 98.0192 107 89.1819 107 77.1631V69.3047C107 68.6929 106.592 68.1627 106.008 67.9995ZM51.0209 22.6981C46.5894 26.7225 42.8783 33.8331 40.7984 42.8064C32.9684 44.6554 26.9464 47.5785 23.4528 51.0999C26.3075 37.0825 37.1689 25.9611 51.0209 22.6981ZM40.2003 45.7431C39.5206 49.414 39.14 53.2072 39.072 57.0549H22.8955C23.9966 52.5138 30.4808 48.2583 40.2003 45.7431ZM39.072 59.7876C39.14 63.6353 39.5206 67.4285 40.2003 71.0994C30.4808 68.5977 23.9966 64.3422 22.8955 59.7876H39.072ZM23.4528 65.7562C26.9464 69.2775 32.9684 72.2007 40.7984 74.0497C42.8919 83.0366 46.5894 90.1336 51.0209 94.158C37.1689 90.895 26.3075 79.7736 23.4528 65.7562ZM58.0625 95.0009C52.2444 93.9133 46.6166 85.9325 43.7347 74.6479C48.2206 75.5045 53.0872 75.9939 58.0625 76.0619V95.0009ZM58.0625 73.3563C52.8425 73.2747 47.7177 72.7309 43.0958 71.7656C42.3073 67.8908 41.8723 63.88 41.7908 59.7876H58.0625V73.3563ZM58.0625 57.0684H41.7908C41.8723 52.9761 42.3073 48.9653 43.0958 45.1041C47.7177 44.1388 52.8697 43.6221 58.0625 43.5406V57.0684ZM58.0625 40.8214C53.1144 40.8894 48.2342 41.3516 43.7347 42.2082C46.6166 30.9236 52.2444 22.9428 58.0625 21.8551V40.8214ZM95.9483 59.7876C95.5677 61.3376 94.5617 62.8875 92.9713 64.3286L86.6637 62.5612C86.4191 62.4932 86.1744 62.4932 85.9297 62.5612L79.527 64.3558C79.6494 62.8467 79.7309 61.324 79.7581 59.7876H95.9483ZM79.7717 57.0684C79.7038 53.2208 79.3231 49.4276 78.6434 45.7567C88.363 48.2583 94.8472 52.5274 95.9347 57.0684H79.7717ZM95.3909 51.0999C91.8973 47.5921 85.8753 44.6554 78.0453 42.8064C75.9519 33.8331 72.2544 26.7225 67.8228 22.6981C81.6748 25.9611 92.5362 37.0825 95.3909 51.0999ZM60.7812 21.8551C66.5994 22.9428 72.2272 30.9236 75.1091 42.2082C70.6231 41.3516 65.7294 40.8894 60.7812 40.8214V21.8551ZM60.7812 43.5406C65.9877 43.6221 71.1261 44.1388 75.748 45.1041C76.5364 48.9789 76.9714 52.9897 77.053 57.0684H60.7812V43.5406ZM60.7812 59.7876H77.053C77.0122 61.5959 76.917 63.3769 76.7403 65.1444L66.613 67.9859C66.0284 68.1491 65.6206 68.6793 65.6206 69.2911V73.1524C64.0166 73.2611 62.3989 73.3427 60.7812 73.3563V59.7876ZM60.7812 94.9873V76.0755C62.3989 76.0483 64.0166 75.9803 65.6206 75.8715V77.1631C65.6206 81.7722 66.4906 85.9053 68.2578 89.6578C65.9061 92.6488 63.3097 94.4979 60.7812 94.9873ZM67.8228 94.1308C68.4481 93.5598 69.0598 92.9344 69.658 92.241C69.9027 92.6353 70.1609 93.0295 70.4192 93.4102C69.5628 93.6821 68.7064 93.9269 67.8228 94.1308ZM87.2891 102.601C86.9764 102.778 86.6502 102.955 86.3103 103.131C85.9841 102.955 85.6578 102.791 85.3316 102.601C80.2339 99.7731 76.3597 96.7004 73.6137 93.2199C73.6137 93.2199 73.6138 93.2063 73.6002 93.2063C70.0114 88.6653 68.3258 83.4308 68.3258 77.1631V70.3108L78.3716 67.4965C78.3852 67.4965 78.3852 67.4965 78.3988 67.4829L86.2967 65.2668L104.281 70.338V77.1631C104.281 88.2438 99.0341 96.0886 87.2891 102.601Z" fill="#EE0033"/>
<path d="M97.4307 73.7781L82.6815 88.5296L76.3876 82.2347C75.8574 81.7044 75.001 81.7044 74.4709 82.2347C73.9407 82.7649 73.9407 83.6215 74.4709 84.1517L80.588 90.2698C80.6016 90.2834 80.6288 90.3106 80.6424 90.3242L81.7163 91.3983C81.9882 91.6702 82.328 91.7926 82.6815 91.7926C83.0349 91.7926 83.3748 91.6566 83.6466 91.3983L99.361 75.6951C99.8912 75.1648 99.8912 74.3083 99.361 73.7781C98.8309 73.2478 97.9609 73.2478 97.4307 73.7781Z" fill="#EE0033"/>
</svg>
