<svg width="294" height="259" viewBox="0 0 294 259" fill="none" xmlns="http://www.w3.org/2000/svg">
<g opacity="0.15">
<path d="M213.85 83.7493C213.901 82.7669 213.491 81.8362 212.72 81.0606C212.001 80.285 211.025 79.9231 210.049 79.9231C209.073 79.9231 208.097 80.285 207.377 81.0606L177.839 110.739L176.966 110.17C172.394 107.068 168.028 105.724 162.788 105.724C156.161 105.724 149.74 108.516 144.705 113.635C139.62 118.702 136.846 125.165 136.846 131.835C136.846 138.505 139.62 144.968 144.705 150.035C149.74 155.154 156.161 157.946 162.788 157.946C169.415 157.946 175.836 155.154 180.87 150.035C185.956 144.968 188.73 138.505 188.73 131.835C188.73 125.94 187.035 120.77 183.901 117.151L183.131 116.272L212.206 86.955C213.234 85.9726 213.799 84.8351 213.85 83.7493ZM176.041 144.658C172.702 147.967 167.976 149.673 163.25 149.673C158.473 149.673 153.695 148.018 150.099 144.658C146.709 141.245 144.551 136.23 144.551 131.835C144.551 126.509 146.452 122.166 150.151 118.96C156.726 112.342 168.85 112.342 175.99 119.012C179.38 122.373 181.538 127.44 181.538 131.835C180.922 137.316 179.072 141.555 176.041 144.658Z" fill="black"/>
<path d="M20.958 127.181C20.958 129.922 22.6532 131.731 25.3245 131.731H111.576C114.196 131.731 115.891 129.973 115.891 127.181C115.891 124.389 114.196 122.631 111.576 122.631H25.3245C22.6532 122.683 20.958 124.441 20.958 127.181Z" fill="black"/>
<path d="M4.36649 88.2995H90.6176C93.2375 88.2995 94.9327 86.5416 94.9327 83.7495C94.9327 80.9574 93.2375 79.1995 90.6176 79.1995H4.36649C1.69523 79.2512 0 81.0091 0 83.7495C0 86.4899 1.69523 88.2995 4.36649 88.2995Z" fill="black"/>
<path d="M94.9327 170.614C94.9327 167.874 93.2375 166.064 90.6176 166.064H4.36649C1.69523 166.116 0 167.874 0 170.614C0 173.355 1.69523 175.164 4.36649 175.164H90.6176C93.2375 175.164 94.9327 173.355 94.9327 170.614Z" fill="black"/>
<path d="M263.996 47.0903C263.329 46.263 262.609 45.4874 261.942 44.6601L260.966 43.5743C259.527 42.0232 258.192 40.5754 256.856 39.2828L256.394 38.7658L256.445 38.7141L255.983 38.2487C237.9 19.8418 214.938 7.43258 189.612 2.41721C187.865 2.05527 186.067 1.74504 184.372 1.48652C182.523 1.17629 180.776 0.969467 178.67 0.762648C177.437 0.607533 175.999 0.452418 174.612 0.400713C173.071 0.297303 171.478 0.193893 169.937 0.142189L168.653 0.0387787C166.033 -0.0129262 163.31 -0.0129262 160.588 0.0387787L159.714 0.142189C146.923 0.710943 134.337 3.08937 122.419 7.22576C121.186 7.5877 120.056 8.05304 118.823 8.51839L117.334 9.13884C115.433 9.91442 113.532 10.7417 111.683 11.569C108.292 13.0167 104.748 14.8781 100.792 17.2048C97.5559 19.0662 94.9874 20.669 92.7271 22.3236C90.2099 23.9782 87.7955 25.7878 85.6893 27.5458L85.2783 27.8043C83.7372 29.0452 82.1961 30.3896 80.7064 31.6305C80.3468 31.9407 79.9872 32.2509 79.679 32.5612C79.1139 33.0265 78.6002 33.4919 78.0865 33.9572L77.9324 34.1123C76.8022 35.1464 75.7234 36.1805 74.696 37.2663C74.2337 37.7317 73.8227 38.197 73.3604 38.6106C72.9494 39.076 72.4871 39.4896 72.0247 39.955L71.2542 40.7823C70.3809 41.6612 69.8672 42.7988 69.8672 43.988C69.8672 45.1772 70.3809 46.3147 71.2542 47.142C72.1275 48.0209 73.2063 48.4863 74.3878 48.4863C74.3878 48.4863 74.3878 48.4863 74.4392 48.4863C75.6207 48.4863 76.6995 48.0209 77.5214 47.142C100.792 22.6855 131.769 9.24225 164.8 9.24225C195.16 9.24225 224.338 20.8759 246.941 42.0232C258.757 53.1397 268.055 66.2728 274.527 81.0087C281.257 96.3133 284.647 112.6 284.647 129.353C284.647 195.845 230.914 249.929 164.8 249.929C132.796 249.929 102.744 237.364 80.0899 214.614C78.3433 212.805 75.5179 212.805 73.8227 214.614C72.1789 216.165 71.9734 218.595 73.3604 220.405L73.5659 220.664H74.0282L74.0796 221.077L74.2337 221.232C76.5454 223.559 79.0111 225.834 82.042 228.471L82.7098 228.988C85.8434 231.573 88.3092 233.538 90.6722 235.141C91.0318 235.503 91.2887 235.71 91.4942 235.762C94.7305 238.037 97.4532 239.794 100.073 241.294C103.361 243.259 106.7 245.017 110.039 246.568C111.991 247.55 114.046 248.429 115.638 249.101C118.053 250.135 120.673 251.118 123.344 251.997L123.755 252.152C124.988 252.566 126.272 252.979 127.505 253.341C129.406 253.962 131.306 254.479 133.464 254.996C143.584 257.581 154.115 258.874 164.749 258.874C177.745 258.874 190.793 256.961 203.122 253.083L203.276 253.031C204.047 252.772 204.818 252.514 205.588 252.255L207.437 251.635C210.263 250.653 213.088 249.515 215.965 248.274L216.376 248.067C217.66 247.499 218.842 246.982 220.023 246.361C220.331 246.309 220.537 246.154 220.64 246.102C224.236 244.345 227.883 242.38 231.479 240.208C238.311 236.072 244.989 231.056 251.308 225.265L252.695 223.973C253.62 223.094 254.493 222.215 255.366 221.388L255.828 220.974C258.705 218.078 261.376 215.131 264.15 211.822C283.209 188.658 293.74 159.342 293.74 129.249C293.637 99.0537 283.106 69.8921 263.996 47.0903Z" fill="black"/>
<path d="M103.206 212.392C102.59 213.478 102.333 214.719 102.538 215.908C102.795 217.097 103.515 218.08 104.542 218.649C122.573 231.161 143.584 237.728 165.365 237.728C224.492 237.728 272.626 189.332 272.626 129.768C272.626 70.2037 224.492 21.8596 165.365 21.8596C142.813 21.8596 121.083 28.9432 102.59 42.3865C101.768 42.9552 101.203 44.041 100.946 45.4371C100.843 46.7297 101.1 47.8672 101.665 48.7462C103.001 50.5559 105.723 50.9695 108.087 49.6252C124.217 37.4228 144.046 30.9597 165.416 30.9597C219.612 30.9597 263.688 75.3225 263.688 129.871C263.688 184.42 219.612 228.783 165.416 228.783C144.971 228.783 125.809 222.837 109.987 211.513C107.367 210.169 104.645 210.531 103.206 212.392Z" fill="black"/>
</g>
</svg>
