<svg width="155" height="154" viewBox="0 0 155 154" fill="none" xmlns="http://www.w3.org/2000/svg">
<g filter="url(#filter0_d)">
<ellipse cx="77.3994" cy="77" rx="60.9365" ry="61" fill="white"/>
</g>
<path fill-rule="evenodd" clip-rule="evenodd" d="M61.9604 88.5472C58.3598 84.5682 62.0437 75.3013 70.7312 67.9852C78.073 61.8044 86.6671 59.1395 91.2709 61.2885C91.9542 61.6075 92.5305 62.0247 92.984 62.5277L95.7807 65.6166C96.5601 66.4761 96.9543 67.5536 96.8987 68.6534C96.8464 69.7458 96.3601 70.7257 95.5183 71.4397L93.4697 73.1694C91.7778 74.5936 88.9069 74.3554 87.3366 72.629L84.5418 69.5456C83.0763 67.917 78.6886 69.2964 74.8252 72.5518C72.9428 74.1359 71.3997 76.0033 70.5812 77.7136C69.8165 79.3049 69.6805 80.7441 70.4254 81.5508L73.216 84.6263C74.8088 86.3934 74.6799 88.9896 72.9544 90.4427L70.9056 92.17C69.6343 93.2317 67.7965 93.4513 66.2167 92.7139C65.665 92.4563 65.1728 92.0919 64.7527 91.6313L61.9604 88.5472ZM65.2774 94.7303C67.6297 95.8283 70.3894 95.4986 72.3334 93.8751L74.3856 92.1449C77.0881 89.8691 77.289 85.8237 74.8636 83.1331L72.064 80.0478C72.1302 80.1193 72.1587 80.1807 72.1655 80.2125C72.157 80.1724 72.154 80.0938 72.1643 79.9843C72.1957 79.6521 72.3328 79.201 72.5849 78.6764C73.2558 77.2745 74.5997 75.6482 76.256 74.2544C77.9712 72.8091 79.697 71.8281 81.181 71.3616C81.7812 71.1729 82.3014 71.0838 82.6838 71.0886C82.8255 71.0904 82.9317 71.1052 82.994 71.1247C82.988 71.1228 82.9494 71.1002 82.8931 71.0377L85.6919 74.1255C88.0565 76.7251 92.2824 77.0758 94.9015 74.8712L96.9531 73.1388C98.2651 72.0262 99.0368 70.4709 99.1185 68.7628C99.2042 67.0687 98.5991 65.4143 97.4269 64.1218L94.6324 61.0354C93.9757 60.3068 93.1565 59.7138 92.2102 59.2721C86.6601 56.6814 77.2328 59.6046 69.3006 66.2825C59.7786 74.3013 55.5945 84.8264 60.3134 90.0411L63.1086 93.1284C63.7275 93.8071 64.4578 94.3477 65.2774 94.7303Z" fill="#EE0033"/>
<path fill-rule="evenodd" clip-rule="evenodd" d="M56.1983 100.549C57.167 103.719 59.873 106.491 63.1818 107.966C80.8178 115.826 101.48 107.887 109.332 90.2321C117.184 72.5778 109.253 51.8941 91.6166 44.0339C73.9806 36.1736 53.3184 44.1134 45.4664 61.7677C41.2975 71.141 41.4745 81.6659 45.7184 90.787C45.9775 91.3439 46.6386 91.5851 47.195 91.3257C47.7514 91.0663 47.9923 90.4045 47.7332 89.8476C43.758 81.304 43.5923 71.4515 47.4968 62.6727C54.8496 46.1408 74.198 38.706 90.7126 46.0664C107.227 53.4269 114.654 72.7954 107.302 89.3272C99.9488 105.859 80.6004 113.294 64.0858 105.933C61.3326 104.706 59.0913 102.41 58.3237 99.8982C57.4493 97.0373 58.4623 94.058 61.7386 91.2446C62.2044 90.8446 62.2581 90.1423 61.8585 89.6759C61.4589 89.2096 60.7573 89.1559 60.2915 89.5559C56.3728 92.921 55.0532 96.802 56.1983 100.549Z" fill="#EE0033"/>
<defs>
<filter id="filter0_d" x="0.462891" y="0" width="153.873" height="154" filterUnits="userSpaceOnUse" color-interpolation-filters="sRGB">
<feFlood flood-opacity="0" result="BackgroundImageFix"/>
<feColorMatrix in="SourceAlpha" type="matrix" values="0 0 0 0 0 0 0 0 0 0 0 0 0 0 0 0 0 0 127 0"/>
<feMorphology radius="7" operator="erode" in="SourceAlpha" result="effect1_dropShadow"/>
<feOffset/>
<feGaussianBlur stdDeviation="11.5"/>
<feColorMatrix type="matrix" values="0 0 0 0 0 0 0 0 0 0 0 0 0 0 0 0 0 0 0.25 0"/>
<feBlend mode="normal" in2="BackgroundImageFix" result="effect1_dropShadow"/>
<feBlend mode="normal" in="SourceGraphic" in2="effect1_dropShadow" result="shape"/>
</filter>
</defs>
</svg>
