<svg width="22" height="23" viewBox="0 0 22 23" fill="none" xmlns="http://www.w3.org/2000/svg">
    <path fill-rule="evenodd" clip-rule="evenodd" d="M11 3C6.05228 3 2 7.05228 2 12C2 16.9477 6.05228 21 11 21C15.9477 21 20 16.9477 20 12C20 11.4477 20.4477 11 21 11C21.5523 11 22 11.4477 22 12C22 18.0523 17.0523 23 11 23C4.94772 23 0 18.0523 0 12C0 5.94772 4.94772 1 11 1C15.2826 1 19.0324 3.41846 20.7998 7.06373C21.0408 7.56068 20.8332 8.15887 20.3363 8.39981C19.8393 8.64076 19.2411 8.43323 19.0002 7.93627C17.5676 4.98154 14.5174 3 11 3Z" fill="#576C8A"/>
    <path fill-rule="evenodd" clip-rule="evenodd" d="M20.9345 0.709137C21.4818 0.783344 21.8653 1.28716 21.791 1.83443L20.991 7.73443C20.917 8.28085 20.4145 8.66417 19.868 8.5913L13.868 7.7913C13.3205 7.71831 12.9359 7.21535 13.0089 6.66791C13.0819 6.12047 13.5848 5.73585 14.1323 5.80884L19.1432 6.47697L19.8092 1.56571C19.8834 1.01843 20.3872 0.634931 20.9345 0.709137Z" fill="#576C8A"/>
</svg>
