<svg width="127" height="127" viewBox="0 0 127 127" fill="none" xmlns="http://www.w3.org/2000/svg">
<circle cx="63.5" cy="63.5" r="62.5" stroke="#EE0033" stroke-width="2"/>
<path d="M93.9977 58.0615C93.1026 58.0615 92.369 58.7884 92.369 59.6903V88.2895C92.369 90.5443 90.5317 92.3819 88.2771 92.3819H38.7166C36.462 92.3819 34.6247 90.5443 34.6247 88.2895V38.7171C34.6247 36.4623 36.462 34.6248 38.7166 34.6248H67.3128C68.2079 34.6248 68.9415 33.8978 68.9415 32.9959C68.9415 32.094 68.2079 31.3738 67.3128 31.3738H38.7166C34.6718 31.3738 31.374 34.6719 31.374 38.7171V88.2828C31.374 92.3347 34.6718 95.6261 38.7166 95.6261H88.2771C92.3286 95.6261 95.6196 92.328 95.6196 88.2828V59.6903C95.6264 58.7951 94.8995 58.0615 93.9977 58.0615Z" fill="#EE0033"/>
<path d="M93.9973 31.3738H78.7468C77.8517 31.3738 77.1182 32.1007 77.1182 33.0026V48.2547C77.1182 49.1499 77.845 49.8835 78.7468 49.8835H93.9973C94.8924 49.8835 95.626 49.1566 95.626 48.2547V33.0026C95.626 32.1007 94.8991 31.3738 93.9973 31.3738ZM92.3753 34.6248V46.6258H80.3755V34.6248H92.3753Z" fill="#EE0033"/>
<path d="M63.5041 46.6257H48.2537C47.3586 46.6257 46.625 47.3527 46.625 48.2546V78.7586C46.625 79.6538 47.3519 80.3875 48.2537 80.3875H78.7545C79.6496 80.3875 80.3832 79.6606 80.3832 78.7586V63.4999C80.3832 62.6047 79.6564 61.871 78.7545 61.871H65.1261V48.2546C65.1261 47.3527 64.3992 46.6257 63.5041 46.6257ZM49.8756 61.8778V49.8767H61.8754V61.8778H49.8756ZM49.8756 77.1298V65.1287H61.8754V77.1298H49.8756ZM65.1261 77.1298V65.1287H77.1259V77.1298H65.1261Z" fill="#EE0033"/>
</svg>
