<svg width="122" height="123" viewBox="0 0 122 123" fill="none" xmlns="http://www.w3.org/2000/svg">
<g clip-path="url(#clip0)">
<rect y="0.5" width="122" height="122" fill="url(#paint0_linear)"/>
<path d="M83.1293 -23.0861L-0.0406361 6.68048C-22.4839 14.7718 -34.138 39.5576 -26.0804 62.04L-22.0909 73.1434L-15.4483 91.6688L12.596 169.806C12.596 169.806 20.8305 124.585 67.9575 107.615L122.985 87.9874C145.428 79.8961 157.082 55.1103 149.025 32.6278L138.393 2.99903C130.315 -19.4834 105.573 -31.1577 83.1293 -23.0861Z" fill="url(#paint1_linear)"/>
<path d="M62.482 -6.2438L-1.61716 16.6973C-18.9142 22.9333 -27.896 42.0357 -21.686 59.363L-18.6113 67.9204L-13.4919 82.1979L8.12191 142.418C8.12191 142.418 14.4682 107.567 50.789 94.4878L93.1987 79.3606C110.496 73.1246 119.478 54.0222 113.268 36.695L105.073 13.86C98.8483 -3.46719 79.7791 -12.4646 62.482 -6.2438Z" fill="url(#paint2_linear)"/>
<path d="M49.4015 10.19L2.00087 27.1547C-10.7901 31.7661 -17.432 45.8922 -12.8398 58.7055L-10.5661 65.0336L-6.78033 75.5916L9.2028 120.124C9.2028 120.124 13.8958 94.3515 40.7547 84.6799L72.1161 73.4935C84.9071 68.882 91.549 54.756 86.9568 41.9427L80.8973 25.0566C76.2939 12.2433 62.1925 5.58979 49.4015 10.19Z" fill="url(#paint3_linear)"/>
<path d="M28.2355 69.2777C27.5609 69.2777 27.1112 69.1466 26.8863 68.8842C26.6615 68.6032 26.5491 68.1628 26.5491 67.5632V51.3174C26.5491 50.7178 26.6615 50.2774 26.8863 49.9963C27.1112 49.7153 27.5609 49.5747 28.2355 49.5747H33.4915C35.1404 49.5747 36.5364 49.8371 37.6794 50.3617C38.8224 50.8864 39.75 51.5891 40.462 52.4698C41.1741 53.3504 41.6894 54.3904 42.0079 55.5896C42.3264 56.7701 42.4857 58.0162 42.4857 59.3279C42.4857 60.6208 42.3452 61.8669 42.0641 63.0661C41.783 64.2653 41.3052 65.324 40.6307 66.2422C39.9561 67.1603 39.0567 67.9005 37.9324 68.4626C36.8268 69.006 35.4496 69.2777 33.8007 69.2777H28.2355ZM38.0729 59.3279C38.0729 58.4659 37.998 57.6696 37.8481 56.9388C37.6982 56.208 37.4265 55.5803 37.033 55.0556C36.6582 54.5122 36.1429 54.0906 35.4871 53.7908C34.8312 53.4722 34.0068 53.313 33.0137 53.313H30.8213V65.5114H33.098C34.0724 65.5114 34.8781 65.3615 35.5152 65.0617C36.171 64.7431 36.6863 64.3122 37.0611 63.7688C37.4358 63.2254 37.6982 62.5789 37.8481 61.8294C37.998 61.0611 38.0729 60.2273 38.0729 59.3279ZM59.5888 52.6946C59.5888 53.0694 59.4014 53.2568 59.0267 53.2568H53.9393V68.6875C53.9393 68.9311 53.8925 69.0904 53.7988 69.1653C53.7238 69.2403 53.5458 69.2777 53.2648 69.2777H50.2573C50.0324 69.2777 49.8638 69.2403 49.7514 69.1653C49.6577 69.0716 49.6108 68.9123 49.6108 68.6875V53.2568H44.6359C44.2799 53.2568 44.1019 53.0694 44.1019 52.6946V50.1931C44.1019 49.9495 44.1393 49.7902 44.2143 49.7153C44.2893 49.6403 44.4298 49.6028 44.6359 49.6028H59.0267C59.2515 49.6028 59.4014 49.6403 59.4764 49.7153C59.5513 49.7902 59.5888 49.9495 59.5888 50.1931V52.6946ZM74.9414 68.7156C74.9414 68.9217 74.9039 69.0716 74.829 69.1653C74.7727 69.2403 74.6416 69.2777 74.4355 69.2777H64.1483C63.9422 69.2777 63.8017 69.2403 63.7267 69.1653C63.6705 69.0716 63.6424 68.9217 63.6424 68.7156V66.4951C63.6424 66.2328 63.6705 66.0735 63.7267 66.0173C63.8017 65.9611 63.9422 65.933 64.1483 65.933H67.1276V54.1281L64.1483 54.634C63.9234 54.6715 63.7735 54.6621 63.6986 54.6059C63.6236 54.5309 63.5862 54.3904 63.5862 54.1843V52.1325C63.5862 51.9638 63.6049 51.8233 63.6424 51.7109C63.6986 51.5984 63.8485 51.5048 64.0921 51.4298L68.7579 50.165C69.0764 50.0713 69.3856 50.0245 69.6854 50.0245C69.9852 50.0057 70.2475 50.0526 70.4724 50.165C70.6972 50.2587 70.8752 50.4179 71.0064 50.6428C71.1376 50.8677 71.2032 51.1581 71.2032 51.5141V65.933H74.4355C74.6416 65.933 74.7727 65.9611 74.829 66.0173C74.9039 66.0735 74.9414 66.2328 74.9414 66.4951V68.7156ZM95.4685 59.8057C95.4685 61.2672 95.2999 62.5976 94.9626 63.7969C94.644 64.9961 94.1475 66.0267 93.4729 66.8886C92.7983 67.7506 91.9551 68.4158 90.9433 68.8842C89.9314 69.3527 88.7509 69.5869 87.4018 69.5869C86.0527 69.5869 84.8722 69.3621 83.8603 68.9123C82.8672 68.4439 82.0334 67.7881 81.3588 66.9449C80.703 66.0829 80.2064 65.0523 79.8691 63.8531C79.5506 62.6539 79.3913 61.3235 79.3913 59.8619C79.3913 58.3816 79.5599 57.0418 79.8972 55.8426C80.2345 54.6434 80.7404 53.6128 81.415 52.7508C82.0896 51.8889 82.9234 51.2237 83.9165 50.7552C84.9284 50.2868 86.1089 50.0526 87.458 50.0526C88.8259 50.0526 90.0064 50.2868 90.9995 50.7552C92.0113 51.2049 92.8452 51.8608 93.501 52.7227C94.1756 53.5659 94.6721 54.5872 94.9907 55.7864C95.3092 56.9856 95.4685 58.3254 95.4685 59.8057ZM91.2806 59.8619C91.2806 58.9437 91.2056 58.1005 91.0557 57.3323C90.9245 56.5453 90.6997 55.8707 90.3811 55.3086C90.0813 54.7464 89.6878 54.3061 89.2006 53.9875C88.7134 53.669 88.1138 53.5097 87.4018 53.5097C86.6897 53.5097 86.0901 53.669 85.6029 53.9875C85.1345 54.2873 84.7504 54.7183 84.4506 55.2805C84.1507 55.8426 83.9353 56.5078 83.8041 57.2761C83.6729 58.0443 83.6073 58.8875 83.6073 59.8057C83.6073 60.7051 83.6729 61.5389 83.8041 62.3072C83.9353 63.0755 84.1507 63.75 84.4506 64.3309C84.7504 64.893 85.1439 65.3334 85.631 65.6519C86.137 65.9705 86.746 66.1298 87.458 66.1298C88.17 66.1298 88.7697 65.9705 89.2568 65.6519C89.744 65.3334 90.1375 64.893 90.4373 64.3309C90.7371 63.7688 90.9526 63.1129 91.0838 62.3634C91.215 61.5952 91.2806 60.7613 91.2806 59.8619Z" fill="white"/>
</g>
<defs>
<linearGradient id="paint0_linear" x1="26.0267" y1="0.499999" x2="66.6614" y2="82.1575" gradientUnits="userSpaceOnUse">
<stop stop-color="#EF0134"/>
<stop offset="1" stop-color="#D7002E"/>
</linearGradient>
<linearGradient id="paint1_linear" x1="9.81203" y1="-25.6429" x2="78.0288" y2="100.753" gradientUnits="userSpaceOnUse">
<stop stop-color="#DA0532"/>
<stop offset="1" stop-color="#CA042F"/>
</linearGradient>
<linearGradient id="paint2_linear" x1="5.9763" y1="-8.2143" x2="58.551" y2="89.1994" gradientUnits="userSpaceOnUse">
<stop stop-color="#AF0026"/>
<stop offset="1" stop-color="#BD0029"/>
</linearGradient>
<linearGradient id="paint3_linear" x1="7.61615" y1="8.73285" x2="46.4945" y2="80.7691" gradientUnits="userSpaceOnUse">
<stop stop-color="#91001F"/>
<stop offset="1" stop-color="#A70024"/>
</linearGradient>
<clipPath id="clip0">
<rect width="122" height="122" fill="white" transform="translate(0 0.5)"/>
</clipPath>
</defs>
</svg>
