<svg width="122" height="123" viewBox="0 0 122 123" fill="none" xmlns="http://www.w3.org/2000/svg">
<g clip-path="url(#clip0)">
<rect y="0.5" width="122" height="122" fill="url(#paint0_linear)"/>
<path d="M83.1294 -23.0861L-0.040575 6.68048C-22.4839 14.7718 -34.1379 39.5576 -26.0803 62.04L-22.0908 73.1434L-15.4482 91.6688L12.5961 169.806C12.5961 169.806 20.8305 124.585 67.9576 107.615L122.985 87.9874C145.428 79.8961 157.082 55.1103 149.025 32.6278L138.393 2.99903C130.315 -19.4834 105.573 -31.1577 83.1294 -23.0861Z" fill="url(#paint1_linear)"/>
<path d="M62.482 -6.24381L-1.61716 16.6973C-18.9142 22.9333 -27.896 42.0357 -21.686 59.363L-18.6113 67.9204L-13.4919 82.1979L8.12191 142.418C8.12191 142.418 14.4682 107.567 50.789 94.4878L93.1987 79.3606C110.496 73.1246 119.478 54.0222 113.268 36.6949L105.073 13.86C98.8483 -3.4672 79.7791 -12.4646 62.482 -6.24381Z" fill="url(#paint2_linear)"/>
<path d="M49.4015 10.19L2.00087 27.1547C-10.7901 31.7661 -17.432 45.8922 -12.8398 58.7055L-10.5661 65.0336L-6.78033 75.5916L9.2028 120.124C9.2028 120.124 13.8958 94.3515 40.7547 84.6799L72.1161 73.4935C84.9071 68.882 91.549 54.756 86.9568 41.9427L80.8973 25.0566C76.2939 12.2433 62.1925 5.58979 49.4015 10.19Z" fill="url(#paint3_linear)"/>
<path d="M32.9348 68.6875C32.9348 68.9498 32.8974 69.1185 32.8224 69.1934C32.7474 69.2496 32.5694 69.2777 32.2884 69.2777H29.309C29.0842 69.2777 28.9155 69.2403 28.8031 69.1653C28.7094 69.0716 28.6626 68.9123 28.6626 68.6875V54.7745C28.6626 54.1 28.7469 53.4535 28.9155 52.8351C29.1029 52.2168 29.3933 51.664 29.7868 51.1768C30.1991 50.6896 30.7331 50.3055 31.3889 50.0245C32.0448 49.7246 32.8599 49.5747 33.8343 49.5747H42.0415C42.2851 49.5747 42.435 49.6216 42.4912 49.7153C42.5662 49.809 42.6036 49.987 42.6036 50.2493V52.6384C42.6036 52.882 42.5568 53.0506 42.4631 53.1443C42.3881 53.2193 42.2476 53.2568 42.0415 53.2568H34.7618C34.031 53.2568 33.5438 53.4254 33.3002 53.7627C33.0566 54.0812 32.9348 54.4935 32.9348 54.9994V57.5852H40.9172C41.1421 57.5852 41.2826 57.6321 41.3388 57.7258C41.4138 57.8007 41.4512 57.9787 41.4512 58.2598V60.4521C41.4512 60.677 41.4138 60.8456 41.3388 60.9581C41.2639 61.0518 41.1233 61.0986 40.9172 61.0986H32.9348V68.6875ZM58.985 52.6946C58.985 53.0694 58.7976 53.2568 58.4228 53.2568H53.3355V68.6875C53.3355 68.9311 53.2886 69.0904 53.1949 69.1653C53.12 69.2403 52.942 69.2777 52.6609 69.2777H49.6534C49.4286 69.2777 49.2599 69.2403 49.1475 69.1653C49.0538 69.0716 49.007 68.9123 49.007 68.6875V53.2568H44.032C43.676 53.2568 43.498 53.0694 43.498 52.6946V50.1931C43.498 49.9495 43.5355 49.7902 43.6104 49.7153C43.6854 49.6403 43.8259 49.6028 44.032 49.6028H58.4228C58.6477 49.6028 58.7976 49.6403 58.8725 49.7153C58.9475 49.7902 58.985 49.9495 58.985 50.1931V52.6946ZM71.8641 59.3279C73.0821 59.6464 73.9534 60.2179 74.4781 61.0424C75.0215 61.8481 75.2932 62.7288 75.2932 63.6844C75.2932 64.5839 75.1058 65.399 74.731 66.1298C74.375 66.8605 73.8691 67.4883 73.2132 68.0129C72.5762 68.5189 71.7985 68.9123 70.8804 69.1934C69.9622 69.4558 68.9597 69.5869 67.8729 69.5869C66.5613 69.5869 65.3527 69.437 64.2471 69.1372C63.1416 68.8374 62.1391 68.3315 61.2397 67.6194C61.0898 67.4695 61.0054 67.3571 60.9867 67.2821C60.9867 67.1885 61.0335 67.0573 61.1272 66.8886L62.3639 64.8649C62.4951 64.6588 62.6169 64.5464 62.7293 64.5277C62.8605 64.4902 63.0479 64.5464 63.2915 64.6963C63.966 65.1835 64.6875 65.5301 65.4557 65.7363C66.224 65.9236 66.936 66.0173 67.5918 66.0173C68.7161 66.0173 69.5687 65.7644 70.1496 65.2584C70.7492 64.7338 71.049 64.0217 71.049 63.1223C71.049 62.5227 70.8054 61.998 70.3182 61.5483C69.831 61.0799 69.0721 60.8456 68.0416 60.8456H67.3108C66.8611 60.8456 66.58 60.7894 66.4676 60.677C66.3551 60.5646 66.2989 60.3116 66.2989 59.9181V58.7938C66.2989 58.3629 66.3458 58.0912 66.4395 57.9787C66.5519 57.8476 66.7674 57.782 67.0859 57.782H67.901C68.7817 57.782 69.4563 57.5759 69.9247 57.1636C70.4119 56.7514 70.6555 56.2267 70.6555 55.5896C70.6555 55.2336 70.5806 54.9338 70.4307 54.6902C70.2808 54.4466 70.0746 54.2499 69.8123 54.1C69.5687 53.9501 69.2876 53.8376 68.9691 53.7627C68.6505 53.6877 68.3226 53.6503 67.9853 53.6503C67.3295 53.6503 66.6175 53.7533 65.8492 53.9594C65.0997 54.1655 64.4064 54.4841 63.7693 54.9151C63.5257 55.065 63.3383 55.1306 63.2072 55.1118C63.0947 55.0931 62.9823 54.9807 62.8699 54.7745L61.7456 52.8914C61.6332 52.7227 61.577 52.5916 61.577 52.4979C61.577 52.3854 61.6519 52.2636 61.8018 52.1325C62.2515 51.7765 62.7387 51.4673 63.2634 51.2049C63.8068 50.9426 64.3595 50.7271 64.9217 50.5585C65.5026 50.3898 66.0834 50.268 66.6643 50.1931C67.2452 50.0994 67.8073 50.0526 68.3507 50.0526C69.1939 50.0526 69.9997 50.1462 70.7679 50.3336C71.5549 50.5023 72.2482 50.7833 72.8479 51.1768C73.4475 51.5703 73.9253 52.0856 74.2813 52.7227C74.6373 53.3411 74.8153 54.0906 74.8153 54.9713C74.8153 55.421 74.7404 55.8613 74.5905 56.2923C74.4593 56.7233 74.2626 57.1262 74.0002 57.5009C73.7379 57.8757 73.4194 58.213 73.0446 58.5128C72.6886 58.7938 72.2951 59.0187 71.8641 59.1873V59.3279ZM79.4058 54.9713C79.4058 54.1843 79.5369 53.4441 79.7993 52.7508C80.0803 52.0575 80.4926 51.4579 81.036 50.952C81.5794 50.4273 82.2727 50.0151 83.1159 49.7153C83.9591 49.4155 84.9522 49.2656 86.0952 49.2656C86.6199 49.2656 87.1633 49.2937 87.7254 49.3499C88.3063 49.4061 88.8685 49.4904 89.4119 49.6028C89.974 49.7153 90.508 49.8558 91.014 50.0245C91.5199 50.1744 91.979 50.3524 92.3912 50.5585C92.6161 50.6709 92.7379 50.7833 92.7566 50.8958C92.7941 50.9895 92.766 51.1768 92.6723 51.4579L91.9415 53.5659C91.8478 53.8283 91.7541 53.9782 91.6604 54.0156C91.5667 54.0531 91.4075 54.0438 91.1826 53.9875C90.3019 53.7252 89.4212 53.5097 88.5406 53.3411C87.6786 53.1724 86.8635 53.0881 86.0952 53.0881C85.2708 53.0881 84.6899 53.238 84.3526 53.5378C84.0153 53.8376 83.8467 54.203 83.8467 54.634C83.8467 54.8776 83.9029 55.1024 84.0153 55.3086C84.1278 55.5147 84.3058 55.7208 84.5494 55.9269C84.8117 56.1143 85.149 56.311 85.5612 56.5172C85.9922 56.7233 86.5168 56.9481 87.1352 57.1917C88.0908 57.5665 88.9715 57.9506 89.7773 58.3441C90.583 58.7189 91.2669 59.1499 91.8291 59.637C92.4099 60.1242 92.8597 60.6957 93.1782 61.3516C93.5155 62.0074 93.6841 62.7944 93.6841 63.7126C93.6841 64.7057 93.5061 65.5676 93.1501 66.2984C92.7941 67.0292 92.2975 67.6382 91.6604 68.1254C91.0233 68.6125 90.2457 68.9779 89.3275 69.2215C88.4281 69.4651 87.435 69.5869 86.3482 69.5869C85.7486 69.5869 85.1209 69.5494 84.465 69.4745C83.8092 69.4183 83.1534 69.3246 82.4975 69.1934C81.8605 69.0435 81.2327 68.8561 80.6144 68.6313C79.996 68.4064 79.4245 68.1347 78.8999 67.8162C78.75 67.7225 78.6563 67.6194 78.6188 67.507C78.6 67.3946 78.6375 67.2166 78.7312 66.973L79.6869 64.7244C79.7805 64.4996 79.8836 64.3684 79.996 64.3309C80.1085 64.2934 80.2677 64.3215 80.4738 64.4152C80.8486 64.5651 81.2608 64.7244 81.7106 64.893C82.1603 65.043 82.6193 65.1835 83.0878 65.3147C83.575 65.4271 84.0622 65.5301 84.5494 65.6238C85.0553 65.6988 85.5518 65.7363 86.039 65.7363C86.6199 65.7363 87.1071 65.68 87.5006 65.5676C87.8941 65.4552 88.2126 65.3147 88.4562 65.146C88.6998 64.9586 88.8685 64.7525 88.9622 64.5277C89.0558 64.2841 89.1027 64.0311 89.1027 63.7688C89.1027 63.4877 89.0465 63.2347 88.9341 63.0099C88.8404 62.785 88.6717 62.5695 88.4281 62.3634C88.2033 62.1386 87.8847 61.9324 87.4725 61.7451C87.079 61.5389 86.5824 61.3235 85.9828 61.0986C84.9897 60.7238 84.0903 60.3397 83.2845 59.9462C82.4788 59.5527 81.7855 59.1217 81.2046 58.6533C80.6238 58.1661 80.174 57.6321 79.8555 57.0512C79.5557 56.4516 79.4058 55.7583 79.4058 54.9713Z" fill="white"/>
</g>
<defs>
<linearGradient id="paint0_linear" x1="26.0267" y1="0.499999" x2="66.6614" y2="82.1575" gradientUnits="userSpaceOnUse">
<stop stop-color="#EF0134"/>
<stop offset="1" stop-color="#D7002E"/>
</linearGradient>
<linearGradient id="paint1_linear" x1="9.81209" y1="-25.6429" x2="78.0289" y2="100.753" gradientUnits="userSpaceOnUse">
<stop stop-color="#DA0532"/>
<stop offset="1" stop-color="#CA042F"/>
</linearGradient>
<linearGradient id="paint2_linear" x1="5.9763" y1="-8.2143" x2="58.551" y2="89.1994" gradientUnits="userSpaceOnUse">
<stop stop-color="#AF0026"/>
<stop offset="1" stop-color="#BD0029"/>
</linearGradient>
<linearGradient id="paint3_linear" x1="7.61615" y1="8.73285" x2="46.4945" y2="80.7691" gradientUnits="userSpaceOnUse">
<stop stop-color="#91001F"/>
<stop offset="1" stop-color="#A70024"/>
</linearGradient>
<clipPath id="clip0">
<rect width="122" height="122" fill="white" transform="translate(0 0.5)"/>
</clipPath>
</defs>
</svg>
