<svg width="122" height="123" viewBox="0 0 122 123" fill="none" xmlns="http://www.w3.org/2000/svg">
<g clip-path="url(#clip0)">
<rect y="0.5" width="122" height="122" fill="url(#paint0_linear)"/>
<path d="M83.1294 -23.0861L-0.040575 6.68048C-22.4839 14.7718 -34.1379 39.5576 -26.0803 62.04L-22.0908 73.1434L-15.4482 91.6688L12.5961 169.806C12.5961 169.806 20.8305 124.585 67.9576 107.615L122.985 87.9874C145.428 79.8961 157.082 55.1103 149.025 32.6278L138.393 2.99903C130.315 -19.4834 105.573 -31.1577 83.1294 -23.0861Z" fill="url(#paint1_linear)"/>
<path d="M62.482 -6.2438L-1.61716 16.6973C-18.9142 22.9333 -27.896 42.0357 -21.686 59.363L-18.6113 67.9204L-13.4919 82.1979L8.12191 142.418C8.12191 142.418 14.4682 107.567 50.789 94.4878L93.1987 79.3606C110.496 73.1246 119.478 54.0222 113.268 36.695L105.073 13.86C98.8483 -3.46719 79.7791 -12.4646 62.482 -6.2438Z" fill="url(#paint2_linear)"/>
<path d="M49.4015 10.19L2.00087 27.1547C-10.7901 31.7661 -17.432 45.8922 -12.8398 58.7055L-10.5661 65.0336L-6.78033 75.5916L9.2028 120.124C9.2028 120.124 13.8958 94.3515 40.7547 84.6799L72.1161 73.4935C84.9071 68.882 91.549 54.756 86.9568 41.9427L80.8973 25.0566C76.2939 12.2433 62.1925 5.58979 49.4015 10.19Z" fill="url(#paint3_linear)"/>
<path d="M41.3614 68.6875C41.3614 68.9498 41.324 69.1185 41.249 69.1934C41.1741 69.2496 40.996 69.2777 40.715 69.2777H37.7356C37.5108 69.2777 37.3421 69.2403 37.2297 69.1653C37.136 69.0716 37.0892 68.9123 37.0892 68.6875V54.7745C37.0892 54.1 37.1735 53.4535 37.3421 52.8351C37.5295 52.2168 37.82 51.664 38.2135 51.1768C38.6257 50.6896 39.1597 50.3055 39.8156 50.0245C40.4714 49.7246 41.2865 49.5747 42.2609 49.5747H50.4681C50.7117 49.5747 50.8616 49.6216 50.9178 49.7153C50.9928 49.809 51.0302 49.987 51.0302 50.2493V52.6384C51.0302 52.882 50.9834 53.0506 50.8897 53.1443C50.8148 53.2193 50.6742 53.2568 50.4681 53.2568H43.1884C42.4576 53.2568 41.9704 53.4254 41.7268 53.7627C41.4832 54.0812 41.3614 54.4935 41.3614 54.9994V57.5852H49.3438C49.5687 57.5852 49.7092 57.6321 49.7654 57.7258C49.8404 57.8007 49.8779 57.9787 49.8779 58.2598V60.4521C49.8779 60.677 49.8404 60.8456 49.7654 60.9581C49.6905 61.0518 49.5499 61.0986 49.3438 61.0986H41.3614V68.6875ZM67.4116 52.6946C67.4116 53.0694 67.2242 53.2568 66.8494 53.2568H61.7621V68.6875C61.7621 68.9311 61.7152 69.0904 61.6215 69.1653C61.5466 69.2403 61.3686 69.2777 61.0875 69.2777H58.08C57.8552 69.2777 57.6865 69.2403 57.5741 69.1653C57.4804 69.0716 57.4336 68.9123 57.4336 68.6875V53.2568H52.4586C52.1026 53.2568 51.9246 53.0694 51.9246 52.6946V50.1931C51.9246 49.9495 51.9621 49.7902 52.037 49.7153C52.112 49.6403 52.2525 49.6028 52.4586 49.6028H66.8494C67.0743 49.6028 67.2242 49.6403 67.2991 49.7153C67.3741 49.7902 67.4116 49.9495 67.4116 50.1931V52.6946ZM84.3381 62.8693C84.3381 63.9749 84.132 64.9493 83.7198 65.7925C83.3263 66.6357 82.7735 67.3384 82.0615 67.9005C81.3682 68.4626 80.5437 68.8936 79.588 69.1934C78.6324 69.4745 77.6112 69.615 76.5244 69.615C75.3064 69.615 74.0884 69.4932 72.8705 69.2496C71.6712 68.9873 70.5376 68.4252 69.4695 67.5632C69.2072 67.3571 69.151 67.1322 69.3009 66.8886C69.3758 66.7762 69.4789 66.6169 69.6101 66.4108C69.7412 66.2047 69.8724 65.9892 70.0036 65.7644C70.1535 65.5395 70.294 65.3334 70.4252 65.146C70.5563 64.9399 70.6594 64.7806 70.7343 64.6682C70.8655 64.4808 70.9967 64.3965 71.1278 64.4152C71.2777 64.4152 71.4651 64.4902 71.69 64.6401C72.3833 65.1273 73.1234 65.4739 73.9104 65.68C74.7162 65.8862 75.4751 65.9892 76.1871 65.9892C77.4613 65.9892 78.4357 65.7269 79.1102 65.2022C79.8035 64.6588 80.1502 63.9187 80.1502 62.9818C80.1502 62.1011 79.8597 61.4359 79.2789 60.9862C78.698 60.5365 77.9859 60.3116 77.1427 60.3116C76.7305 60.3116 76.3651 60.3397 76.0466 60.3959C75.728 60.4521 75.4188 60.5271 75.119 60.6208C74.838 60.6957 74.5569 60.7988 74.2758 60.93C73.9947 61.0424 73.7043 61.1642 73.4045 61.2954C73.1796 61.389 72.9173 61.4546 72.6175 61.4921C72.3177 61.5108 72.0366 61.4734 71.7743 61.3797L70.7906 61.0986C70.3596 60.9487 70.0691 60.752 69.9192 60.5084C69.7881 60.246 69.7412 59.8994 69.7787 59.4684L70.5095 52.4417C70.5844 51.7109 70.7999 51.1862 71.1559 50.8677C71.512 50.5304 71.9898 50.3617 72.5894 50.3617H82.3987C82.6423 50.3617 82.8016 50.3898 82.8766 50.4461C82.9702 50.5023 83.0171 50.6803 83.0171 50.9801V53.2005C83.0171 53.4441 82.9702 53.6128 82.8766 53.7065C82.7829 53.7814 82.6236 53.8189 82.3987 53.8189H74.1915L73.7699 57.4728C74.3882 57.2667 75.016 57.1355 75.6531 57.0793C76.2902 57.0044 76.8898 56.9669 77.4519 56.9669C78.445 56.9669 79.3632 57.1074 80.2064 57.3885C81.0496 57.6508 81.771 58.0349 82.3706 58.5409C82.989 59.0468 83.4668 59.6651 83.8041 60.3959C84.1601 61.1267 84.3381 61.9512 84.3381 62.8693Z" fill="white"/>
</g>
<defs>
<linearGradient id="paint0_linear" x1="26.0267" y1="0.499999" x2="66.6614" y2="82.1575" gradientUnits="userSpaceOnUse">
<stop stop-color="#EF0134"/>
<stop offset="1" stop-color="#D7002E"/>
</linearGradient>
<linearGradient id="paint1_linear" x1="9.81209" y1="-25.6429" x2="78.0289" y2="100.753" gradientUnits="userSpaceOnUse">
<stop stop-color="#DA0532"/>
<stop offset="1" stop-color="#CA042F"/>
</linearGradient>
<linearGradient id="paint2_linear" x1="5.9763" y1="-8.2143" x2="58.551" y2="89.1994" gradientUnits="userSpaceOnUse">
<stop stop-color="#AF0026"/>
<stop offset="1" stop-color="#BD0029"/>
</linearGradient>
<linearGradient id="paint3_linear" x1="7.61615" y1="8.73285" x2="46.4945" y2="80.7691" gradientUnits="userSpaceOnUse">
<stop stop-color="#91001F"/>
<stop offset="1" stop-color="#A70024"/>
</linearGradient>
<clipPath id="clip0">
<rect width="122" height="122" fill="white" transform="translate(0 0.5)"/>
</clipPath>
</defs>
</svg>
