<svg width="122" height="123" viewBox="0 0 122 123" fill="none" xmlns="http://www.w3.org/2000/svg">
<g clip-path="url(#clip0)">
<rect y="0.5" width="122" height="122" fill="url(#paint0_linear)"/>
<path d="M83.1293 -23.0861L-0.0406361 6.68048C-22.4839 14.7718 -34.138 39.5576 -26.0804 62.04L-22.0909 73.1434L-15.4483 91.6688L12.596 169.806C12.596 169.806 20.8305 124.585 67.9575 107.615L122.985 87.9874C145.428 79.8961 157.082 55.1103 149.025 32.6278L138.393 2.99903C130.315 -19.4834 105.573 -31.1577 83.1293 -23.0861Z" fill="url(#paint1_linear)"/>
<path d="M62.482 -6.24381L-1.61716 16.6973C-18.9142 22.9333 -27.896 42.0357 -21.686 59.363L-18.6113 67.9204L-13.4919 82.1979L8.12191 142.418C8.12191 142.418 14.4682 107.567 50.789 94.4878L93.1987 79.3606C110.496 73.1246 119.478 54.0222 113.268 36.6949L105.073 13.86C98.8483 -3.4672 79.7791 -12.4646 62.482 -6.24381Z" fill="url(#paint2_linear)"/>
<path d="M49.4015 10.19L2.00087 27.1547C-10.7901 31.7661 -17.432 45.8922 -12.8398 58.7055L-10.5661 65.0336L-6.78033 75.5916L9.2028 120.124C9.2028 120.124 13.8958 94.3515 40.7547 84.6799L72.1161 73.4935C84.9071 68.882 91.549 54.756 86.9568 41.9427L80.8973 25.0566C76.2939 12.2433 62.1925 5.58979 49.4015 10.19Z" fill="url(#paint3_linear)"/>
<path d="M39.6919 57.9506H39.5233L38.3709 60.5646L36.038 65.7363C35.8319 66.2234 35.6164 66.5514 35.3916 66.72C35.1854 66.8886 34.8669 66.973 34.4359 66.973H32.89C32.4216 66.973 32.0937 66.8886 31.9063 66.72C31.7376 66.5514 31.5409 66.2234 31.316 65.7363L29.5734 62.0824L27.8308 58.2879H27.6621V68.7156C27.6621 68.9779 27.6153 69.1372 27.5216 69.1934C27.4279 69.2496 27.2593 69.2777 27.0157 69.2777H24.1488C23.9426 69.2777 23.7834 69.2496 23.6709 69.1934C23.5585 69.1372 23.5023 68.9779 23.5023 68.7156V51.5422C23.5023 50.8302 23.6335 50.3243 23.8958 50.0245C24.1769 49.7246 24.6453 49.5747 25.3011 49.5747H26.9313C27.456 49.5747 27.8401 49.6778 28.0837 49.8839C28.3461 50.0713 28.5897 50.4086 28.8145 50.8958L31.8782 57.7539L33.6208 61.7451H33.7332L35.6445 57.3604L38.5114 50.952C38.7363 50.4461 38.9799 50.09 39.2422 49.8839C39.5233 49.6778 39.9636 49.5747 40.5632 49.5747H41.9405C42.5401 49.5747 42.9898 49.7059 43.2896 49.9682C43.5894 50.2118 43.7393 50.6896 43.7393 51.4017V68.7156C43.7393 68.9779 43.6925 69.1372 43.5988 69.1934C43.5051 69.2496 43.3365 69.2777 43.0929 69.2777H40.3103C40.1042 69.2777 39.9449 69.2496 39.8325 69.1934C39.7388 69.1372 39.6919 68.9779 39.6919 68.7156V57.9506ZM52.2309 68.6875C52.2309 68.9498 52.1841 69.1185 52.0904 69.1934C52.0154 69.2496 51.8374 69.2777 51.5564 69.2777H48.6051C48.3803 69.2777 48.2116 69.2403 48.0992 69.1653C48.0055 69.0716 47.9587 68.9123 47.9587 68.6875V51.2893C47.9587 50.7646 48.0711 50.3524 48.296 50.0526C48.5208 49.734 48.9705 49.5747 49.6451 49.5747H56.5313C57.5432 49.5747 58.4519 49.734 59.2577 50.0526C60.0822 50.3524 60.7755 50.774 61.3376 51.3174C61.9185 51.8608 62.3588 52.5072 62.6586 53.2568C62.9584 54.0063 63.1083 54.8307 63.1083 55.7302C63.1083 56.2174 63.0334 56.8263 62.8835 57.5571C62.7336 58.2692 62.4057 58.9718 61.8997 59.6651C61.4126 60.3397 60.6911 60.9206 59.7355 61.4078C58.7986 61.895 57.5432 62.1386 55.9692 62.1386H52.2309V68.6875ZM58.6955 56.0112C58.6955 55.7489 58.6581 55.4678 58.5831 55.168C58.5082 54.8495 58.3583 54.559 58.1334 54.2967C57.9273 54.0156 57.6368 53.7908 57.2621 53.6221C56.9061 53.4348 56.447 53.3411 55.8848 53.3411H52.2309V58.6814H55.9129C56.8686 58.6814 57.5713 58.4284 58.021 57.9225C58.4707 57.3979 58.6955 56.7608 58.6955 56.0112ZM80.5503 62.8693C80.5503 63.9749 80.3441 64.9493 79.9319 65.7925C79.5384 66.6357 78.9856 67.3384 78.2736 67.9005C77.5803 68.4626 76.7558 68.8936 75.8002 69.1934C74.8445 69.4745 73.8233 69.615 72.7365 69.615C71.5186 69.615 70.3006 69.4932 69.0826 69.2496C67.8834 68.9873 66.7497 68.4252 65.6817 67.5632C65.4193 67.3571 65.3631 67.1322 65.513 66.8886C65.588 66.7762 65.691 66.6169 65.8222 66.4108C65.9534 66.2047 66.0845 65.9892 66.2157 65.7644C66.3656 65.5395 66.5061 65.3334 66.6373 65.146C66.7685 64.9399 66.8715 64.7806 66.9465 64.6682C67.0776 64.4808 67.2088 64.3965 67.34 64.4152C67.4899 64.4152 67.6773 64.4902 67.9021 64.6401C68.5954 65.1273 69.3356 65.4739 70.1226 65.68C70.9283 65.8862 71.6872 65.9892 72.3992 65.9892C73.6734 65.9892 74.6478 65.7269 75.3224 65.2022C76.0157 64.6588 76.3623 63.9187 76.3623 62.9818C76.3623 62.1011 76.0719 61.4359 75.491 60.9862C74.9101 60.5365 74.1981 60.3116 73.3549 60.3116C72.9426 60.3116 72.5772 60.3397 72.2587 60.3959C71.9402 60.4521 71.631 60.5271 71.3312 60.6208C71.0501 60.6957 70.769 60.7988 70.488 60.93C70.2069 61.0424 69.9165 61.1642 69.6166 61.2954C69.3918 61.389 69.1295 61.4546 68.8297 61.4921C68.5298 61.5108 68.2488 61.4734 67.9864 61.3797L67.0027 61.0986C66.5717 60.9487 66.2813 60.752 66.1314 60.5084C66.0002 60.246 65.9534 59.8994 65.9908 59.4684L66.7216 52.4417C66.7966 51.7109 67.0121 51.1862 67.3681 50.8677C67.7241 50.5304 68.2019 50.3617 68.8015 50.3617H78.6109C78.8545 50.3617 79.0138 50.3898 79.0887 50.4461C79.1824 50.5023 79.2292 50.6803 79.2292 50.9801V53.2005C79.2292 53.4441 79.1824 53.6128 79.0887 53.7065C78.995 53.7814 78.8357 53.8189 78.6109 53.8189H70.4036L69.982 57.4728C70.6004 57.2667 71.2281 57.1355 71.8652 57.0793C72.5023 57.0044 73.1019 56.9669 73.6641 56.9669C74.6572 56.9669 75.5753 57.1074 76.4185 57.3885C77.2617 57.6508 77.9832 58.0349 78.5828 58.5409C79.2011 59.0468 79.6789 59.6651 80.0162 60.3959C80.3723 61.1267 80.5503 61.9512 80.5503 62.8693ZM90.9589 62.5321L87.5579 68.6313C87.3893 68.8936 87.23 69.0716 87.0801 69.1653C86.9302 69.2403 86.6772 69.2777 86.3212 69.2777H82.864C82.6954 69.2777 82.583 69.2215 82.5268 69.1091C82.4893 68.9779 82.508 68.8468 82.583 68.7156L88.5698 59.0468L83.0889 50.1088C82.9952 49.9963 82.9765 49.8839 83.0327 49.7715C83.0889 49.6403 83.2201 49.5747 83.4262 49.5747H86.7147C87.0895 49.5747 87.3424 49.6122 87.4736 49.6872C87.6235 49.7621 87.7734 49.9308 87.9233 50.1931L91.0151 55.674L94.0787 50.1931C94.2286 49.9308 94.3692 49.7621 94.5003 49.6872C94.6502 49.6122 94.9126 49.5747 95.2873 49.5747H98.5196C98.7258 49.5747 98.8476 49.6403 98.885 49.7715C98.9412 49.8839 98.9225 50.0057 98.8288 50.1369L93.4042 59.0187L99.391 68.7156C99.4659 68.8468 99.4753 68.9779 99.4191 69.1091C99.3628 69.2215 99.2598 69.2777 99.1099 69.2777H95.5965C95.2592 69.2777 95.0063 69.2403 94.8376 69.1653C94.6877 69.0716 94.5378 68.8936 94.3879 68.6313L90.9589 62.5321Z" fill="white"/>
</g>
<defs>
<linearGradient id="paint0_linear" x1="26.0267" y1="0.499999" x2="66.6614" y2="82.1575" gradientUnits="userSpaceOnUse">
<stop stop-color="#EF0134"/>
<stop offset="1" stop-color="#D7002E"/>
</linearGradient>
<linearGradient id="paint1_linear" x1="9.81203" y1="-25.6429" x2="78.0288" y2="100.753" gradientUnits="userSpaceOnUse">
<stop stop-color="#DA0532"/>
<stop offset="1" stop-color="#CA042F"/>
</linearGradient>
<linearGradient id="paint2_linear" x1="5.9763" y1="-8.2143" x2="58.551" y2="89.1994" gradientUnits="userSpaceOnUse">
<stop stop-color="#AF0026"/>
<stop offset="1" stop-color="#BD0029"/>
</linearGradient>
<linearGradient id="paint3_linear" x1="7.61615" y1="8.73285" x2="46.4945" y2="80.7691" gradientUnits="userSpaceOnUse">
<stop stop-color="#91001F"/>
<stop offset="1" stop-color="#A70024"/>
</linearGradient>
<clipPath id="clip0">
<rect width="122" height="122" fill="white" transform="translate(0 0.5)"/>
</clipPath>
</defs>
</svg>
