<svg width="38" height="38" viewBox="0 0 38 38" fill="none" xmlns="http://www.w3.org/2000/svg">
    <path fill-rule="evenodd" clip-rule="evenodd" d="M0 12.6666V6.33331H3.16667V12.6666C3.16667 13.0557 3.52307 13.834 5.07373 14.6093C6.52978 15.3373 8.65221 15.8333 11.0833 15.8333C13.5145 15.8333 15.6369 15.3373 17.0929 14.6093C18.6436 13.834 19 13.0557 19 12.6666V6.33331H22.1667V12.6666C22.1667 14.9012 20.3967 16.4979 18.5091 17.4417C16.5269 18.4327 13.8994 19 11.0833 19C8.26729 19 5.63972 18.4327 3.65756 17.4417C1.77001 16.4979 0 14.9012 0 12.6666Z" fill="white"/>
    <path fill-rule="evenodd" clip-rule="evenodd" d="M0 19V12.6667H3.16667V19C3.16667 19.3891 3.52307 20.1674 5.07373 20.9427C6.52978 21.6707 8.65221 22.1667 11.0833 22.1667C13.3332 22.1667 15.3249 21.7398 16.7702 21.0934L18.0631 23.9841C16.1454 24.8419 13.7007 25.3334 11.0833 25.3334C8.26729 25.3334 5.63972 24.7661 3.65756 23.775C1.77001 22.8313 0 21.2345 0 19Z" fill="white"/>
    <path fill-rule="evenodd" clip-rule="evenodd" d="M0 25.3333V19H3.16667V25.3333C3.16667 25.7224 3.52307 26.5007 5.07373 27.276C6.52978 28.004 8.65221 28.5 11.0833 28.5C13.3343 28.5 15.3272 28.0743 16.7697 27.4285L18.0636 30.3188C16.1463 31.1772 13.6995 31.6667 11.0833 31.6667C8.26729 31.6667 5.63972 31.0994 3.65756 30.1084C1.77001 29.1646 0 27.5679 0 25.3333Z" fill="white"/>
    <path fill-rule="evenodd" clip-rule="evenodd" d="M5.07391 4.39075C3.52306 5.16618 3.16667 5.94447 3.16667 6.33333C3.16667 6.7222 3.52306 7.50049 5.07391 8.27591C6.53005 9.00398 8.65249 9.5 11.0833 9.5C13.5142 9.5 15.6366 9.00398 17.0928 8.27591C18.6436 7.50049 19 6.7222 19 6.33333C19 5.94447 18.6436 5.16618 17.0928 4.39075C15.6366 3.66268 13.5142 3.16667 11.0833 3.16667C8.65249 3.16667 6.53005 3.66268 5.07391 4.39075ZM3.65773 1.5584C5.63991 0.567308 8.26747 0 11.0833 0C13.8992 0 16.5268 0.567308 18.5089 1.5584C20.3964 2.50214 22.1667 4.09885 22.1667 6.33333C22.1667 8.56782 20.3964 10.1645 18.5089 11.1083C16.5268 12.0994 13.8992 12.6667 11.0833 12.6667C8.26747 12.6667 5.63991 12.0994 3.65773 11.1083C1.77025 10.1645 0 8.56782 0 6.33333C0 4.09885 1.77025 2.50214 3.65773 1.5584Z" fill="white"/>
    <path fill-rule="evenodd" clip-rule="evenodd" d="M15.8333 25.3333V19H19V25.3333C19 25.7224 19.3564 26.5007 20.9071 27.276C22.3631 28.004 24.4855 28.5 26.9167 28.5C29.3478 28.5 31.4702 28.004 32.9263 27.276C34.4769 26.5007 34.8333 25.7224 34.8333 25.3333V19H38V25.3333C38 27.5679 36.23 29.1646 34.3424 30.1084C32.3603 31.0994 29.7327 31.6667 26.9167 31.6667C24.1006 31.6667 21.473 31.0994 19.4909 30.1084C17.6033 29.1646 15.8333 27.5679 15.8333 25.3333Z" fill="white"/>
    <path fill-rule="evenodd" clip-rule="evenodd" d="M15.8333 31.6667V25.3334H19V31.6667C19 32.0558 19.3564 32.834 20.9071 33.6094C22.3631 34.3374 24.4855 34.8334 26.9167 34.8334C29.3478 34.8334 31.4702 34.3374 32.9263 33.6094C34.4769 32.834 34.8333 32.0558 34.8333 31.6667V25.3334H38V31.6667C38 33.9012 36.23 35.498 34.3424 36.4417C32.3603 37.4328 29.7327 38 26.9167 38C24.1006 38 21.473 37.4328 19.4909 36.4417C17.6033 35.498 15.8333 33.9012 15.8333 31.6667Z" fill="white"/>
    <path fill-rule="evenodd" clip-rule="evenodd" d="M20.9072 17.0574C19.3564 17.8329 19 18.6112 19 19C19 19.3889 19.3564 20.1672 20.9072 20.9426C22.3634 21.6707 24.4858 22.1667 26.9167 22.1667C29.3475 22.1667 31.4699 21.6707 32.9261 20.9426C34.4769 20.1672 34.8333 19.3889 34.8333 19C34.8333 18.6112 34.4769 17.8329 32.9261 17.0574C31.4699 16.3294 29.3475 15.8334 26.9167 15.8334C24.4858 15.8334 22.3634 16.3294 20.9072 17.0574ZM19.4911 14.2251C21.4732 13.234 24.1008 12.6667 26.9167 12.6667C29.7325 12.6667 32.3601 13.234 34.3423 14.2251C36.2297 15.1688 38 16.7655 38 19C38 21.2345 36.2297 22.8312 34.3423 23.775C32.3601 24.766 29.7325 25.3334 26.9167 25.3334C24.1008 25.3334 21.4732 24.766 19.4911 23.775C17.6036 22.8312 15.8333 21.2345 15.8333 19C15.8333 16.7655 17.6036 15.1688 19.4911 14.2251Z" fill="white"/>
</svg>
