<svg width="47" height="46" viewBox="0 0 47 46" fill="none" xmlns="http://www.w3.org/2000/svg">
<g clip-path="url(#clip0)">
<path fill-rule="evenodd" clip-rule="evenodd" d="M0 7.62589C0 3.37806 3.37806 0 7.62589 0H38.3701C42.6179 0 45.996 3.37806 45.996 7.62589V12.6541C45.996 13.454 45.3476 14.1025 44.5477 14.1025C43.7478 14.1025 43.0994 13.454 43.0994 12.6541V7.62589C43.0994 4.97782 41.0182 2.89662 38.3701 2.89662H7.62589C4.97782 2.89662 2.89662 4.97782 2.89662 7.62589V38.3701C2.89662 41.0182 4.97782 43.0994 7.62589 43.0994H12.7978C13.5977 43.0994 14.2461 43.7478 14.2461 44.5477C14.2461 45.3476 13.5977 45.996 12.7978 45.996H7.62589C3.37806 45.996 0 42.6179 0 38.3701V7.62589Z" fill="white" stroke="white" stroke-width="0.3" stroke-linecap="round" stroke-linejoin="round"/>
<path fill-rule="evenodd" clip-rule="evenodd" d="M24.2164 34.0459C25.0176 34.0841 25.6361 34.7645 25.598 35.5657L24.1473 35.4966C25.598 35.5657 25.5979 35.5676 25.5979 35.5676L25.5978 35.5698L25.5975 35.5748L25.5968 35.5873L25.5946 35.6223C25.5927 35.65 25.5899 35.6863 25.5858 35.7306C25.5777 35.8192 25.5646 35.9403 25.5435 36.0893C25.5013 36.3867 25.427 36.7981 25.2968 37.2857C25.0371 38.2576 24.5483 39.5563 23.6275 40.8599C23.0748 41.6425 22.3809 42.4061 21.5166 43.0951H27.0206C27.8227 43.0951 28.4729 43.7454 28.4729 44.5474C28.4729 45.3495 27.8227 45.9998 27.0206 45.9998H11.7922C10.9901 45.9998 10.3398 45.3495 10.3398 44.5474C10.3398 43.7454 10.9901 43.0951 11.7922 43.0951C17.3247 43.0951 19.9524 41.0283 21.2551 39.1841C21.9325 38.225 22.2968 37.261 22.4906 36.5359C22.587 36.175 22.6396 35.8792 22.6676 35.6817C22.6815 35.5832 22.6893 35.5098 22.6933 35.4658C22.6953 35.4439 22.6964 35.4293 22.6968 35.4228L22.697 35.4198" fill="white" stroke="white" stroke-width="0.3" stroke-linecap="round" stroke-linejoin="round"/>
<path fill-rule="evenodd" clip-rule="evenodd" d="M6.10938 11.7915C6.10938 11.1128 6.65964 10.5625 7.33842 10.5625H35.784C36.4628 10.5625 37.013 11.1128 37.013 11.7915C37.013 12.4703 36.4628 13.0206 35.784 13.0206H7.33842C6.65964 13.0206 6.10938 12.4703 6.10938 11.7915Z" fill="white" stroke="white" stroke-width="0.3" stroke-linecap="round" stroke-linejoin="round"/>
<path fill-rule="evenodd" clip-rule="evenodd" d="M6.28125 16.6765C6.28125 16.0925 6.75465 15.6191 7.33861 15.6191H21.1304C21.7144 15.6191 22.1878 16.0925 22.1878 16.6765C22.1878 17.2605 21.7144 17.7339 21.1304 17.7339H7.33861C6.75465 17.7339 6.28125 17.2605 6.28125 16.6765Z" fill="white" stroke="white" stroke-width="0.3" stroke-linecap="round" stroke-linejoin="round"/>
<path fill-rule="evenodd" clip-rule="evenodd" d="M37.2871 36.7383C37.9072 36.2385 38.815 36.336 39.3148 36.9561L44.9386 43.9335C45.4383 44.5536 45.3408 45.4614 44.7208 45.9611C44.1007 46.4609 43.1929 46.3634 42.6931 45.7433L37.0693 38.7659C36.5696 38.1458 36.6671 37.238 37.2871 36.7383Z" fill="white" stroke="white" stroke-width="0.3" stroke-linecap="round" stroke-linejoin="round"/>
<path fill-rule="evenodd" clip-rule="evenodd" d="M21.1908 28.3072C22.0333 22.437 27.7145 18.4738 33.6252 19.2682C39.5902 20.07 43.7735 25.531 42.9357 31.3683C42.0932 37.2386 36.412 41.2018 30.5013 40.4073C24.5362 39.6056 20.353 34.1445 21.1908 28.3072ZM33.241 22.1265C28.7694 21.5255 24.645 24.5397 24.0455 28.7169C23.4413 32.9271 26.4681 36.9553 30.8854 37.549C35.3571 38.1501 39.4814 35.1359 40.081 30.9586C40.6852 26.7485 37.6584 22.7202 33.241 22.1265Z" fill="white" stroke="white" stroke-width="0.3" stroke-linecap="round" stroke-linejoin="round"/>
</g>
<defs>
<clipPath id="clip0">
<rect width="47" height="46" fill="white"/>
</clipPath>
</defs>
</svg>
