<?xml version="1.0" encoding="utf-8"?>
<svg xmlns="http://www.w3.org/2000/svg" xmlns:xlink="http://www.w3.org/1999/xlink">
    <symbol fill="none" viewBox="0 0 16 9" id="angle-down" xmlns="http://www.w3.org/2000/svg">
        <path fill-rule="evenodd" clip-rule="evenodd"
              d="M.863.863c.26-.26.683-.26.943 0l6.195 6.195L14.197.863a.667.667 0 11.942.943L8.473 8.473a.667.667 0 01-.943 0L.863 1.806a.667.667 0 010-.943z"
              fill="#576C8A"/>
    </symbol>
    <symbol fill="none" viewBox="0 0 24 24" id="arrow-circle-right" xmlns="http://www.w3.org/2000/svg">
        <path fill-rule="evenodd" clip-rule="evenodd"
              d="M12 2C6.477 2 2 6.477 2 12s4.477 10 10 10 10-4.477 10-10S17.523 2 12 2zM0 12C0 5.373 5.373 0 12 0s12 5.373 12 12-5.373 12-12 12S0 18.627 0 12z"
              fill="#576C8A"/>
        <path fill-rule="evenodd" clip-rule="evenodd"
              d="M9.293 7.293a1 1 0 011.414 0l4 4a1 1 0 010 1.414l-4 4a1 1 0 01-1.414-1.414L12.586 12 9.293 8.707a1 1 0 010-1.414z"
              fill="#576C8A"/>
    </symbol>
    <symbol fill="none" viewBox="0 0 6 12" id="arrow-left-small" xmlns="http://www.w3.org/2000/svg">
        <path d="M1.645 6l2.713-4.32M1.645 6l2.713 4.319" stroke="#576C8A" stroke-width="2" stroke-linecap="round"
              stroke-linejoin="round"/>
    </symbol>
    <symbol fill="none" viewBox="0 0 20 20" id="bank" xmlns="http://www.w3.org/2000/svg">
        <path fill-rule="evenodd" clip-rule="evenodd"
              d="M10 .719l10 5.454v3.828H0V6.173L10 .72zM1.667 7.163v1.172h16.666V7.163L10 2.617 1.667 7.163zm1.668 3.673v6.667H1.668v-6.667h1.667zm5 0v6.667H6.668v-6.667h1.667zm5 0v6.667h-1.667v-6.667h1.667zm5 0v6.667h-1.667v-6.667h1.667zM0 18.336h20v1.667H0v-1.667z"
              fill="#576C8A"/>
        <path d="M10.001 6.667a.833.833 0 100-1.667.833.833 0 000 1.667z" fill="#576C8A"/>
    </symbol>
    <symbol fill="none" viewBox="0 0 22 22" id="close" xmlns="http://www.w3.org/2000/svg">
        <path fill-rule="evenodd" clip-rule="evenodd"
              d="M1.325 1.616c.456-.455 1.181-.468 1.62-.029l16.971 16.97c.44.44.426 1.165-.03 1.621-.455.456-1.18.469-1.62.03L1.296 3.236c-.44-.44-.427-1.165.029-1.62z"
              fill="#576C8A"/>
        <path fill-rule="evenodd" clip-rule="evenodd"
              d="M1.617 19.887c-.456-.455-.469-1.18-.03-1.62l16.971-16.97c.44-.44 1.165-.427 1.62.029.456.456.47 1.181.03 1.62l-16.97 16.97c-.44.44-1.165.427-1.621-.029z"
              fill="#576C8A"/>
    </symbol>
    <symbol fill="none" viewBox="0 0 20 17" id="cmt" xmlns="http://www.w3.org/2000/svg">
        <path d="M6.25 9a1.25 1.25 0 100-2.5 1.25 1.25 0 000 2.5zm0 1.25a2.5 2.5 0 012.5 2.5h-5a2.5 2.5 0 012.5-2.5z"
              fill="#576C8A"/>
        <path fill-rule="evenodd" clip-rule="evenodd"
              d="M9.793 8.376c0-.46.373-.833.833-.833h5a.833.833 0 010 1.667h-5a.833.833 0 01-.833-.834zm1.25 3.75c0-.46.373-.833.833-.833h3.75a.833.833 0 010 1.667h-3.75a.833.833 0 01-.833-.834z"
              fill="#576C8A"/>
        <path fill-rule="evenodd" clip-rule="evenodd"
              d="M.403.653c.39-.39.92-.61 1.473-.61h2.5c.46 0 .834.373.834.833v.625a1.042 1.042 0 102.083 0V.876c0-.46.373-.833.833-.833h3.75c.46 0 .834.373.834.833v.625a1.042 1.042 0 002.083 0V.876c0-.46.373-.833.833-.833h2.5a2.083 2.083 0 012.084 2.083v12.5a2.083 2.083 0 01-2.084 2.084H1.876a2.083 2.083 0 01-2.083-2.084v-12.5c0-.552.22-1.082.61-1.473zM1.876 1.71a.417.417 0 00-.416.416v12.5a.417.417 0 00.416.417h16.25a.416.416 0 00.417-.417v-12.5a.416.416 0 00-.417-.416h-1.674a2.708 2.708 0 01-5.401 0h-2.1a2.708 2.708 0 01-5.4 0H1.876z"
              fill="#576C8A"/>
    </symbol>
    <symbol fill="none" viewBox="0 0 20 17" id="cmt-2" xmlns="http://www.w3.org/2000/svg">
        <path d="M6.25 9a1.25 1.25 0 100-2.5 1.25 1.25 0 000 2.5zm0 1.25a2.5 2.5 0 012.5 2.5h-5a2.5 2.5 0 012.5-2.5z"
              fill="#576C8A"/>
        <path fill-rule="evenodd" clip-rule="evenodd"
              d="M9.793 8.376c0-.46.373-.833.833-.833h5a.833.833 0 010 1.667h-5a.833.833 0 01-.833-.834zm1.25 3.75c0-.46.373-.833.833-.833h3.75a.833.833 0 010 1.667h-3.75a.833.833 0 01-.833-.834z"
              fill="#576C8A"/>
        <path fill-rule="evenodd" clip-rule="evenodd"
              d="M.403.653c.39-.39.92-.61 1.473-.61h2.5c.46 0 .834.373.834.833v.625a1.042 1.042 0 102.083 0V.876c0-.46.373-.833.833-.833h3.75c.46 0 .834.373.834.833v.625a1.042 1.042 0 002.083 0V.876c0-.46.373-.833.833-.833h2.5a2.083 2.083 0 012.084 2.083v12.5a2.083 2.083 0 01-2.084 2.084H1.876a2.083 2.083 0 01-2.083-2.084v-12.5c0-.552.22-1.082.61-1.473zM1.876 1.71a.417.417 0 00-.416.416v12.5a.417.417 0 00.416.417h16.25a.416.416 0 00.417-.417v-12.5a.416.416 0 00-.417-.416h-1.674a2.708 2.708 0 01-5.401 0h-2.1a2.708 2.708 0 01-5.4 0H1.876z"
              fill="#576C8A"/>
    </symbol>
    <symbol fill="none" viewBox="0 0 19 16" id="comment" xmlns="http://www.w3.org/2000/svg">
        <g clip-path="url(#ahclip0)" stroke="#576C8A" stroke-miterlimit="10" stroke-linecap="round">
            <path d="M4.227 3.797h10.547M4.227 6.746h10.547m3.551 3.864H6.108L.675 15.356V.644h17.65v9.966z"/>
        </g>
        <defs>
            <clipPath id="ahclip0">
                <path fill="#fff" d="M0 0h19v16H0z"/>
            </clipPath>
        </defs>
    </symbol>
    <symbol fill="none" viewBox="0 0 20 20" id="date" xmlns="http://www.w3.org/2000/svg">
        <path fill-rule="evenodd" clip-rule="evenodd"
              d="M3.332 10.001c0-.46.373-.833.833-.833h1.667c.46 0 .833.373.833.833v.834c0 .46-.373.833-.833.833H4.165a.833.833 0 01-.833-.833V10zm5 0c0-.46.373-.833.833-.833h1.667c.46 0 .833.373.833.833v.834c0 .46-.373.833-.833.833H9.165a.833.833 0 01-.833-.833V10zm-5 4.164c0-.46.373-.833.833-.833h1.667c.46 0 .833.373.833.833V15c0 .46-.373.833-.833.833H4.165A.833.833 0 013.332 15v-.834zm5 0c0-.46.373-.833.833-.833h1.667c.46 0 .833.373.833.833V15c0 .46-.373.833-.833.833H9.165A.833.833 0 018.332 15v-.834zm5-4.164c0-.46.373-.833.833-.833h1.667c.46 0 .833.373.833.833v.834c0 .46-.373.833-.833.833h-1.667a.833.833 0 01-.833-.833V10z"
              fill="#576C8A"/>
        <path d="M5.833 10H4.166v.833h1.667V10zm5 0H9.166v.833h1.667V10zm-4.998 4.168H4.168v.833h1.667v-.833zm5 0H9.168v.833h1.667v-.833zM15.833 10h-1.667v.833h1.667V10z"
              fill="#576C8A"/>
        <path fill-rule="evenodd" clip-rule="evenodd"
              d="M0 3.333c0-.46.373-.833.833-.833h18.334c.46 0 .833.373.833.833v15c0 .46-.373.834-.833.834H.833A.833.833 0 010 18.333v-15zm1.667.834V17.5h16.666V4.167H1.667z"
              fill="#576C8A"/>
        <path fill-rule="evenodd" clip-rule="evenodd"
              d="M14.167 0c.46 0 .834.373.834.833v2.5a.833.833 0 01-1.667 0v-2.5c0-.46.373-.833.833-.833zM5.833 0c.46 0 .834.373.834.833v2.5a.833.833 0 01-1.667 0v-2.5C5 .373 5.373 0 5.833 0zM0 6.665c0-.46.373-.833.833-.833h18.334a.833.833 0 010 1.667H.833A.833.833 0 010 6.665z"
              fill="#576C8A"/>
    </symbol>
    <symbol fill="none" viewBox="0 0 20 20" id="date-checked" xmlns="http://www.w3.org/2000/svg">
        <path fill-rule="evenodd" clip-rule="evenodd"
              d="M13.924 9.412a.833.833 0 010 1.179l-4.167 4.166a.833.833 0 01-1.178 0l-1.667-1.666a.833.833 0 011.179-1.179l1.077 1.077 3.577-3.577a.833.833 0 011.179 0z"
              fill="#576C8A"/>
        <path fill-rule="evenodd" clip-rule="evenodd"
              d="M0 3.333c0-.46.373-.833.833-.833h18.334c.46 0 .833.373.833.833v15c0 .46-.373.834-.833.834H.833A.833.833 0 010 18.333v-15zm1.667.834V17.5h16.666V4.167H1.667z"
              fill="#576C8A"/>
        <path fill-rule="evenodd" clip-rule="evenodd"
              d="M14.167 0c.46 0 .834.373.834.833v2.5a.833.833 0 01-1.667 0v-2.5c0-.46.373-.833.833-.833zM5.833 0c.46 0 .834.373.834.833v2.5a.833.833 0 01-1.667 0v-2.5C5 .373 5.373 0 5.833 0zM0 6.665c0-.46.373-.833.833-.833h18.334a.833.833 0 010 1.667H.833A.833.833 0 010 6.665z"
              fill="#576C8A"/>
    </symbol>
    <symbol fill="none" viewBox="0 0 24 24" id="evelope" xmlns="http://www.w3.org/2000/svg">
        <path fill-rule="evenodd" clip-rule="evenodd"
              d="M1 12a1 1 0 011 1v6a1 1 0 001 1h18a1 1 0 001-1v-6a1 1 0 112 0v6a3 3 0 01-3 3H3a3 3 0 01-3-3v-6a1 1 0 011-1z"
              fill="#EE0033"/>
        <path fill-rule="evenodd" clip-rule="evenodd"
              d="M.879 2.879A3 3 0 013 2h18a3 3 0 013 3v3a1 1 0 01-.521.878l-11 6a1 1 0 01-.958 0l-11-6A1 1 0 010 8V5a3 3 0 01.879-2.121zM3 4a1 1 0 00-1 1v2.406l10 5.455 10-5.455V5a1 1 0 00-1-1H3z"
              fill="#EE0033"/>
    </symbol>
    <symbol fill="none" viewBox="0 0 15 13" id="eye" xmlns="http://www.w3.org/2000/svg">
        <path fill-rule="evenodd" clip-rule="evenodd"
              d="M1.01 6.3a11.77 11.77 0 001.614 1.894c1.12 1.056 2.654 2.044 4.442 2.044 1.79 0 3.322-.988 4.442-2.044A11.776 11.776 0 0013.122 6.3a11.776 11.776 0 00-1.614-1.894c-1.12-1.055-2.653-2.043-4.442-2.043-1.788 0-3.321.988-4.441 2.043A11.77 11.77 0 001.011 6.3zm12.62 0l.383-.189-.003-.004-.007-.011c-.005-.01-.014-.023-.025-.04a11.037 11.037 0 00-.46-.654 12.582 12.582 0 00-1.377-1.54c-1.177-1.11-2.926-2.287-5.075-2.287-2.148 0-3.897 1.178-5.074 2.288A12.578 12.578 0 00.25 5.91a7.218 7.218 0 00-.12.185l-.007.01-.002.004-.001.001.384.19-.384-.19a.36.36 0 000 .378L.504 6.3l-.384.19v.001l.003.004.007.01a4.302 4.302 0 00.12.186 12.578 12.578 0 001.742 2.048c1.177 1.11 2.926 2.287 5.074 2.287 2.15 0 3.898-1.177 5.075-2.287a12.582 12.582 0 001.742-2.048c.042-.062.074-.111.095-.145.011-.018.02-.03.025-.04l.007-.011.002-.004h.001l-.384-.19zm0 0l.383.19a.36.36 0 000-.379l-.384.19z"
              fill="#627592"/>
        <path fill-rule="evenodd" clip-rule="evenodd"
              d="M7.066 4.726c-.966 0-1.75.705-1.75 1.575s.784 1.575 1.75 1.575c.967 0 1.75-.706 1.75-1.575 0-.87-.783-1.575-1.75-1.575zM4.441 6.3c0-1.305 1.176-2.363 2.625-2.363 1.45 0 2.625 1.058 2.625 2.363 0 1.304-1.175 2.362-2.625 2.362S4.441 7.605 4.441 6.301z"
              fill="#627592"/>
    </symbol>
    <symbol fill="none" viewBox="0 0 24 24" id="face" xmlns="http://www.w3.org/2000/svg">
        <path d="M8.813 13.297v8.484h4.218v-8.484h3.563l.703-4.219H13.03v-2.86h4.266V2H13.03a4.223 4.223 0 00-4.219 4.219v2.86H6v4.218h2.813z"
              fill="#EE0033"/>
    </symbol>
    <symbol fill="none" viewBox="0 0 32 49" id="faq-0" xmlns="http://www.w3.org/2000/svg">
        <path d="M2.195 43.638V5.362c0-1.745.979-3.162 1.957-3.162h23.804c1.087 0 1.957 1.526 1.957 3.162v38.276c0 1.745-.979 3.163-1.957 3.163H4.152c-1.087 0-1.957-1.418-1.957-3.163zM2.413 36h27.5"
              stroke="var(--main-color)" stroke-width="4" stroke-linecap="round" stroke-linejoin="round"/>
        <path class="ansub-color" d="M14.804 41.438h2.608" stroke="var(--sub-color)" stroke-width="4"
              stroke-linecap="round" stroke-linejoin="round"/>
    </symbol>
    <symbol fill="none" viewBox="0 0 47 54" id="faq-1" xmlns="http://www.w3.org/2000/svg">
        <path d="M41.951 42H5.05C3.367 42 2 40.96 2 39.815v-26.63C2 11.936 3.472 11 5.049 11H41.95c1.683 0 3.05 1.04 3.05 2.185v26.63C45 41.064 43.633 42 41.951 42zM23 41.975v8.208m-10 1.592h20.98"
              stroke="var(--main-color)" stroke-width="4" stroke-linecap="round" stroke-linejoin="round"/>
        <path class="aosub-color" d="M18 31.357v-11.27l10.55 5.635L18 31.357z" stroke="var(--sub-color)"
              stroke-width="4" stroke-linecap="round" stroke-linejoin="round"/>
        <path d="M18 3l5 6m6-6l-5 6" stroke="var(--main-color)" stroke-width="4" stroke-linecap="round"
              stroke-linejoin="round"/>
    </symbol>
    <symbol fill="none" viewBox="0 0 39 39" id="faq-2" xmlns="http://www.w3.org/2000/svg">
        <path d="M4.461 2.193h9.19c1.313 0 2.268 1.075 2.268 2.268v9.19c0 1.313-1.074 2.268-2.268 2.268h-9.19c-1.313 0-2.268-1.074-2.268-2.268v-9.19c0-1.193 1.075-2.268 2.268-2.268z"
              stroke="var(--main-color)" stroke-width="4" stroke-linecap="round" stroke-linejoin="round"/>
        <path class="apsub-color"
              d="M31.196 2.79l5.133 5.132c.716.716.716 1.79 0 2.507l-5.133 5.132c-.716.716-1.79.716-2.506 0l-5.132-5.132c-.716-.716-.716-1.79 0-2.507L28.69 2.79c.597-.716 1.79-.716 2.506 0z"
              stroke="var(--sub-color)" stroke-width="4" stroke-linecap="round" stroke-linejoin="round"/>
        <path d="M4.461 22.96h9.19c1.313 0 2.268 1.075 2.268 2.269v9.19c0 1.313-1.074 2.268-2.268 2.268h-9.19c-1.313 0-2.268-1.075-2.268-2.268v-9.19c0-1.194 1.075-2.268 2.268-2.268zm20.768 0h9.19c1.313 0 2.268 1.075 2.268 2.269v9.19c0 1.313-1.074 2.268-2.268 2.268h-9.19c-1.313 0-2.268-1.075-2.268-2.268v-9.19c0-1.194 1.074-2.268 2.268-2.268z"
              stroke="var(--main-color)" stroke-width="4" stroke-linecap="round" stroke-linejoin="round"/>
    </symbol>
    <symbol fill="none" viewBox="0 0 59 41" id="faq-3" xmlns="http://www.w3.org/2000/svg">
        <path d="M22.153 38.49L2.743 4.948c-.63-1.01.09-2.386 1.258-2.386h7.054c3.415 0 6.56 1.743 8.447 4.634l9.974 17.436"
              stroke="var(--main-color)" stroke-width="4" stroke-linecap="round" stroke-linejoin="round"/>
        <path class="aqsub-color"
              d="M22.38 38.49h14.152a.47.47 0 00.405-.23L56.212 4.948c.673-1.01-.045-2.386-1.259-2.386H47.9c-3.414 0-6.56 1.743-8.446 4.634L21.93 37.756a.496.496 0 00.45.734z"
              stroke="var(--sub-color)" stroke-width="4" stroke-linecap="round" stroke-linejoin="round"/>
    </symbol>
    <symbol fill="none" viewBox="0 0 53 54" id="faq-4" xmlns="http://www.w3.org/2000/svg">
        <path d="M33.484 26.34h-4.548c-.974 0-1.462-.329-1.462-1.48V18.935c-.65-3.29-3.085-5.43-6.659-5.265-3.086.164-5.685 2.961-5.847 6.253v4.607c0 1.317-.325 1.646-1.624 1.646H8.796c-.487 0-.974 0-1.3.164-3.248.659-5.522 4.114-4.71 7.405.65 2.963 3.087 5.102 6.335 5.102h4.548c.812 0 1.461.658 1.461 1.48v2.963c0 .987-.162 1.974.163 2.962.487 2.797 2.924 4.936 5.522 5.101 3.411.33 5.847-1.975 6.66-4.443.162-.494.162-1.152.162-1.646v-4.607c0-1.152.325-1.646 1.624-1.646h4.385c.65 0 1.3 0 1.787-.164 2.924-.823 5.035-3.785 4.548-7.076-.65-3.127-3.411-5.43-6.497-5.43z"
              stroke="var(--main-color)" stroke-width="4" stroke-linecap="round" stroke-linejoin="round"/>
        <path class="arsub-color"
              d="M47.614 8.733h-2.436c-.487 0-.65-.165-.812-.658V5.113c-.325-1.81-1.95-2.962-3.573-2.633-1.3.164-2.6 1.645-2.6 2.962v1.975c0 .822-.649 1.48-1.461 1.48h-1.787c-.324 0-.65 0-.974.165-1.624.494-2.599 2.14-2.274 3.456.325 1.645 1.624 2.797 3.086 2.797h2.274c.487 0 .65.165.65.659V19.1c.324 1.481 1.461 2.633 2.76 2.633 1.787.165 2.924-.987 3.25-2.304 0-.329.162-.493.162-.822v-1.81c0-.823.65-1.482 1.461-1.482h1.624c.325 0 .65 0 .975-.164 1.624-.494 2.599-1.975 2.274-3.456.162-1.81-.975-2.962-2.599-2.962z"
              stroke="var(--sub-color)" stroke-width="4" stroke-linecap="round" stroke-linejoin="round"/>
    </symbol>
    <symbol fill="none" viewBox="0 0 24 25" id="goup-user" xmlns="http://www.w3.org/2000/svg">
        <g clip-path="url(#asclip0)" fill-rule="evenodd" clip-rule="evenodd" fill="#576C8A" stroke="#576C8A"
           stroke-width=".5" stroke-miterlimit="10" stroke-linecap="round" stroke-linejoin="round">
            <path d="M1.059 20.999a3.706 3.706 0 013.705-3.706h3.177a3.706 3.706 0 013.706 3.706v.53a.53.53 0 01-.368.503l-.162-.504.162.505h-.004l-.005.002-.02.006a6.98 6.98 0 01-.315.084 12.89 12.89 0 01-.947.19c-.83.137-2.05.272-3.635.272-1.586 0-2.806-.135-3.635-.272a12.893 12.893 0 01-.948-.19 7.032 7.032 0 01-.315-.084l-.02-.006-.005-.001-.002-.001h0l.16-.505-.161.505a.53.53 0 01-.368-.505v-.53zm1.058.12c.188.044.446.098.773.152.775.127 1.938.257 3.463.257 1.525 0 2.687-.13 3.462-.257.327-.054.585-.108.773-.151v-.121a2.647 2.647 0 00-2.647-2.647H4.764a2.647 2.647 0 00-2.647 2.647v.12zm4.235-10.177c-1.17 0-2.117.948-2.117 2.117 0 .6.248 1.28.662 1.81.417.531.94.837 1.455.837.516 0 1.039-.306 1.455-.837.415-.53.663-1.21.663-1.81a2.117 2.117 0 00-2.118-2.117zm-3.176 2.117a3.177 3.177 0 016.353 0c0 .863-.345 1.77-.888 2.463-.542.692-1.343 1.243-2.289 1.243-.946 0-1.746-.551-2.288-1.243-.544-.693-.888-1.6-.888-2.463z"/>
        </g>
        <g clip-path="url(#asclip1)" fill-rule="evenodd" clip-rule="evenodd" fill="#576C8A" stroke="#576C8A"
           stroke-width=".5" stroke-miterlimit="10" stroke-linecap="round" stroke-linejoin="round">
            <path d="M12.352 20.999a3.706 3.706 0 013.706-3.706h3.177a3.706 3.706 0 013.706 3.706v.53a.53.53 0 01-.368.503l-.162-.504.162.505h-.004l-.005.002-.02.006a7.021 7.021 0 01-.315.084c-.216.053-.533.122-.948.19-.829.137-2.049.272-3.634.272-1.586 0-2.806-.135-3.635-.272a12.895 12.895 0 01-.948-.19 7.021 7.021 0 01-.315-.084l-.02-.006-.005-.001-.002-.001h0l.16-.505-.161.505a.53.53 0 01-.369-.505v-.53zm1.06.12c.187.044.445.098.772.152.775.127 1.938.257 3.463.257 1.525 0 2.687-.13 3.462-.257.327-.054.585-.108.773-.151v-.121a2.647 2.647 0 00-2.647-2.647h-3.177a2.647 2.647 0 00-2.647 2.647v.12zm4.234-10.177c-1.17 0-2.117.948-2.117 2.117 0 .6.248 1.28.662 1.81.417.531.94.837 1.455.837.516 0 1.039-.306 1.455-.837.415-.53.663-1.21.663-1.81a2.117 2.117 0 00-2.118-2.117zm-3.176 2.117a3.177 3.177 0 016.353 0c0 .863-.345 1.77-.888 2.463-.542.692-1.343 1.243-2.289 1.243-.946 0-1.746-.551-2.288-1.243-.544-.693-.888-1.6-.888-2.463z"/>
        </g>
        <g clip-path="url(#asclip2)" fill-rule="evenodd" clip-rule="evenodd" fill="#576C8A" stroke="#576C8A"
           stroke-width=".5" stroke-miterlimit="10" stroke-linecap="square">
            <path d="M12 2.351c-1.623 0-3.294 1.2-3.294 3.294 0 .464.194 1.054.535 1.713.336.649.79 1.318 1.252 1.927A24.563 24.563 0 0012 11.079l.238-.262c.347-.387.809-.925 1.27-1.532.461-.61.915-1.278 1.25-1.927.342-.66.536-1.25.536-1.713 0-2.095-1.671-3.294-3.294-3.294zm0 9.412l-.335.33-.003-.003-.01-.009-.032-.034-.124-.129a25.519 25.519 0 01-1.754-2.065c-.479-.632-.967-1.348-1.336-2.062-.365-.705-.641-1.456-.641-2.146C7.765 2.941 9.952 1.41 12 1.41c2.048 0 4.235 1.53 4.235 4.235 0 .69-.276 1.441-.64 2.146-.37.714-.858 1.43-1.338 2.062a25.525 25.525 0 01-1.877 2.194l-.033.034-.009.01-.003.002-.335-.33zm0 0l.335.33-.335.34-.335-.34.335-.33z"/>
            <path d="M12 4.703a.941.941 0 100 1.882.941.941 0 000-1.882zm-1.883.941a1.882 1.882 0 113.765 0 1.882 1.882 0 01-3.765 0z"/>
        </g>
        <defs>
            <clipPath id="asclip0">
                <path fill="#fff" transform="translate(0 9.602)" d="M0 0h12.71v14.4H0z"/>
            </clipPath>
            <clipPath id="asclip1">
                <path fill="#fff" transform="translate(11.294 9.602)" d="M0 0h12.71v14.4H0z"/>
            </clipPath>
            <clipPath id="asclip2">
                <path fill="#fff" transform="translate(6.353)" d="M0 0h11.29v12.8H0z"/>
            </clipPath>
        </defs>
    </symbol>
    <symbol fill="none" viewBox="0 0 24 24" id="headphone" xmlns="http://www.w3.org/2000/svg">
        <path fill-rule="evenodd" clip-rule="evenodd"
              d="M3 19v-1.416h2V19a3 3 0 003 3h4v2H8a5 5 0 01-5-5zm8-17a6 6 0 00-6 6v.406H3V8a8 8 0 018-8h2a8 8 0 018 8v.422h-2V8a6 6 0 00-6-6h-2z"
              fill="#EE0033"/>
        <path fill-rule="evenodd" clip-rule="evenodd"
              d="M0 13a6 6 0 017.2-5.879l.8.164v11.43l-.8.164A6 6 0 010 13zm6-4a4 4 0 000 8V9zm10.8-1.879a6 6 0 110 11.758l-.8-.164V7.285l.8-.164zM18 9v8a4 4 0 000-8z"
              fill="#EE0033"/>
    </symbol>
    <symbol fill="none" viewBox="0 0 28 27" id="heart" xmlns="http://www.w3.org/2000/svg">
        <path fill-rule="evenodd" clip-rule="evenodd"
              d="M0 8.167C0 3.672 3.672 0 8.167 0c2.32 0 4.358.982 5.833 2.488C15.475.982 17.513 0 19.833 0 24.328 0 28 3.672 28 8.167c0 2.072-.935 4.264-2.176 6.296-1.258 2.057-2.917 4.088-4.547 5.867a70.724 70.724 0 01-4.487 4.45 68.123 68.123 0 01-2.01 1.755l-.03.025-.008.007-.002.002-.74-.902c-.739.903-.739.902-.74.902l-.002-.002-.008-.007-.03-.025a26.784 26.784 0 01-.53-.447 68.123 68.123 0 01-1.48-1.308 70.724 70.724 0 01-4.487-4.45c-1.63-1.78-3.29-3.81-4.547-5.867C.936 12.431 0 10.239 0 8.166zm14 17.5l-.74.902c.43.352 1.049.352 1.479 0L14 25.668zm0-1.53c.323-.28.739-.646 1.22-1.084a68.406 68.406 0 004.337-4.3c1.577-1.72 3.127-3.627 4.276-5.507 1.165-1.907 1.834-3.651 1.834-5.08 0-3.205-2.628-5.833-5.834-5.833-2.022 0-3.78 1.057-4.872 2.645a1.167 1.167 0 01-1.922 0c-1.092-1.588-2.85-2.645-4.872-2.645-3.206 0-5.834 2.628-5.834 5.834 0 1.428.67 3.172 1.834 5.079 1.15 1.88 2.699 3.786 4.276 5.507A68.393 68.393 0 0014 24.137z"
              fill="#576C8A"/>
    </symbol>
    <symbol fill="none" viewBox="0 0 32 32" id="icon-box-ktdh" xmlns="http://www.w3.org/2000/svg">
        <path fill-rule="evenodd" clip-rule="evenodd"
              d="M7.474 3.737a1.333 1.333 0 011.789-.596l16 8a1.333 1.333 0 11-1.193 2.385l-16-8a1.333 1.333 0 01-.596-1.789z"
              fill="#b70d02"/>
        <path fill-rule="evenodd" clip-rule="evenodd"
              d="M.141 7.403a1.333 1.333 0 011.789-.596l15.404 7.702L30.07 8.14a1.333 1.333 0 111.192 2.385L17.93 17.192a1.333 1.333 0 01-1.193 0l-16-8a1.333 1.333 0 01-.596-1.789z"
              fill="#b70d02"/>
        <path fill-rule="evenodd" clip-rule="evenodd"
              d="M17.333 14.667c.737 0 1.334.597 1.334 1.333v14.667a1.333 1.333 0 01-2.667 0V16c0-.736.597-1.333 1.333-1.333z"
              fill="#b70d02"/>
        <path fill-rule="evenodd" clip-rule="evenodd"
              d="M14.07.14a1.333 1.333 0 011.193 0l16 8c.452.227.737.688.737 1.193v13.334c0 .468-.246.902-.647 1.143l-13.334 8c-.39.235-.874.253-1.282.05l-16-8A1.333 1.333 0 010 22.666V8c0-.505.285-.967.737-1.193L14.07.141zM2.667 8.825v13.019l14.608 7.304 12.058-7.235V10.157L14.667 2.824l-12 6z"
              fill="#b70d02"/>
    </symbol>
    <symbol fill="none" viewBox="0 0 32 32" id="icon-checked-ktdh" xmlns="http://www.w3.org/2000/svg">
        <path fill-rule="evenodd" clip-rule="evenodd"
              d="M25.886 10.667L13.332 23.219 6.114 16 8 14.115l5.333 5.333L24 8.78l1.886 1.886z" fill="#E7E7E7"/>
        <path fill-rule="evenodd" clip-rule="evenodd"
              d="M16 2.667C8.636 2.667 2.667 8.637 2.667 16c0 7.364 5.97 13.333 13.333 13.333 7.364 0 13.333-5.97 13.333-13.333 0-7.364-5.97-13.333-13.333-13.333zM0 16C0 7.163 7.163 0 16 0s16 7.163 16 16-7.163 16-16 16S0 24.837 0 16z"
              fill="#E7E7E7"/>
    </symbol>
    <symbol fill="none" viewBox="0 0 30 32" id="icon-note-checked" xmlns="http://www.w3.org/2000/svg">
        <path fill-rule="evenodd" clip-rule="evenodd"
              d="M.333 2.666c0-.736.597-1.333 1.333-1.333h6.667a1.333 1.333 0 110 2.667H3v25.333h24V4h-5.334a1.333 1.333 0 010-2.667h6.667c.736 0 1.333.597 1.333 1.333v28c0 .737-.597 1.334-1.333 1.334H1.666a1.333 1.333 0 01-1.333-1.334v-28z"
              fill="#EE0033"/>
        <path fill-rule="evenodd" clip-rule="evenodd"
              d="M19.942 16.39c.52.521.52 1.365 0 1.886L14.61 23.61c-.52.52-1.365.52-1.886 0l-2.667-2.667a1.333 1.333 0 011.886-1.886l1.724 1.724 4.39-4.39a1.333 1.333 0 011.886 0z"
              fill="#FE9A00"/>
        <path fill-rule="evenodd" clip-rule="evenodd"
              d="M7 1.333C7 .597 7.597 0 8.333 0h13.334C22.403 0 23 .597 23 1.333v8c0 .737-.597 1.334-1.333 1.334h-4a1.333 1.333 0 01-1.334-1.334 1.333 1.333 0 10-2.666 0c0 .737-.597 1.334-1.334 1.334h-4A1.333 1.333 0 017 9.333v-8zm2.667 1.334V8h1.56a4 4 0 017.546 0h1.56V2.667H9.667z"
              fill="#EE0033"/>
    </symbol>
    <symbol fill="none" viewBox="0 0 57 73" id="icon-o-clock2" xmlns="http://www.w3.org/2000/svg">
        <path d="M1.583 1.586h53.834M1.583 71.41h53.834" stroke="#EE0033" stroke-width="4" stroke-miterlimit="10"
              stroke-linecap="square"/>
        <path d="M6.333 71.412v-12.06c0-2.54.792-4.92 2.059-6.983L19 36.498 8.392 20.629c-1.267-2.063-2.058-4.443-2.058-6.982V1.586m44.332 0v12.06c0 2.54-.791 4.92-2.058 6.983L38 36.5l10.608 15.87c1.425 2.063 2.059 4.602 2.059 6.982v12.061"
              stroke="#EE0033" stroke-width="4" stroke-miterlimit="10"/>
        <path d="M17.417 60.302v-.952c0-.317.158-.635.316-.952L28.5 42.21l10.767 16.187c.158.317.316.635.316.952v.952H17.417z"
              stroke="#FE9A00" stroke-width="4" stroke-miterlimit="10" stroke-linecap="square"/>
    </symbol>
    <symbol fill="none" viewBox="0 0 20 25" id="icon-upload-hhv" xmlns="http://www.w3.org/2000/svg">
        <path fill-rule="evenodd" clip-rule="evenodd"
              d="M10 16.4a.8.8 0 01-.8-.8V1.2a.8.8 0 111.6 0v14.4a.8.8 0 01-.8.8z" fill="#576C8A"/>
        <path fill-rule="evenodd" clip-rule="evenodd"
              d="M4.634 6.566a.8.8 0 010-1.13l4.8-4.8a.8.8 0 011.131 0l4.8 4.8a.8.8 0 01-1.131 1.13L9.999 2.332 5.765 6.566a.8.8 0 01-1.131 0zM18 12.4a.8.8 0 00-.8-.8h-1.6a.8.8 0 010-1.6h1.6a2.4 2.4 0 012.4 2.4V22a2.4 2.4 0 01-2.4 2.4H2.8A2.4 2.4 0 01.4 22v-9.6A2.4 2.4 0 012.8 10h1.6a.8.8 0 010 1.6H2.8a.8.8 0 00-.8.8V22a.8.8 0 00.8.8h14.4a.8.8 0 00.8-.8v-9.6z"
              fill="#576C8A"/>
    </symbol>
    <symbol fill="none" viewBox="0 0 24 24" id="info" xmlns="http://www.w3.org/2000/svg">
        <path fill-rule="evenodd" clip-rule="evenodd"
              d="M12 2C6.477 2 2 6.477 2 12s4.477 10 10 10 10-4.477 10-10S17.523 2 12 2zM0 12C0 5.373 5.373 0 12 0s12 5.373 12 12-5.373 12-12 12S0 18.627 0 12z"
              fill="#EE0033"/>
        <path fill-rule="evenodd" clip-rule="evenodd" d="M12 6a1 1 0 011 1v6a1 1 0 11-2 0V7a1 1 0 011-1z"
              fill="#EE0033"/>
        <path d="M12 18a1 1 0 100-2 1 1 0 000 2z" fill="#EE0033"/>
    </symbol>
    <symbol fill="none" viewBox="0 0 18 17" id="like" xmlns="http://www.w3.org/2000/svg">
        <path d="M5.271 16.289h9.051c.91 0 1.675-.655 1.784-1.529l.873-5.824c.146-.983-.51-1.93-1.528-2.075-.073-.036-.146-.036-.255-.036H10.1V3.549C10.1.89 7.916 1 7.916 1c-.146 1.346-.364 2.693-.728 4.004-.474 1.42-2.184 2.548-2.548 4.004m0-1.455H1v8.736h3.64V7.553z"
              stroke="#576C8A" stroke-miterlimit="10" stroke-linecap="round"/>
    </symbol>
    <symbol fill="none" viewBox="0 0 24 24" id="loading" xmlns="http://www.w3.org/2000/svg">
        <path fill-rule="evenodd" clip-rule="evenodd"
              d="M12 2a1 1 0 100 2 1 1 0 000-2zM9 3a3 3 0 116 0 3 3 0 01-6 0zm9.364 1.734a.9.9 0 100 1.8.9.9 0 000-1.8zm-2.9.9a2.9 2.9 0 115.8 0 2.9 2.9 0 01-5.8 0zM21 11.2a.8.8 0 100 1.6.8.8 0 000-1.6zm-2.8.8a2.8 2.8 0 115.6 0 2.8 2.8 0 01-5.6 0zm.164 5.664a.7.7 0 100 1.4.7.7 0 000-1.4zm-2.7.7a2.7 2.7 0 115.4 0 2.7 2.7 0 01-5.4 0zM12 20.398a.6.6 0 100 1.2.6.6 0 000-1.2zm-2.6.6a2.6 2.6 0 115.2 0 2.6 2.6 0 01-5.2 0zm-3.764-3.135a.5.5 0 100 1 .5.5 0 000-1zm-2.5.5a2.5 2.5 0 115 0 2.5 2.5 0 01-5 0zM3 11.602a.4.4 0 100 .8.4.4 0 000-.8zm-2.4.4a2.4 2.4 0 114.8 0 2.4 2.4 0 01-4.8 0zm5.036-6.666a.3.3 0 100 .6.3.3 0 000-.6zm-2.3.3a2.3 2.3 0 114.6 0 2.3 2.3 0 01-4.6 0z"
              fill="#FE9A00"/>
    </symbol>
    <symbol fill="none" viewBox="0 0 20 20" id="location" xmlns="http://www.w3.org/2000/svg">
        <path fill-rule="evenodd" clip-rule="evenodd"
              d="M10 1.667c-2.442 0-5 1.848-5 5 0 .7.293 1.6.819 2.617.517.999 1.215 2.029 1.929 2.968A37.506 37.506 0 0010 14.934a38.658 38.658 0 002.253-2.682c.713-.939 1.412-1.97 1.928-2.968.526-1.017.819-1.917.819-2.617 0-3.152-2.558-5-5-5zm0 14.479l-.591.587-.006-.006-.014-.014-.051-.053a36.918 36.918 0 01-.868-.931 39.165 39.165 0 01-2.05-2.469c-.745-.98-1.504-2.095-2.081-3.21-.569-1.1-1.005-2.285-1.005-3.384C3.334 2.435 6.804 0 10.001 0c3.196 0 6.666 2.435 6.666 6.667 0 1.099-.436 2.284-1.004 3.382-.577 1.116-1.337 2.23-2.082 3.211a39.178 39.178 0 01-2.917 3.4l-.052.053-.014.014-.005.005-.592-.586zm0 0l.592.587a.833.833 0 01-1.183 0l.592-.587z"
              fill="#576C8A"/>
        <path fill-rule="evenodd" clip-rule="evenodd"
              d="M10 5.835A.833.833 0 1010 7.5a.833.833 0 000-1.666zm-2.5.833a2.5 2.5 0 115 0 2.5 2.5 0 01-5 0zm-1.68 7.758a.833.833 0 01-.674.966c-1.216.216-2.172.504-2.802.813-.316.156-.508.298-.611.405a.596.596 0 00-.05.057c.033.047.117.14.322.273.363.234.942.476 1.732.691 1.57.428 3.784.703 6.263.703 2.48 0 4.694-.275 6.262-.703.791-.215 1.37-.457 1.733-.69.205-.133.289-.227.322-.274a.608.608 0 00-.05-.057c-.103-.107-.295-.249-.611-.405-.63-.31-1.586-.597-2.802-.813a.833.833 0 11.292-1.64c1.292.229 2.42.551 3.246.958.412.203.791.447 1.078.745.29.303.53.711.53 1.213 0 .786-.574 1.333-1.102 1.673-.566.365-1.329.662-2.197.898-1.749.477-4.118.762-6.701.762-2.583 0-4.952-.285-6.701-.762-.868-.236-1.631-.533-2.197-.898C.574 18.001 0 17.454 0 16.668c0-.502.24-.91.53-1.212.287-.299.666-.543 1.078-.746.827-.407 1.954-.729 3.246-.959a.833.833 0 01.966.675zm12.519 2.278l-.002-.004.002.004zm-16.678 0l.002-.004a.018.018 0 01-.002.004z"
              fill="#576C8A"/>
    </symbol>
    <symbol fill="none" viewBox="0 0 12 18" id="lock" xmlns="http://www.w3.org/2000/svg">
        <path fill-rule="evenodd" clip-rule="evenodd"
              d="M6 1.5c-1.686 0-3 1.314-3 3v3.825a.75.75 0 01-1.5 0V4.5C1.5 1.986 3.486 0 6 0c2.514 0 4.5 1.986 4.5 4.5v3.825a.75.75 0 01-1.5 0V4.5c0-1.686-1.314-3-3-3z"
              fill="#EE0033"/>
        <path fill-rule="evenodd" clip-rule="evenodd"
              d="M6 7.5a4.5 4.5 0 100 9 4.5 4.5 0 000-9zM0 12a6 6 0 1112 0 6 6 0 01-12 0z" fill="#EE0033"/>
        <path fill-rule="evenodd" clip-rule="evenodd"
              d="M6 10.5A.75.75 0 106 12a.75.75 0 000-1.5zm-2.25.75a2.25 2.25 0 114.5 0 2.25 2.25 0 01-4.5 0z"
              fill="#EE0033"/>
        <path fill-rule="evenodd" clip-rule="evenodd"
              d="M6 12a.75.75 0 01.75.75v1.5a.75.75 0 01-1.5 0v-1.5A.75.75 0 016 12z" fill="#EE0033"/>
    </symbol>
    <symbol fill="none" viewBox="0 0 200 225" id="notification" xmlns="http://www.w3.org/2000/svg">
        <path d="M24.406 72.86a8 8 0 017.746-6h135.749a8.001 8.001 0 017.735 5.956l18.67 70.688h-50.633a15.997 15.997 0 00-9.927 3.452l-29.525 23.357a8 8 0 01-10.02-.075L65.84 147.105a16.001 16.001 0 00-10.113-3.601H6.164l18.242-70.645z"
              fill="#fff" stroke="#E7E7E7" stroke-width="8"/>
        <mask id="bfa" fill="#fff">
            <path fill-rule="evenodd" clip-rule="evenodd"
                  d="M99.429 159.43c12.939 0 23.428-10.49 23.428-23.429 0-.313.251-.571.565-.571H188c6.627 0 12 5.372 12 12v64.571c0 6.628-5.373 12-12 12H12c-6.627 0-12-5.372-12-12V147.43c0-6.628 5.373-12 12-12h63.435c.314 0 .565.258.565.571 0 12.939 10.49 23.429 23.429 23.429z"/>
        </mask>
        <path fill-rule="evenodd" clip-rule="evenodd"
              d="M99.429 159.43c12.939 0 23.428-10.49 23.428-23.429 0-.313.251-.571.565-.571H188c6.627 0 12 5.372 12 12v64.571c0 6.628-5.373 12-12 12H12c-6.627 0-12-5.372-12-12V147.43c0-6.628 5.373-12 12-12h63.435c.314 0 .565.258.565.571 0 12.939 10.49 23.429 23.429 23.429z"
              fill="#fff"/>
        <path d="M114.857 136.001c0 8.521-6.907 15.429-15.428 15.429v16c17.357 0 31.428-14.071 31.428-31.429h-16zm8.565 7.429H188v-16h-64.578v16zm64.578 0a4 4 0 014 4h16c0-11.046-8.954-20-20-20v16zm4 4v64.571h16V147.43h-16zm0 64.571a4 4 0 01-4 4v16c11.046 0 20-8.954 20-20h-16zm-4 4H12v16h176v-16zm-176 0a4 4 0 01-4-4H-8c0 11.046 8.954 20 20 20v-16zm-4-4V147.43H-8v64.571H8zm0-64.571a4 4 0 014-4v-16c-11.046 0-20 8.954-20 20H8zm4-4h63.435v-16H12v16zm87.429 8c-8.521 0-15.429-6.908-15.429-15.429H68c0 17.358 14.071 31.429 31.429 31.429v-16zm-23.994-8c-4.228 0-7.435-3.449-7.435-7.429h16c0-4.607-3.71-8.571-8.565-8.571v16zm55.422-7.429c0 3.98-3.206 7.429-7.435 7.429v-16c-4.856 0-8.565 3.964-8.565 8.571h16z"
              fill="#E7E7E7" mask="url(#bfa)"/>
        <path stroke="#E7E7E7" stroke-width="8" stroke-linecap="round"
              d="M100.43 32.57V4M67.27 33.29l-20.2-20.2m87.86 22.11l20.2-20.2"/>
    </symbol>
    <symbol fill="none" viewBox="0 0 24 24" id="pdf" xmlns="http://www.w3.org/2000/svg">
        <path fill-rule="evenodd" clip-rule="evenodd"
              d="M15 0a.75.75 0 01.75.75V6H21a.75.75 0 010 1.5h-6a.75.75 0 01-.75-.75v-6A.75.75 0 0115 0z"
              fill="#576C8A"/>
        <path fill-rule="evenodd" clip-rule="evenodd"
              d="M2.25.75A.75.75 0 013 0h12a.75.75 0 01.53.22l6 6c.141.14.22.331.22.53v3a.75.75 0 01-1.5 0V7.06L14.69 1.5H3.75v8.25a.75.75 0 01-1.5 0v-9zM3 19.5a.75.75 0 01.75.75v2.25h16.5v-2.25a.75.75 0 011.5 0v3A.75.75 0 0121 24H3a.75.75 0 01-.75-.75v-3A.75.75 0 013 19.5z"
              fill="#576C8A"/>
        <path d="M9.857 14.329c0 .478-.141.848-.423 1.109-.282.261-.683.39-1.203.39h-.326v1.422H6.748v-4.283h1.483c.54 0 .947.117 1.219.354.271.238.407.572.407 1.008zm-1.952.557h.211a.577.577 0 00.415-.146.53.53 0 00.154-.405c0-.289-.16-.433-.481-.433h-.299v.984zm6.27.131c0 .715-.196 1.266-.59 1.652-.394.387-.947.581-1.66.581H10.54v-4.283h1.483c.688 0 1.219.175 1.592.527.374.352.561.86.561 1.523zm-1.2.042c0-.393-.079-.684-.234-.873-.155-.19-.39-.285-.707-.285h-.337v2.4h.258c.352 0 .61-.102.773-.306.165-.204.246-.516.246-.936zm3.107 2.191h-1.14v-4.283h2.532v.928h-1.392v.818h1.284v.928h-1.284v1.609z"
              fill="#576C8A"/>
        <path fill-rule="evenodd" clip-rule="evenodd"
              d="M0 9.75A.75.75 0 01.75 9h22.5a.75.75 0 01.75.75v10.5a.75.75 0 01-.75.75H.75a.75.75 0 01-.75-.75V9.75zm1.5.75v9h21v-9h-21z"
              fill="#576C8A"/>
    </symbol>
    <symbol fill="none" viewBox="0 0 20 20" id="phone" xmlns="http://www.w3.org/2000/svg">
        <path fill-rule="evenodd" clip-rule="evenodd"
              d="M2.744 1.076a.833.833 0 011.179 0l4.166 4.167a.833.833 0 010 1.178L6.18 8.332l5.488 5.488 1.91-1.91a.833.833 0 011.179 0l4.167 4.166a.833.833 0 010 1.179l-2.5 2.5a.833.833 0 01-.59.244C7.09 19.999 0 12.909 0 4.165c0-.22.088-.433.244-.589l2.5-2.5zm-1.073 3.43c.178 7.553 6.268 13.643 13.821 13.822l1.663-1.663-2.988-2.988-1.911 1.911a.833.833 0 01-1.179 0L4.411 8.921a.833.833 0 010-1.178l1.91-1.911-2.988-2.988-1.662 1.663z"
              fill="#576C8A"/>
    </symbol>
    <symbol fill="none" viewBox="0 0 32 32" id="picture" xmlns="http://www.w3.org/2000/svg">
        <path fill-rule="evenodd" clip-rule="evenodd"
              d="M0 6.667c0-.736.597-1.333 1.333-1.333h29.334c.736 0 1.333.597 1.333 1.333v24c0 .737-.597 1.334-1.333 1.334H1.333A1.333 1.333 0 010 30.667v-24zm2.667 1.334v21.333h26.666V8.001H2.667zm3.999-6.668C6.666.597 7.263 0 7.999 0h16a1.333 1.333 0 110 2.667H8a1.333 1.333 0 01-1.333-1.334z"
              fill="#EE0033"/>
        <path fill-rule="evenodd" clip-rule="evenodd"
              d="M20.252 13.358c.407.079.755.342.94.713l5.333 10.667a1.333 1.333 0 01-1.192 1.93H7.999a1.333 1.333 0 01-.885-2.33l12-10.667c.31-.276.73-.391 1.138-.313zm-8.746 10.643h11.67l-3.591-7.181L11.506 24z"
              fill="#EE0033"/>
        <path d="M9.333 16a2.667 2.667 0 100-5.334 2.667 2.667 0 000 5.333z" fill="#EE0033"/>
    </symbol>
    <symbol fill="none" viewBox="0 0 68 12" id="rating" xmlns="http://www.w3.org/2000/svg">
        <path d="M6.373.732l1.555 3.15 3.477.506a.416.416 0 01.23.709L9.12 7.547l.594 3.463a.416.416 0 01-.604.438L6 9.816 2.89 11.45a.416.416 0 01-.604-.44l.594-3.46L.364 5.1a.416.416 0 01.23-.71l3.477-.508L5.626.732a.417.417 0 01.747 0zm14 0l1.555 3.15 3.477.506a.416.416 0 01.23.709l-2.516 2.45.594 3.463a.416.416 0 01-.604.438L20 9.816l-3.11 1.634a.416.416 0 01-.604-.44l.595-3.46-2.517-2.45a.415.415 0 01.23-.71l3.478-.508 1.555-3.15a.416.416 0 01.746 0zm14 0l1.555 3.15 3.477.506a.416.416 0 01.23.709l-2.516 2.45.594 3.463a.416.416 0 01-.604.438L34 9.816l-3.11 1.634a.416.416 0 01-.604-.44l.595-3.46-2.517-2.45a.415.415 0 01.23-.71l3.477-.508 1.556-3.15a.416.416 0 01.746 0zm14 0l1.555 3.15 3.477.506a.416.416 0 01.23.709l-2.516 2.45.594 3.463a.416.416 0 01-.604.438L48 9.816l-3.11 1.634a.416.416 0 01-.604-.44l.594-3.46-2.516-2.45a.415.415 0 01.23-.71l3.477-.508 1.556-3.15a.416.416 0 01.746 0z"
              fill="#FFD500"/>
        <path d="M62.373.732l1.555 3.15 3.477.506a.416.416 0 01.23.709l-2.516 2.45.594 3.463a.416.416 0 01-.603.438L62 9.816l-3.11 1.634a.416.416 0 01-.604-.44l.594-3.46-2.516-2.45a.415.415 0 01.23-.71l3.477-.508 1.556-3.15a.416.416 0 01.746 0z"
              fill="#E7E7E7"/>
    </symbol>
    <symbol fill="none" viewBox="0 0 22 25" id="register" xmlns="http://www.w3.org/2000/svg">
        <path fill-rule="evenodd" clip-rule="evenodd"
              d="M12 6a1 1 0 011-1h2a1 1 0 110 2h-2a1 1 0 01-1-1zm0 4a1 1 0 011-1h2a1 1 0 110 2h-2a1 1 0 01-1-1zm-8 4a1 1 0 011-1h10a1 1 0 110 2H5a1 1 0 01-1-1zm0 4a1 1 0 011-1h5a1 1 0 110 2H5a1 1 0 01-1-1zm13.293-3.707a1 1 0 011.414 0l3 3a1 1 0 010 1.414l-6 6A1 1 0 0115 25h-3a1 1 0 01-1-1v-3a1 1 0 01.293-.707l6-6zM13 21.414V23h1.586l5-5L18 16.414l-5 5zM4 6a1 1 0 011-1h4a1 1 0 011 1v4a1 1 0 01-1 1H5a1 1 0 01-1-1V6zm2 1v2h2V7H6z"
              fill="#576C8A"/>
        <path fill-rule="evenodd" clip-rule="evenodd"
              d="M1 0a1 1 0 00-1 1v22a1 1 0 001 1h7c.5 0 1-.448 1-1s-.5-1-1-1H2V2h16v9c0 .435.465.935 1 .935.535 0 1-.5 1-.935V1a1 1 0 00-1-1H1z"
              fill="#576C8A"/>
    </symbol>
    <symbol fill="none" viewBox="0 0 16 18" id="remove" xmlns="http://www.w3.org/2000/svg">
        <path d="M14.814 3.752h-2.44V1.498c0-.83-.673-1.498-1.498-1.498H4.875c-.83 0-1.499.673-1.499 1.498v2.25H.936a.939.939 0 000 1.878h.562v10.876c0 .83.673 1.498 1.499 1.498h9.749c.83 0 1.498-.673 1.498-1.498V5.626h.561a.939.939 0 00.937-.937.924.924 0 00-.928-.937zm-4.314 0H5.25V2.699c0-.458.368-.825.826-.825h3.599c.458 0 .825.367.825.825v1.053zM5.25 6.377v9.002a.754.754 0 01-.751.751.754.754 0 01-.751-.751V6.377c0-.413.338-.751.751-.751s.751.338.751.751zm3.376 0v9.002a.754.754 0 01-.75.751.754.754 0 01-.752-.751V6.377c0-.413.339-.751.751-.751.413 0 .751.338.751.751zm3.373 0v9.002a.754.754 0 01-.752.751.754.754 0 01-.75-.751V6.377a.751.751 0 011.502 0z"
              fill="#fff"/>
    </symbol>
    <symbol fill="none" viewBox="0 0 180 180" id="sad" xmlns="http://www.w3.org/2000/svg">
        <circle cx="90" cy="90" r="86" fill="#fff" stroke="#E7E7E7" stroke-width="8"/>
        <path d="M49.866 79.458C55.463 79.458 60 74.92 60 69.323c0-5.598-4.538-10.135-10.135-10.135-5.598 0-10.136 4.537-10.136 10.135 0 5.597 4.538 10.135 10.136 10.135zm81.485 0c5.373 0 9.73-4.538 9.73-10.135 0-5.598-4.357-10.135-9.73-10.135-5.374 0-9.73 4.537-9.73 10.135 0 5.597 4.356 10.135 9.73 10.135z"
              stroke="#E7E7E7" stroke-width="8" stroke-miterlimit="10"/>
        <path d="M49.459 120.003s35.251-31.014 81.892 0" stroke="#E7E7E7" stroke-width="8" stroke-miterlimit="10"
              stroke-linecap="round" stroke-linejoin="round"/>
    </symbol>
    <symbol fill="none" viewBox="0 0 12 12" id="star" xmlns="http://www.w3.org/2000/svg">
        <path d="M6.373.732l1.555 3.15 3.477.506a.416.416 0 01.23.709L9.12 7.547l.594 3.463a.416.416 0 01-.604.438L6 9.816 2.89 11.45a.416.416 0 01-.604-.44l.594-3.46L.364 5.1a.416.416 0 01.23-.71l3.477-.508L5.626.732a.417.417 0 01.747 0z"
              fill="#FFD500"/>
    </symbol>
    <symbol fill="none" viewBox="0 0 18 20" id="user" xmlns="http://www.w3.org/2000/svg">
        <path fill-rule="evenodd" clip-rule="evenodd"
              d="M.666 17.501a5.833 5.833 0 015.833-5.833h5a5.833 5.833 0 015.834 5.833v.834a.833.833 0 01-.58.793l-.254-.793.254.793-.002.001-.003.001-.01.003-.029.009-.105.03c-.09.026-.22.061-.39.102-.341.083-.84.192-1.493.3-1.306.215-3.226.427-5.722.427-2.495 0-4.415-.212-5.721-.428a20.348 20.348 0 01-1.493-.299 11.537 11.537 0 01-.495-.132l-.03-.01-.01-.002-.002-.001h-.002l.253-.794-.254.793a.833.833 0 01-.579-.793V17.5zm1.667.19c.295.069.701.153 1.216.238 1.22.201 3.05.406 5.45.406 2.4 0 4.23-.205 5.45-.406.515-.085.922-.17 1.217-.238v-.19a4.166 4.166 0 00-4.167-4.166h-5A4.166 4.166 0 002.333 17.5v.19zM9 1.667A3.334 3.334 0 005.667 5c0 .943.39 2.016 1.043 2.849.655.836 1.478 1.318 2.29 1.318s1.635-.482 2.29-1.318c.653-.833 1.043-1.906 1.043-2.849A3.334 3.334 0 009 1.667zM4 5a5 5 0 0110 0c0 1.358-.543 2.785-1.398 3.877C11.75 9.965 10.49 10.833 9 10.833c-1.49 0-2.75-.868-3.602-1.956C4.543 7.785 4 6.357 4 5z"
              fill="#576C8A"/>
    </symbol>
</svg>