<svg width="30" height="34" viewBox="0 0 30 34" fill="none" xmlns="http://www.w3.org/2000/svg">
<path d="M30 16.9048V23.2481C30 23.3749 30 23.5335 30 23.6604C29.7742 27.0857 26.8065 29.8133 23.2258 29.8133H9.22581L4.83871 33.9999V29.6865C2.03226 28.8936 0 26.3563 0 23.3115V16.7779C0 13.1305 3.03226 10.1492 6.74194 10.1492H15.9677C14.2903 11.0689 12.6129 12.2425 12.5806 16.6193V16.8096H17.0968V16.651C17.0968 15.0969 17.4194 14.082 18.3548 13.4794C19.7419 12.5913 22.3871 11.9887 23.8387 10.1809C23.9355 10.1809 24.0323 10.2126 24.129 10.2126C27.4194 10.6883 30 13.6063 30 16.9048Z" fill="#EE0033"/>
<path d="M23.8381 10.1809C22.3865 12.0522 19.7736 12.5913 18.3865 13.5111C17.451 14.1137 17.0962 15.0652 17.0962 16.651V16.8096H12.5801V16.6193C12.6123 12.2742 14.0962 11.0689 15.8059 10.1492H23.193C23.4188 10.1492 23.6446 10.1809 23.8381 10.1809Z" fill="#1A4C7E"/>
<path d="M24.9024 6.88246C24.9024 7.42164 24.8379 7.89739 24.7411 8.34142C24.5476 9.0709 24.2572 9.67351 23.8379 10.181C23.6121 10.1493 23.4185 10.1493 23.1927 10.1493H15.8056C15.9024 10.0858 16.0314 10.0541 16.1282 9.99067C17.354 9.35634 18.9992 9.03918 19.7089 8.27799C20.0637 7.9291 20.2572 7.48507 20.2572 6.85075C20.2572 4.34515 17.8701 3.74254 15.7734 3.74254C13.6121 3.74254 11.3863 4.91604 11.354 6.97761H6.83789C6.93466 2.15672 11.1282 0 15.8701 0C20.6121 0 24.9992 1.99813 24.9024 6.88246Z" fill="#FE9A00"/>
<path d="M12.709 20.8696C12.709 23.6607 17.0638 23.6607 17.0638 20.8696C17.0638 18.0151 12.709 18.0151 12.709 20.8696Z" fill="#1A4C7E"/>
</svg>
