<svg width="46" height="46" viewBox="0 0 46 46" fill="none" xmlns="http://www.w3.org/2000/svg">
<path d="M42.1673 20.0518V23.7672M31.434 44.5261H3.83398V20.0518" stroke="white" stroke-width="2" stroke-linecap="round" stroke-linejoin="round"/>
<path d="M37.3015 1.47461H8.69896L1.47461 14.449C1.47461 18.4297 4.57075 21.6733 8.69896 21.6733C12.8272 21.6733 15.9233 18.5772 15.9233 14.449C15.9233 18.4297 19.0195 21.6733 23.1477 21.6733C27.2759 21.6733 30.3721 18.5772 30.3721 14.449C30.3721 18.4297 33.4682 21.6733 37.5964 21.6733C41.7246 21.6733 44.8208 18.5772 44.8208 14.449L37.3015 1.47461Z" stroke="white" stroke-width="2" stroke-linecap="round" stroke-linejoin="round"/>
<line x1="39.7482" y1="39.8662" x2="44.4673" y2="44.5853" stroke="white" stroke-width="2" stroke-linecap="round" stroke-linejoin="round"/>
<ellipse cx="35.0985" cy="33.5653" rx="7.49887" ry="7.49887" stroke="white" stroke-width="2" stroke-linecap="round" stroke-linejoin="round"/>
</svg>
