<svg width="40" height="40" viewBox="0 0 40 40" fill="none" xmlns="http://www.w3.org/2000/svg">
<path d="M36.6844 30.186H32.5926C31.2656 30.186 30.186 31.2656 30.186 32.5926V36.6843C30.186 38.0113 31.2656 39.0909 32.5926 39.0909H36.6844C38.0114 39.0909 39.0909 38.0113 39.0909 36.6843V32.5926C39.0909 31.2656 38.0113 30.186 36.6844 30.186Z" fill="#D1D1D1"/>
<path d="M25.3134 30.186H21.2215C19.8945 30.186 18.815 31.2656 18.815 32.5926V36.6843C18.815 38.0113 19.8946 39.0909 21.2215 39.0909H25.3134C26.6404 39.0909 27.7199 38.0113 27.7199 36.6843V32.5926C27.7199 31.2656 26.6403 30.186 25.3134 30.186Z" fill="#D1D1D1"/>
<path d="M36.6844 18.8148H32.5926C31.2656 18.8148 30.186 19.8944 30.186 21.2213V25.3131C30.186 26.6401 31.2656 27.7196 32.5926 27.7196H36.6844C38.0114 27.7196 39.0909 26.64 39.0909 25.3131V21.2213C39.0909 19.8944 38.0113 18.8148 36.6844 18.8148Z" fill="#D1D1D1"/>
<path d="M12.7383 0.942017H4.55457C2.56264 0.942017 0.942078 2.56258 0.942078 4.55451V12.7382C0.942078 14.7301 2.56264 16.3507 4.55457 16.3507H12.7383C14.7302 16.3507 16.3508 14.7301 16.3508 12.7382V4.55451C16.3507 2.56258 14.7302 0.942017 12.7383 0.942017ZM10.5306 9.21253C10.5306 9.94042 9.94055 10.5305 9.21266 10.5305H8.08016C7.35228 10.5305 6.76224 9.94042 6.76224 9.21253V8.0801C6.76224 7.35222 7.35228 6.76218 8.08016 6.76218H9.21259C9.94048 6.76218 10.5305 7.35222 10.5305 8.0801V9.21253H10.5306Z" fill="#D1D1D1"/>
<path d="M12.7364 23.6821H4.55268C2.56075 23.6821 0.940186 25.3027 0.940186 27.2946V35.4783C0.940186 37.4703 2.56075 39.0908 4.55268 39.0908H12.7364C14.7283 39.0908 16.3489 37.4703 16.3489 35.4783V27.2945C16.3488 25.3026 14.7283 23.6821 12.7364 23.6821ZM10.5287 31.9526C10.5287 32.6805 9.93866 33.2706 9.21077 33.2706H8.07827C7.35039 33.2706 6.76035 32.6805 6.76035 31.9526V30.8202C6.76035 30.0923 7.35039 29.5023 8.07827 29.5023H9.2107C9.93858 29.5023 10.5286 30.0923 10.5286 30.8202L10.5287 31.9526Z" fill="#D1D1D1"/>
<path d="M35.4784 0.940063H27.2948C25.3028 0.940063 23.6823 2.56062 23.6823 4.55255V12.7362C23.6823 14.7282 25.3028 16.3487 27.2948 16.3487H35.4785C37.4704 16.3487 39.091 14.7282 39.091 12.7362V4.55255C39.0909 2.56062 37.4703 0.940063 35.4784 0.940063ZM33.2707 9.21057C33.2707 9.93846 32.6807 10.5285 31.9528 10.5285H30.8204C30.0925 10.5285 29.5024 9.93846 29.5024 9.21057V8.07815C29.5024 7.35026 30.0925 6.76022 30.8204 6.76022H31.9528C32.6807 6.76022 33.2707 7.35026 33.2707 8.07815V9.21057Z" fill="#D1D1D1"/>
<path d="M12.7052 0.909058H4.52161C2.52968 0.909058 0.909119 2.52962 0.909119 4.52155V12.7052C0.909119 14.6972 2.52968 16.3177 4.52161 16.3177H12.7053C14.6972 16.3177 16.3178 14.6972 16.3178 12.7052V4.52155C16.3177 2.52962 14.6972 0.909058 12.7052 0.909058ZM13.9164 12.7052C13.9164 13.373 13.3731 13.9164 12.7052 13.9164H4.52161C3.85376 13.9164 3.31039 13.3731 3.31039 12.7052V4.52155C3.31039 3.85362 3.85376 3.31033 4.52161 3.31033H12.7053C13.3732 3.31033 13.9165 3.85362 13.9165 4.52155L13.9164 12.7052Z" fill="#EE0033"/>
<path d="M12.7053 23.6511H4.52167C2.52974 23.6511 0.90918 25.2716 0.90918 27.2635V35.4472C0.90918 37.4391 2.52974 39.0597 4.52167 39.0597H12.7054C14.6973 39.0597 16.3179 37.4391 16.3179 35.4472V27.2635C16.3178 25.2716 14.6972 23.6511 12.7053 23.6511ZM13.9165 35.4472C13.9165 36.1151 13.3731 36.6584 12.7053 36.6584H4.52167C3.85382 36.6584 3.31045 36.1151 3.31045 35.4472V27.2635C3.31045 26.5957 3.85382 26.0523 4.52167 26.0523H12.7054C13.3732 26.0523 13.9166 26.5956 13.9166 27.2635L13.9165 35.4472Z" fill="#EE0033"/>
<path d="M36.6844 30.186H32.5926C31.2656 30.186 30.186 31.2656 30.186 32.5926V36.6843C30.186 38.0113 31.2656 39.0909 32.5926 39.0909H36.6844C38.0114 39.0909 39.0909 38.0113 39.0909 36.6843V32.5926C39.0909 31.2656 38.0113 30.186 36.6844 30.186ZM36.6867 36.6895C36.6792 36.6911 36.3575 36.6892 32.5873 36.6844L32.5926 32.5873L36.6897 32.5926L36.6867 36.6895Z" fill="#EE0033"/>
<path d="M25.3134 30.186H21.2215C19.8945 30.186 18.815 31.2656 18.815 32.5926V36.6843C18.815 38.0113 19.8946 39.0909 21.2215 39.0909H25.3134C26.6404 39.0909 27.7199 38.0113 27.7199 36.6843V32.5926C27.7199 31.2656 26.6403 30.186 25.3134 30.186ZM25.3157 36.6895C25.3082 36.6911 24.9865 36.6892 21.2163 36.6844L21.2215 32.5873L25.3186 32.5926L25.3157 36.6895Z" fill="#EE0033"/>
<path d="M36.6844 18.8148H32.5926C31.2656 18.8148 30.186 19.8944 30.186 21.2213V25.3131C30.186 26.6401 31.2656 27.7196 32.5926 27.7196H36.6844C38.0114 27.7196 39.0909 26.64 39.0909 25.3131V21.2213C39.0909 19.8944 38.0113 18.8148 36.6844 18.8148ZM36.6867 25.3183C36.5078 25.3183 32.8342 25.3135 32.5872 25.3132L32.5925 21.2161L36.6896 21.2213L36.6867 25.3183Z" fill="#EE0033"/>
<path d="M27.2637 16.3177H35.4474C37.4394 16.3177 39.0599 14.6971 39.0599 12.7052V4.52155C39.0599 2.52962 37.4394 0.909058 35.4474 0.909058H27.2637C25.2718 0.909058 23.6512 2.52962 23.6512 4.52155V12.7052C23.6513 14.6971 25.2719 16.3177 27.2637 16.3177ZM26.0526 4.52155C26.0526 3.85369 26.596 3.31033 27.2638 3.31033H35.4475C36.1154 3.31033 36.6587 3.85362 36.6587 4.52155V12.7052C36.6587 13.3731 36.1154 13.9165 35.4475 13.9165H27.2637C26.5959 13.9165 26.0525 13.3732 26.0525 12.7052V4.52155H26.0526Z" fill="#EE0033"/>
<path d="M9.21074 6.76025H8.07824C7.35035 6.76025 6.76031 7.35029 6.76031 8.07818V9.2106C6.76031 9.93849 7.35035 10.5285 8.07824 10.5285H9.21067C9.93855 10.5285 10.5286 9.93849 10.5286 9.2106V8.07818C10.5287 7.35029 9.93855 6.76025 9.21074 6.76025Z" fill="#EE0033"/>
<path d="M9.21074 29.5023H8.07824C7.35035 29.5023 6.76031 30.0924 6.76031 30.8202V31.9527C6.76031 32.6806 7.35035 33.2706 8.07824 33.2706H9.21067C9.93855 33.2706 10.5286 32.6806 10.5286 31.9527V30.8202C10.5287 30.0924 9.93855 29.5023 9.21074 29.5023Z" fill="#EE0033"/>
<path d="M30.8204 10.5286H31.9529C32.6807 10.5286 33.2708 9.93857 33.2708 9.21068V8.07818C33.2708 7.35029 32.6807 6.76025 31.9529 6.76025H30.8204C30.0925 6.76025 29.5025 7.35029 29.5025 8.07818V9.21061C29.5025 9.9385 30.0925 10.5286 30.8204 10.5286Z" fill="#EE0033"/>
<path d="M20.0156 9.84496C20.6787 9.84496 21.2163 9.30745 21.2163 8.64432V2.1407C21.2163 1.47757 20.6787 0.940063 20.0156 0.940063C19.3526 0.940063 18.815 1.47757 18.815 2.1407V8.64432C18.815 9.30745 19.3525 9.84496 20.0156 9.84496Z" fill="#EE0033"/>
<path d="M20.0156 19.2279H21.3336V21.6122C21.3336 22.2753 21.8712 22.8129 22.5342 22.8129C23.1973 22.8129 23.7348 22.2753 23.7348 21.6122V18.0273C23.7348 17.3641 23.1973 16.8266 22.5342 16.8266H21.2163V14.0654C21.2163 13.4023 20.6787 12.8647 20.0156 12.8647C19.3526 12.8647 18.815 13.4023 18.815 14.0654V18.0273C18.815 18.6904 19.3525 19.2279 20.0156 19.2279Z" fill="#EE0033"/>
<path d="M6.76028 21.2161C7.42333 21.2161 7.96091 20.6786 7.96091 20.0155C7.96091 19.3523 7.42333 18.8148 6.76028 18.8148H2.14082C1.47777 18.8148 0.940186 19.3523 0.940186 20.0155C0.940186 20.6786 1.47777 21.2161 2.14082 21.2161H6.76028Z" fill="#EE0033"/>
<path d="M14.7239 21.2161C15.3869 21.2161 15.9245 20.6786 15.9245 20.0155C15.9245 19.3523 15.3869 18.8148 14.7239 18.8148H11.1673C10.5043 18.8148 9.96667 19.3523 9.96667 20.0155C9.96667 20.6786 10.5043 21.2161 11.1673 21.2161H14.7239Z" fill="#EE0033"/>
<path d="M26.5193 22.5164C25.8562 22.5164 25.3186 23.0539 25.3186 23.717V25.3184H20.0156C19.3526 25.3184 18.815 25.8559 18.815 26.5191C18.815 27.1822 19.3526 27.7197 20.0156 27.7197H26.5193C27.1823 27.7197 27.7199 27.1822 27.7199 26.5191V23.717C27.7199 23.0539 27.1824 22.5164 26.5193 22.5164Z" fill="#EE0033"/>
</svg>
