<svg width="12" height="12" viewBox="0 0 12 12" fill="none" xmlns="http://www.w3.org/2000/svg">
<path fill-rule="evenodd" clip-rule="evenodd" d="M5.96521 0.788818C3.17284 0.788818 0.90918 3.05248 0.90918 5.84485C0.90918 8.63722 3.17284 10.9009 5.96521 10.9009C8.75759 10.9009 11.0212 8.63722 11.0212 5.84485C11.0212 3.05248 8.75759 0.788818 5.96521 0.788818ZM0.15918 5.84485C0.15918 2.63827 2.75863 0.0388184 5.96521 0.0388184C9.1718 0.0388184 11.7712 2.63827 11.7712 5.84485C11.7712 9.05144 9.1718 11.6509 5.96521 11.6509C2.75863 11.6509 0.15918 9.05144 0.15918 5.84485Z" fill="#EE0033"/>
<path fill-rule="evenodd" clip-rule="evenodd" d="M5.96507 2.21326C6.17218 2.21326 6.34007 2.38115 6.34007 2.58826V6.62071C6.34007 6.82781 6.17218 6.99571 5.96507 6.99571H2.93921C2.7321 6.99571 2.56421 6.82781 2.56421 6.62071C2.56421 6.4136 2.7321 6.24571 2.93921 6.24571H5.59007V2.58826C5.59007 2.38115 5.75796 2.21326 5.96507 2.21326Z" fill="#FE9A00"/>
</svg>
