<svg width="15" height="14" viewBox="0 0 15 14" fill="none" xmlns="http://www.w3.org/2000/svg">
<path d="M2.43658 8.33854C2.38669 8.06695 2.12607 7.88722 1.85447 7.93712C1.58287 7.98701 1.40315 8.24764 1.45304 8.51923L2.43658 8.33854ZM2.89517 3.13715C2.71616 3.34741 2.7415 3.66297 2.95176 3.84198C3.16202 4.02099 3.47759 3.99566 3.6566 3.7854L2.89517 3.13715ZM4.3773 8.71093C4.64404 8.7824 4.9182 8.62411 4.98968 8.35738C5.06115 8.09064 4.90285 7.81648 4.63612 7.745L4.3773 8.71093ZM2.43687 7.67336L2.30746 8.15632L2.43687 7.67336ZM1.38709 8.27945L0.904127 8.15004L1.38709 8.27945ZM0.238593 10.6338C0.167122 10.9006 0.325413 11.1747 0.592146 11.2462C0.858879 11.3177 1.13305 11.1594 1.20452 10.8927L0.238593 10.6338ZM9.27168 2.03596C12.2057 2.82214 13.947 5.83799 13.1608 8.77206L14.1267 9.03088C15.0558 5.56335 12.998 1.99916 9.5305 1.07003L9.27168 2.03596ZM13.1608 8.77206C12.3746 11.7061 9.35874 13.4473 6.42467 12.6611L6.16586 13.6271C9.63339 14.5562 13.1976 12.4984 14.1267 9.03088L13.1608 8.77206ZM6.42467 12.6611C4.30614 12.0935 2.80853 10.3631 2.43658 8.33854L1.45304 8.51923C1.89211 10.9092 3.66054 12.9558 6.16586 13.6271L6.42467 12.6611ZM3.6566 3.7854C4.991 2.21802 7.15315 1.4683 9.27168 2.03596L9.5305 1.07003C7.02519 0.398737 4.47038 1.28693 2.89517 3.13715L3.6566 3.7854ZM4.63612 7.745L2.56628 7.19039L2.30746 8.15632L4.3773 8.71093L4.63612 7.745ZM0.904127 8.15004L0.238593 10.6338L1.20452 10.8927L1.87005 8.40886L0.904127 8.15004ZM2.56628 7.19039C1.84229 6.9964 1.09812 7.42605 0.904127 8.15004L1.87005 8.40886C1.9211 8.21833 2.11694 8.10527 2.30746 8.15632L2.56628 7.19039Z" fill="#EE0033"/>
</svg>
