<svg width="182" height="17" viewBox="0 0 182 17" fill="none" xmlns="http://www.w3.org/2000/svg">
<mask id="mask0" mask-type="alpha" maskUnits="userSpaceOnUse" x="0" y="0" width="182" height="17">
<path fill-rule="evenodd" clip-rule="evenodd" d="M0 0H181.386V16.9672H0V0Z" fill="white"/>
</mask>
<g mask="url(#mask0)">
<path fill-rule="evenodd" clip-rule="evenodd" d="M169.155 13.6061C167.259 13.6061 166.163 12.9932 166.163 11.3081V5.18664C166.163 4.25463 164.314 3.40313 161.245 3.40313C158.183 3.40313 156.37 3.53884 156.37 5.18664V13.8775H140.245C138.589 13.8775 137.885 13.6792 137.885 12.4355V11.1888H149.921C151.687 11.1888 153.168 11.2679 153.168 9.85717V8.44796H140.245C138.589 8.44796 137.885 8.2377 137.885 7.27884V6.31252H150.859C152.514 6.31252 154.342 5.80103 154.342 5.18664V3.40313H117.257C115.857 3.40313 115.857 2.06103 115.857 2.06103V1.76428C115.857 0.939626 114.129 0.000152238 111.289 0.000152238C108.468 0.000152238 106.056 0.67717 106.056 1.76428V2.12366L106.025 2.06103C106.025 2.06103 106.025 3.40313 104.622 3.40313H92.8852C91.49 3.40313 91.49 2.06103 91.49 2.06103L91.4461 2.12366V1.76428C91.4461 0.939626 89.7212 0.000152238 86.8883 0.000152238C84.057 0.000152238 81.6448 0.67717 81.6448 1.76428V2.06103C81.6448 2.06103 81.6448 3.40313 80.2511 3.40313H45.6053C43.8334 3.40313 42.9074 3.98471 42.9074 5.18664V15.1987C42.9074 16.0696 44.0704 16.9673 46.9017 16.9673H66.2437C67.7363 16.9673 69.64 16.0965 69.64 15.1615V13.8775H54.9671C53.6237 13.8775 52.7008 13.5793 52.7008 12.3833V11.1888H64.6742C66.0977 11.1888 67.9842 11.2142 67.9842 9.83182V8.44796H55.0425C53.699 8.44796 52.7008 8.35699 52.7008 7.5562V6.76287H77.1059C79.5841 6.76287 81.6448 7.49656 81.6448 9.85717V15.1987C81.6448 16.0234 83.955 16.9673 86.6671 16.9673C89.3822 16.9673 91.4461 16.0607 91.4461 15.1987V9.85717C91.4461 8.51059 92.6875 6.76287 95.4042 6.76287H102.129C104.364 6.76287 106.056 7.72919 106.056 9.74235V15.1987C106.056 16.0234 107.79 16.9673 110.626 16.9673C113.458 16.9673 115.857 16.2859 115.857 15.1987V9.74235C115.857 8.39875 117.698 6.76287 119.354 6.76287H124.43C126.195 6.76287 128.09 7.8455 128.09 9.85717V15.1987C128.09 16.0234 128.906 16.9673 131.036 16.9673H177.529C179.657 16.9673 181.387 16.1755 181.387 15.1987V13.6061H169.155ZM35.2045 3.40314H27.7166C25.8223 3.40314 23.9468 4.02796 23.1181 5.18664C22.291 6.33936 17.3802 13.1543 17.3802 13.1543C17.3802 13.1543 12.19 6.06199 11.5481 5.18664C10.9093 4.3098 8.60691 3.40314 5.93726 3.40314H0C0 3.40314 9.8923 14.6082 10.4165 15.1987C10.9407 15.7908 13.5146 16.9673 17.1291 16.9673C20.742 16.9673 23.1181 16.353 24.1194 15.1987C25.1129 14.058 30.5793 7.74261 30.5793 7.74261V15.1987C30.5793 16.0443 32.1096 16.9673 35.2045 16.9673C38.2948 16.9673 40.368 16.0696 40.368 15.1987V5.18664C40.368 4.26805 38.56 3.40314 35.2045 3.40314Z" fill="#00908C"/>
</g>
</svg>
