<svg width="102" height="54" viewBox="0 0 102 54" fill="none" xmlns="http://www.w3.org/2000/svg">
<g clip-path="url(#clip0)">
<path fill-rule="evenodd" clip-rule="evenodd" d="M26.4675 30.4441V49.3705C26.4675 50.4198 25.6012 51.2768 24.5406 51.2768H4.68789C3.62724 51.2768 2.76091 50.4198 2.76091 49.3705V26.183C6.68773 28.8262 13.3836 33.4557 16.5574 35.6983C16.8327 35.8905 17.0108 36.3311 17.0756 36.6835C17.1646 37.1881 17.0918 37.7247 17.116 38.2453C17.1565 39.1424 16.7598 39.8312 16.0473 40.3198C15.011 41.0246 13.8532 41.2409 12.6306 40.9365C11.2623 40.5921 10.4931 39.631 10.4607 38.2293C10.4364 37.2041 10.4364 36.1869 10.4364 35.1617C10.4364 34.585 10.1935 34.2806 9.57819 34.2966C8.80902 34.3127 8.03985 34.3127 7.27068 34.2966C6.59057 34.2806 6.31529 34.601 6.33148 35.2578C6.35577 36.2029 6.37196 37.148 6.33958 38.0851C6.26671 40.0475 7.12494 41.5372 8.70376 42.6185C11.2947 44.3886 14.1284 44.6369 17.0351 43.5396C19.205 42.7226 20.8485 41.337 21.0348 38.838C21.1157 37.7407 21.0348 36.6354 21.0833 35.5381C21.1157 34.8173 20.7838 34.3687 20.217 33.9843C18.6868 32.943 9.49722 26.5755 2.76091 21.93V21.898C1.61121 21.121 0.647722 20.4723 0 20.0558V49.3705C0 51.9255 2.1051 54.008 4.68789 54.008H24.5406C27.1234 54.008 29.2284 51.9255 29.2284 49.3705V27.6408C28.3864 28.4818 27.3986 29.499 26.4675 30.4441Z" fill="white"/>
<path fill-rule="evenodd" clip-rule="evenodd" d="M29.2204 4.6375C29.2204 2.08247 27.1234 0 24.5406 0H4.68789C2.1051 0 0 2.08247 0 4.6375V15.7547C0.858231 16.3474 1.78124 16.9801 2.76091 17.6529V4.6375C2.76091 3.58825 3.62724 2.73124 4.68789 2.73124H24.5406C25.6012 2.73124 26.4675 3.58825 26.4675 4.6375V20.4082C24.3624 22.4346 22.2492 24.485 21.4153 25.326C20.9295 25.8066 20.5652 25.8947 19.9417 25.4462C17.0756 23.3877 14.1527 21.4014 11.2542 19.383C10.2097 18.6621 9.97492 17.0122 10.7684 16.003C11.999 14.4251 14.4523 14.1368 16.0311 15.3782C16.695 15.8988 17.0432 16.5636 17.0027 17.4206C16.9784 17.9973 16.9946 18.574 17.0027 19.1507C17.0108 19.6233 17.2294 19.8635 17.7476 19.8475C18.541 19.8235 19.3426 19.8075 20.128 19.8555C20.7838 19.8956 20.97 19.5752 20.97 19.0065C20.9619 18.4058 20.9538 17.8051 20.9781 17.1964C21.0186 15.7306 20.4518 14.5212 19.3588 13.5841C16.7031 11.3014 13.6507 10.8769 10.4526 12.1104C7.78076 13.1356 6.0643 15.0098 6.2829 18.1095C6.30719 18.4699 6.2991 18.8463 6.25861 19.2068C6.19384 19.8235 6.42864 20.248 6.94682 20.6004C8.45277 21.6256 9.93443 22.6749 11.4323 23.7081C14.4199 25.7826 17.4237 27.833 20.3951 29.9395C21.0429 30.404 21.4477 30.404 22.0064 29.8274C23.1803 28.6179 25.5607 26.3753 26.8481 25.2059V25.1338C27.6253 24.3809 28.4431 23.588 29.2365 22.8271V4.6375H29.2204Z" fill="white"/>
<path d="M36.6609 26.8398C39.3085 26.8398 40.6282 28.2255 40.6282 30.9887V33.1593C40.6282 35.9146 39.3085 37.2922 36.6609 37.2922H35.3978V43.5877H32.7422V26.8398H36.6609ZM35.3978 29.2347V34.9134H36.6609C37.5272 34.9134 37.9563 34.3848 37.9563 33.3275V30.8205C37.9563 29.7713 37.5272 29.2427 36.6609 29.2427H35.3978V29.2347Z" fill="white"/>
<path d="M44.5145 43.5877H41.8589V26.8398H44.5145V34.0243H47.5345V26.8398H50.2469V43.5877H47.5345V36.4192H44.5145V43.5877Z" fill="white"/>
<path d="M51.9634 30.8606C51.9634 28.0573 53.3074 26.6556 56.0035 26.6556C58.6916 26.6556 60.0437 28.0573 60.0437 30.8606V39.5749C60.0437 42.3782 58.6997 43.7799 56.0035 43.7799C53.3155 43.7799 51.9634 42.3782 51.9634 39.5749V30.8606ZM54.619 39.7351C54.619 40.8404 55.0805 41.3931 56.0035 41.3931C56.9265 41.3931 57.388 40.8404 57.388 39.7351V30.7004C57.388 29.6031 56.9265 29.0504 56.0035 29.0504C55.0805 29.0504 54.619 29.6031 54.619 30.7004V39.7351Z" fill="white"/>
<path d="M64.1241 31.4693V43.5957H61.7275V26.8398H65.0714L67.7999 36.8757V26.8398H70.1722V43.5877H67.4356L64.1241 31.4693Z" fill="white"/>
<path d="M74.7309 33.9042H78.3905V36.291H74.7309V41.1928H79.3216V43.5877H72.0752V26.8398H79.3216V29.2347H74.7309V33.9042Z" fill="white"/>
<path d="M84.0742 38.1572L88.9159 26.8398H91.8064V38.1572H93.0695V40.5521H91.8064V43.5877H89.1507V40.5521H84.0742V38.1572ZM89.1507 38.1572V31.9659L86.5194 38.1572H89.1507Z" fill="white"/>
<path d="M98.2675 34.2566H102V39.5669C102 42.3702 100.68 43.7719 98.0327 43.7719C95.3852 43.7719 94.0654 42.3702 94.0654 39.5669V30.8606C94.0654 28.0573 95.3852 26.6556 98.0327 26.6556C100.68 26.6556 102 28.0573 102 30.8606V32.4945H99.482V30.6924C99.482 29.5951 99.0205 29.0424 98.0975 29.0424C97.1745 29.0424 96.713 29.5951 96.713 30.6924V39.7351C96.713 40.8244 97.1745 41.369 98.0975 41.369C99.0205 41.369 99.482 40.8244 99.482 39.7351V36.6514H98.2675V34.2566Z" fill="white"/>
<path d="M35.7054 49.2744L35.7135 49.2904C35.7216 49.6588 35.5921 49.9632 35.3249 50.2115C35.0577 50.4598 34.7015 50.5799 34.2643 50.5799C33.8189 50.5799 33.4546 50.4278 33.1793 50.1074C32.8959 49.795 32.7583 49.4025 32.7583 48.922V48.2251C32.7583 47.7446 32.8959 47.3521 33.1793 47.0317C33.4627 46.7194 33.8189 46.5592 34.2643 46.5592C34.7096 46.5592 35.0658 46.6793 35.3249 46.9116C35.5921 47.1439 35.7135 47.4562 35.7054 47.8407L35.6973 47.8567H35.1873C35.1873 47.5844 35.1063 47.3681 34.9444 47.2079C34.7824 47.0478 34.5557 46.9677 34.2562 46.9677C33.9566 46.9677 33.7218 47.0878 33.5437 47.3201C33.3655 47.5604 33.2765 47.8487 33.2765 48.2011V48.8979C33.2765 49.2504 33.3655 49.5467 33.5437 49.787C33.7218 50.0273 33.9566 50.1394 34.2562 50.1394C34.5557 50.1394 34.7824 50.0593 34.9444 49.8991C35.1063 49.7389 35.1873 49.5227 35.1873 49.2424H35.7054V49.2744Z" fill="white"/>
<path d="M41.7779 50.5239H41.2435V48.8018H39.3327V50.5239H38.7983V46.6233H39.3327V48.3853H41.2435V46.6233H41.7779V50.5239Z" fill="white"/>
<path d="M48.1093 48.922C48.1093 49.3945 47.9636 49.795 47.664 50.1074C47.3644 50.4197 46.9758 50.5799 46.4981 50.5799C46.0366 50.5799 45.6642 50.4197 45.3808 50.1074C45.0893 49.795 44.9517 49.3945 44.9517 48.922V48.2251C44.9517 47.7526 45.0974 47.3521 45.3808 47.0397C45.6642 46.7274 46.0447 46.5672 46.4981 46.5672C46.9758 46.5672 47.3644 46.7274 47.664 47.0397C47.9636 47.3521 48.1093 47.7526 48.1093 48.2251V48.922ZM47.5749 48.2251C47.5749 47.8647 47.4778 47.5764 47.2835 47.3441C47.0891 47.1118 46.8301 46.9997 46.4981 46.9997C46.1904 46.9997 45.9394 47.1118 45.7532 47.3441C45.567 47.5764 45.4779 47.8647 45.4779 48.2251V48.922C45.4779 49.2824 45.567 49.5787 45.7532 49.803C45.9394 50.0353 46.1823 50.1474 46.4981 50.1474C46.8301 50.1474 47.0891 50.0353 47.2835 49.803C47.4778 49.5787 47.5749 49.2824 47.5749 48.922V48.2251Z" fill="white"/>
<path d="M57.0072 49.795H57.0234L58.2784 46.6313H58.9423V50.5319H58.4079V47.6084H58.3917L57.2015 50.5319H56.8291L55.5984 47.5123H55.5822V50.5319H55.0479V46.6313H55.7523L57.0072 49.795Z" fill="white"/>
<path d="M65.2739 48.922C65.2739 49.3945 65.1281 49.795 64.8285 50.1074C64.529 50.4197 64.1403 50.5799 63.6626 50.5799C63.2011 50.5799 62.8287 50.4197 62.5453 50.1074C62.2539 49.795 62.1162 49.3945 62.1162 48.922V48.2251C62.1162 47.7526 62.2619 47.3521 62.5453 47.0397C62.8287 46.7274 63.2092 46.5672 63.6626 46.5672C64.1403 46.5672 64.529 46.7274 64.8285 47.0397C65.1281 47.3521 65.2739 47.7526 65.2739 48.2251V48.922ZM64.7395 48.2251C64.7395 47.8647 64.6423 47.5764 64.448 47.3441C64.2537 47.1118 63.9946 46.9997 63.6626 46.9997C63.355 46.9997 63.104 47.1118 62.9178 47.3441C62.7315 47.5764 62.6425 47.8647 62.6425 48.2251V48.922C62.6425 49.2824 62.7315 49.5787 62.9178 49.803C63.104 50.0353 63.3469 50.1474 63.6626 50.1474C63.9946 50.1474 64.2537 50.0353 64.448 49.803C64.6423 49.5787 64.7395 49.2824 64.7395 48.922V48.2251ZM63.9865 51.445H63.3955V50.9083H63.9865V51.445Z" fill="white"/>
<path d="M69.0305 50.5239H68.4961V46.6233H69.0305V50.5239Z" fill="white"/>
<path d="M79.1597 50.5239H78.6253L76.7307 47.5443L76.7145 47.5523V50.5239H76.1802V46.6232H76.7145L78.6091 49.5948L78.6253 49.5868V46.6152H79.1597V50.5239Z" fill="white"/>
<path d="M85.3127 50.0032C85.2155 50.1474 85.0536 50.2836 84.8269 50.4037C84.5921 50.5239 84.2925 50.5879 83.9281 50.5879C83.4747 50.5879 83.0942 50.4358 82.8027 50.1394C82.5032 49.8431 82.3574 49.4586 82.3574 48.986V48.1851C82.3574 47.7125 82.5032 47.3281 82.7865 47.0317C83.0699 46.7354 83.4424 46.5832 83.8958 46.5832C84.333 46.5832 84.6811 46.6953 84.9321 46.9276C85.1831 47.1599 85.3127 47.4562 85.3046 47.8086L85.2965 47.8247H84.7864C84.7864 47.5844 84.7054 47.3922 84.5516 47.232C84.3977 47.0718 84.1791 46.9917 83.8877 46.9917C83.5881 46.9917 83.3452 47.1038 83.159 47.3281C82.9728 47.5523 82.8837 47.8327 82.8837 48.1771V48.986C82.8837 49.3304 82.9809 49.6188 83.1752 49.8431C83.3695 50.0673 83.6205 50.1795 83.9201 50.1795C84.1548 50.1795 84.3411 50.1474 84.4706 50.0913C84.6083 50.0353 84.7054 49.9632 84.7783 49.8751V48.994H83.8877V48.5856H85.3127V50.0032Z" fill="white"/>
<path d="M91.5388 46.6313V47.1038L91.555 47.1118C91.7088 47.0638 91.8303 46.9677 91.9112 46.8235C91.9922 46.6793 92.0327 46.4951 92.0327 46.2708H92.5428L92.5509 46.2869C92.5509 46.6313 92.4699 46.9116 92.2918 47.1279C92.1137 47.3441 91.8627 47.4803 91.5307 47.5444V49.2263C91.5307 49.6508 91.3931 49.9872 91.1097 50.2275C90.8263 50.4678 90.4701 50.588 90.0248 50.588C89.5956 50.588 89.2475 50.4678 88.9722 50.2275C88.6969 49.9872 88.5674 49.6508 88.5674 49.2263V46.6393H89.1018V49.2263C89.1018 49.5227 89.1908 49.755 89.3608 49.9232C89.5309 50.0914 89.7576 50.1795 90.0248 50.1795C90.3162 50.1795 90.551 50.0914 90.7292 49.9232C90.9073 49.755 91.0044 49.5227 91.0044 49.2263V46.6393H91.5388V46.6313Z" fill="white"/>
<path d="M97.895 48.922C97.895 49.3945 97.7492 49.795 97.4496 50.1074C97.1501 50.4197 96.7614 50.5799 96.2837 50.5799C95.8222 50.5799 95.4498 50.4197 95.1664 50.1074C94.8749 49.795 94.7373 49.3945 94.7373 48.922V48.2251C94.7373 47.7526 94.883 47.3521 95.1664 47.0397C95.4579 46.7274 95.8303 46.5672 96.2837 46.5672C96.5023 46.5672 96.7048 46.5992 96.891 46.6713C97.0772 46.7434 97.2391 46.8475 97.3849 46.9757C97.6035 46.9596 97.7735 46.8715 97.8869 46.7194C98.0002 46.5672 98.0569 46.3589 98.0569 46.0946H98.5912C98.5912 46.439 98.5103 46.7194 98.3565 46.9356C98.1945 47.1519 97.9759 47.296 97.6763 47.3601C97.7411 47.4883 97.7978 47.6244 97.8383 47.7686C97.8788 47.9208 97.895 48.073 97.895 48.2251V48.922ZM97.3606 48.2251C97.3606 47.8647 97.2634 47.5764 97.0691 47.3441C96.8748 47.1118 96.6157 46.9997 96.2837 46.9997C95.9761 46.9997 95.7251 47.1118 95.5389 47.3441C95.3526 47.5764 95.2636 47.8647 95.2636 48.2251V48.922C95.2636 49.2824 95.3526 49.5787 95.5389 49.803C95.7251 50.0353 95.968 50.1474 96.2837 50.1474C96.6157 50.1474 96.8748 50.0353 97.0691 49.803C97.2634 49.5787 97.3606 49.2824 97.3606 48.922V48.2251ZM96.559 46.2868H96.1299L95.4498 45.59L95.4579 45.574H96.0813L96.559 46.2868Z" fill="white"/>
<path d="M101.684 50.5239H101.149V46.6233H101.684V50.5239Z" fill="white"/>
<path d="M37.2114 5.33432C39.778 5.33432 41.0572 6.71195 41.0572 9.46722V10.3403H38.5878V9.30703C38.5878 8.22575 38.1506 7.68911 37.2762 7.68911C36.4017 7.68911 35.9645 8.22575 35.9645 9.30703C35.9645 10.0519 36.2317 10.7567 36.7661 11.4376C36.9766 11.6939 37.2519 11.9902 37.5919 12.3106L38.2882 12.9513C38.3773 13.0395 38.4583 13.1115 38.5311 13.1676C38.9198 13.52 39.2274 13.8244 39.4622 14.0887C39.7942 14.4491 40.0695 14.8015 40.2881 15.154C40.8224 16.011 41.0896 16.9641 41.0896 18.0214C41.0896 20.7766 39.7942 22.1543 37.1952 22.1543C34.5962 22.1543 33.3008 20.7766 33.3008 18.0214V16.4195H35.7702V18.1735C35.7702 19.2468 36.2236 19.7834 37.1304 19.7834C38.0291 19.7834 38.4745 19.2468 38.4745 18.1735C38.4745 17.4287 38.2154 16.7238 37.6891 16.051C37.4786 15.7947 37.2033 15.4984 36.8632 15.17L35.9241 14.313C35.5354 13.9605 35.2278 13.6562 34.9849 13.3919C34.661 13.0314 34.3857 12.679 34.1752 12.3346C33.6408 11.4696 33.3737 10.5085 33.3737 9.45921C33.3575 6.70394 34.6448 5.33432 37.2114 5.33432Z" fill="white"/>
<path d="M48.085 17.1884L49.8743 5.51053H53.5016V21.962H51.0321V10.1721L49.2347 21.962H46.7652L44.814 10.3322V21.962H42.5308V5.51053H46.158L48.085 17.1884Z" fill="white"/>
<path d="M63.8409 21.962H61.2095L60.7561 18.9825H57.558L57.1046 21.962H54.708L57.3637 5.51053H61.1933L63.8409 21.962ZM57.8818 16.7398H60.408L59.1449 8.42598L57.8818 16.7398Z" fill="white"/>
<path d="M70.5122 21.962C70.4232 21.7057 70.3665 21.4815 70.3422 21.2972C70.3017 21.0009 70.2855 20.5443 70.2855 19.9436V17.3646C70.2855 15.9629 69.7107 15.2661 68.5691 15.2661H67.6623V21.962H65.0552V5.51053H68.9982C71.581 5.51053 72.8683 6.77603 72.8683 9.29902V10.5966C72.8683 12.2866 72.2935 13.3999 71.1519 13.9365C72.3097 14.4091 72.8926 15.5785 72.8926 17.4367V19.9677C72.8926 20.8567 72.9817 21.5215 73.1679 21.962H70.5122ZM67.6542 7.86532V12.9273H68.6743C69.7269 12.9273 70.2531 12.3426 70.2531 11.1812V9.56333C70.2531 8.43399 69.8078 7.86532 68.9172 7.86532H67.6542Z" fill="white"/>
<path d="M73.8804 5.51053H81.9526V7.86532H79.2241V21.962H76.617V7.86532H73.8804V5.51053Z" fill="white"/>
</g>
<defs>
<clipPath id="clip0">
<rect width="102" height="54" fill="white"/>
</clipPath>
</defs>
</svg>
