<svg width="81" height="80" viewBox="0 0 81 80" fill="none" xmlns="http://www.w3.org/2000/svg">
<path d="M47.3642 24.9591C46.314 24.9591 45.4626 24.1077 45.4626 23.0575V16.4584C45.4626 14.9943 44.2714 13.8031 42.8072 13.8031H32.398C30.9339 13.8031 29.7427 14.9943 29.7427 16.4584V23.0575C29.7427 24.1077 28.8912 24.9591 27.8411 24.9591C26.7909 24.9591 25.9395 24.1077 25.9395 23.0575V16.4584C25.9395 12.8972 28.8367 10 32.3979 10H42.8071C46.3683 10 49.2655 12.8972 49.2655 16.4584V23.0575C49.2658 24.1077 48.4144 24.9591 47.3642 24.9591Z" fill="#DCDCDC"/>
<path d="M60.0262 60.9081H15.1815C12.0437 60.9081 9.5 58.3645 9.5 55.2266V27.1869C9.5 24.049 12.0437 21.5053 15.1815 21.5053H60.0262C63.164 21.5053 65.7077 24.049 65.7077 27.1869V55.2265C65.7077 58.3643 63.164 60.9081 60.0262 60.9081Z" fill="#DCDCDC"/>
<path d="M60.0262 21.5054H15.1815C12.0437 21.5054 9.5 24.0491 9.5 27.187V34.2557C9.5 37.3936 12.0437 39.9372 15.1815 39.9372H60.0262C63.164 39.9372 65.7077 37.3936 65.7077 34.2557V27.187C65.7077 24.0492 63.164 21.5054 60.0262 21.5054Z" fill="#B57E73"/>
<path d="M60.0276 21.5053H54.8789C58.0168 21.5053 60.5605 24.049 60.5605 27.1869V55.2265C60.5605 58.3643 58.0168 60.908 54.8789 60.908H60.0276C63.1655 60.908 65.7092 58.3643 65.7092 55.2265V27.1869C65.7092 24.0491 63.1655 21.5053 60.0276 21.5053Z" fill="#DCDCDC"/>
<path d="M60.0262 21.5054H15.1815C12.0437 21.5054 9.5 24.0491 9.5 27.187V34.2557C9.5 37.3936 12.0437 39.9372 15.1815 39.9372H60.0262C63.164 39.9372 65.7077 37.3936 65.7077 34.2557V27.187C65.7077 24.0492 63.164 21.5054 60.0262 21.5054Z" fill="#B57E73"/>
<path d="M60.0262 21.5053H15.1815C12.0437 21.5053 9.5 24.049 9.5 27.1869V34.2556C9.5 37.3934 12.0437 39.9371 15.1815 39.9371H60.0262C63.164 39.9371 65.7077 37.3934 65.7077 34.2556V27.1869C65.7077 24.0491 63.164 21.5053 60.0262 21.5053Z" fill="#C4C4C4"/>
<path d="M60.0245 21.5053H52.2402C55.3781 21.5053 57.9218 24.049 57.9218 27.1869V39.937H60.0245C63.1624 39.937 65.7061 37.3933 65.7061 34.2554V27.1867C65.7061 24.0491 63.1624 21.5053 60.0245 21.5053Z" fill="#C4C4C4"/>
<path d="M20.7107 45.3472C18.7757 45.3472 17.207 43.7785 17.207 41.8435V35.1924C17.207 34.4972 17.7706 33.9337 18.4657 33.9337H22.9557C23.6509 33.9337 24.2143 34.4973 24.2143 35.1924V41.8435C24.2145 43.7785 22.6458 45.3472 20.7107 45.3472Z" fill="#92001F"/>
<path d="M17.207 37.5873V41.8433C17.207 43.7784 18.7757 45.3471 20.7107 45.3471C22.6458 45.3471 24.2145 43.7784 24.2145 41.8433V37.5873H17.207Z" fill="#EE0033"/>
<path d="M41.2137 50.3522C41.2932 50.2726 41.2932 50.2726 41.3727 50.1929C42.0088 49.5556 42.4063 48.6792 42.3268 47.8029C42.3268 47.1655 42.7243 46.6078 43.3603 46.4485L46.2225 45.6518C46.8585 45.4925 47.4946 45.8112 47.8126 46.3688L47.8921 46.5282C48.2896 47.2452 48.9257 47.7232 49.7207 47.8825C49.9592 47.9622 50.1182 47.9622 50.3567 48.0419C51.1518 48.2809 51.9468 48.2012 52.6624 47.7232C52.7419 47.7232 52.7419 47.6435 52.7419 47.6435C53.3779 47.2452 54.0935 47.3249 54.5705 47.8029L56.6376 49.8742C57.1146 50.3522 57.1941 51.0693 56.7966 51.6269L56.7171 51.7863C56.2401 52.5033 56.1606 53.3 56.3991 54.0967C56.4786 54.3357 56.4786 54.495 56.5581 54.734C56.7171 55.5307 57.1941 56.168 57.9097 56.5664C57.9892 56.5664 57.9892 56.646 57.9892 56.646C58.6252 56.9647 58.9432 57.6021 58.7842 58.2394L57.9892 61.1075C57.8302 61.7448 57.2736 62.1431 56.6376 62.1431C55.7631 62.0635 54.8885 62.4618 54.2525 63.0992C54.173 63.1788 54.173 63.1788 54.0935 63.2585C54.014 63.3382 54.014 63.3382 53.9345 63.4178C53.2984 64.0552 52.9009 64.9315 52.9804 65.8079C52.9804 66.4452 52.5829 67.0029 51.9468 67.1622L49.0847 67.9589C48.4486 68.1183 47.8126 67.7996 47.4946 67.2419L47.4151 67.0826C47.0176 66.3656 46.3815 65.8876 45.5865 65.7282C45.348 65.6485 45.1889 65.6485 44.9504 65.5689C44.1554 65.3299 43.3603 65.4095 42.6448 65.8876C42.0883 66.2859 41.3727 66.2062 40.8957 65.7282L38.8286 63.6568C38.3515 63.1788 38.272 62.4618 38.6696 61.9041L38.7491 61.7448C39.2261 61.0278 39.3056 60.2311 39.0671 59.4344C38.9876 59.1954 38.9876 59.0361 38.9081 58.7971C38.7491 58.0004 38.272 57.3631 37.5565 56.9647H37.318C36.682 56.646 36.3639 56.0087 36.5229 55.3713L37.318 52.5033C37.477 51.8659 38.0335 51.4676 38.6696 51.4676C39.5441 51.5473 40.4187 51.1489 41.0547 50.5116C41.1342 50.4319 41.2137 50.4319 41.2137 50.3522Z" fill="#92001F"/>
<path d="M48.089 44.696C48.089 44.6163 48.089 44.457 48.089 44.3773C48.089 43.1026 47.612 41.9076 46.7374 41.1109C46.1014 40.4736 45.9424 39.5176 46.3399 38.7209L48.407 35.1358C48.884 34.3391 49.7586 34.0205 50.6331 34.2595L50.8717 34.4188C51.9052 34.7375 53.0978 34.5781 54.0518 33.9408C54.2904 33.7814 54.5289 33.6221 54.8469 33.5424C55.8009 32.9848 56.596 32.1084 56.8345 30.9931C56.8345 30.9134 56.8345 30.8337 56.8345 30.8337C56.9935 29.8777 57.7091 29.2404 58.6631 29.2404H62.7973C63.5924 29.2404 64.3874 29.8777 64.5465 30.7541L64.626 30.9931C64.8645 32.1084 65.58 32.9848 66.6136 33.5424C66.8521 33.7018 67.0906 33.8611 67.4086 33.9408C68.3627 34.4985 69.4757 34.7375 70.5888 34.4188C70.6683 34.4188 70.6683 34.4188 70.6683 34.4188C71.6224 34.1001 72.5764 34.4985 73.0535 35.2155L75.1206 38.8005C75.5976 39.5972 75.4386 40.5532 74.723 41.1906C73.769 41.9873 73.292 43.1823 73.3715 44.457C73.3715 44.5367 73.3715 44.696 73.3715 44.7757C73.3715 44.8553 73.3715 45.0147 73.3715 45.0943C73.3715 46.369 73.8485 47.5641 74.723 48.3607C75.3591 48.9981 75.5181 49.9541 75.1206 50.7508L73.0535 54.3358C72.5764 55.1325 71.7019 55.4512 70.8273 55.2122L70.5888 55.1325C69.5552 54.8139 68.3627 54.9732 67.4086 55.6105C67.1701 55.7699 66.9316 55.9292 66.6931 56.0089C65.6595 56.5666 64.944 57.4429 64.7055 58.5583L64.626 58.7973C64.3874 59.5143 63.5924 60.072 62.7178 60.072H58.5836C57.7091 60.072 56.914 59.4346 56.755 58.5583L56.6755 58.3193C56.437 57.2039 55.7214 56.3276 54.6879 55.7699C54.4494 55.6105 54.2108 55.4512 53.8928 55.3715C52.9388 54.8139 51.8257 54.5749 50.7126 54.8935H50.6331C49.6791 55.2122 48.725 54.8139 48.248 54.0968L46.1809 50.5118C45.7039 49.7151 45.8629 48.7591 46.5784 48.1217C47.5325 47.325 48.0095 46.13 47.93 44.8553C48.089 44.8553 48.089 44.7757 48.089 44.696Z" fill="#EE0033"/>
<path d="M47.6542 60.0717C49.4545 60.0717 50.9139 58.6093 50.9139 56.8053C50.9139 55.0014 49.4545 53.5389 47.6542 53.5389C45.8539 53.5389 44.3945 55.0014 44.3945 56.8053C44.3945 58.6093 45.8539 60.0717 47.6542 60.0717Z" fill="white"/>
<path d="M60.9831 51.1837C64.5292 51.1837 67.4038 48.3031 67.4038 44.7498C67.4038 41.1965 64.5292 38.3159 60.9831 38.3159C57.4371 38.3159 54.5625 41.1965 54.5625 44.7498C54.5625 48.3031 57.4371 51.1837 60.9831 51.1837Z" fill="white"/>
</svg>
